<svg width="86" height="86" viewBox="0 0 86 86" fill="none" xmlns="http://www.w3.org/2000/svg">
<rect width="86" height="86" rx="20" fill="#1A262D"/>
<path d="M40.6483 18.9989C39.2793 19.5697 38.3841 19.2707 38.2262 17.5854C37.41 18.4825 37.3573 19.8688 35.9356 20.1678C36.1199 19.461 36.2516 18.863 36.4095 18.1563C35.6197 18.7815 34.9089 19.3523 34.198 19.9503C34.1454 19.8959 34.0664 19.8144 34.0137 19.76C34.3033 19.3251 34.5666 18.863 34.8825 18.4009C34.0927 18.5096 33.3819 18.5912 32.6447 18.6999C32.6184 18.6184 32.592 18.564 32.5657 18.4825C32.7237 18.3737 32.8816 18.1834 33.0396 18.1834C33.9084 18.1291 34.435 17.5311 35.0142 16.9602C35.5407 16.471 36.0936 15.9545 36.7255 15.6555C39.2266 14.5138 40.6746 12.5023 41.2538 9.81128C41.5698 8.37062 41.8594 6.92995 42.1753 5.51647C42.2016 5.35337 42.2806 5.16309 42.4649 5C42.6755 5.95138 42.9388 6.87559 43.0968 7.82697C43.4127 9.621 43.9919 11.2519 45.203 12.6382C45.5189 12.9916 45.7822 13.4265 46.0718 13.8343C47.0986 15.3293 48.257 16.6612 49.8103 17.5854C50.3632 17.9116 50.8371 18.4009 51.3373 18.8358L51.232 19.0805C50.3632 18.8086 49.5207 18.5096 48.5203 18.2106C48.8889 18.863 49.1785 19.3795 49.5207 19.9775C49.0731 20.0862 48.7046 20.2221 48.3096 20.2765C47.4672 20.4124 47.1776 20.2493 46.7827 19.461C46.4404 18.7815 46.0191 18.2106 45.3083 17.8301C45.3083 19.1892 45.4399 20.358 46.5194 21.2822C47.0986 21.7715 47.5462 22.4511 48.0464 23.0491C49.1258 24.4354 50.4948 25.414 52.0745 26.1207C53.1803 26.61 54.2334 27.2624 54.7599 28.4856C54.8916 28.7846 54.8389 29.1379 54.8652 29.4641C54.4966 29.3826 54.1017 29.3826 53.7858 29.1923C53.4699 29.002 53.2329 28.6487 52.8906 28.404C53.1539 28.9477 53.4172 29.5185 53.7068 30.1709C52.6537 29.9534 52.3378 29.0836 51.7059 28.3225V29.6544C50.7054 29.3826 50.5475 28.4584 50.1526 27.7245C49.942 27.8875 49.7313 28.0235 49.5207 28.2137C49.0731 27.806 48.5993 27.3711 48.1254 26.9634C47.9937 27.6973 48.1254 28.2681 48.7835 28.5671C50.0999 29.1923 50.8371 30.3068 51.6533 31.4484C53.0486 33.4056 54.7599 35.0637 56.6292 36.5315C56.8398 36.6946 56.9188 37.0208 57.0767 37.2655C56.7871 37.3198 56.4449 37.4829 56.1816 37.3742C55.8393 37.2383 55.5234 36.9393 55.2601 36.6675C54.9442 36.3685 54.6809 35.9879 54.286 35.7161C54.444 36.151 54.6019 36.6131 54.7862 37.048C54.7073 37.1024 54.6283 37.1567 54.5493 37.2111C54.2597 36.8577 53.9438 36.5315 53.7331 36.1238C53.3119 35.2811 52.6011 34.7647 51.7849 34.2482C51.9165 34.955 52.0218 35.5802 52.1535 36.2054C51.153 35.5802 51.2583 34.1667 50.1789 33.623C50.2842 34.3298 50.4158 34.9821 50.5212 35.6617C50.4685 35.6889 50.3895 35.6889 50.3369 35.7161C50.2052 35.5258 50.0473 35.3355 49.863 35.0637C49.8103 35.4171 49.7577 35.7161 49.705 36.0423C49.1785 36.0423 48.9678 35.6617 48.8362 35.254C48.5992 34.5744 48.4676 33.8677 48.257 33.1609C48.1254 32.726 47.9411 32.3183 47.7041 31.9377C47.6515 32.5901 47.5988 33.2697 47.5461 33.922L47.3355 33.9492C47.0722 33.4056 46.809 32.8891 46.5194 32.2911C46.3614 32.726 46.2297 33.0794 46.0981 33.4599C46.0455 33.4599 45.9928 33.4599 45.9402 33.4871C45.8349 33.0522 45.7032 32.6173 45.5716 32.0464C45.4926 32.9435 45.6242 33.7046 46.1244 34.2482C46.8353 35.0365 47.6251 35.7432 48.4676 36.3956C49.3627 37.0752 50.3632 37.5917 51.3373 38.1897C51.6006 38.3528 51.8375 38.5702 52.0218 38.842C51.1004 38.5159 50.1526 38.1897 49.1521 37.8363C49.3628 38.6246 49.784 39.141 50.3895 39.4401C50.9951 39.7662 51.6269 40.0109 52.2851 40.2012C54.8126 40.9351 56.8398 42.4573 58.6564 44.3057C58.788 44.4416 58.8933 44.6047 59.1303 44.9309C57.4453 44.3872 56.2343 43.4359 54.9705 42.3214C54.9442 42.6748 54.9179 42.9194 54.8916 43.2456C54.2597 42.8378 53.6541 42.4301 53.0223 42.0224C53.1539 42.5117 53.2856 42.9738 53.4172 43.4359L53.1539 43.6261C52.6537 43.164 52.1535 42.7019 51.5216 42.1311C51.4163 43.0553 51.3373 43.7621 52.1535 44.2513C52.4167 44.4144 52.5747 44.8765 52.6537 45.2299C52.759 45.6648 52.8906 45.8007 53.3382 45.8279C53.8648 45.8279 54.4703 45.8823 54.9442 46.0997C56.8135 47.0511 58.4984 48.3287 59.9465 49.8781C60.2361 50.1771 60.394 50.5305 59.8675 50.8023C60.394 51.5906 60.9206 52.3245 61.3945 53.0584C61.5524 53.3031 61.7367 53.5477 61.8157 53.8195C61.921 54.1185 61.9473 54.4447 62 54.7437C61.6841 54.6078 61.3418 54.4991 61.0786 54.3088C60.8416 54.1457 60.71 53.9011 60.552 53.7108C60.3414 54.0642 60.1571 54.4175 59.9728 54.7709C59.6042 54.5263 59.1566 54.336 58.867 54.0098C58.3405 53.4118 57.8929 52.7322 57.3927 52.107C57.261 51.9168 57.1031 51.7265 56.9451 51.509C57.0504 52.406 57.1294 53.2487 57.2084 54.0642C57.1031 54.0914 57.0241 54.1185 56.9188 54.1457C56.0763 53.5749 56.1026 52.542 55.734 51.6721C55.4971 51.7808 55.2338 51.9167 54.8916 52.0527C55.3391 52.6507 55.813 53.2215 56.2606 53.8467C56.8135 54.635 57.34 55.4233 57.8402 56.2388C57.9719 56.4562 57.9719 56.7552 58.0245 56.9999C57.9455 57.0542 57.8666 57.1086 57.7876 57.163C57.34 56.7824 56.8924 56.3747 56.4449 55.9941C56.4449 55.9941 56.3922 56.0213 56.3922 56.0485C56.2343 56.3475 56.1026 56.6737 55.9447 56.9727C55.6024 56.8096 55.1812 56.7009 54.9442 56.429C54.1807 55.532 53.4962 54.5535 52.7064 53.6293C52.8117 54.0642 52.9696 54.4991 53.0486 54.934C53.1276 55.2874 53.1539 55.6407 53.1276 55.9941C53.1276 56.13 52.917 56.3747 52.838 56.3747C52.68 56.3475 52.5221 56.2116 52.3904 56.0485C52.3115 55.9669 52.3378 55.8038 52.3114 55.6679C52.0482 53.9826 50.9951 53.0856 49.547 52.5963C49.8103 53.3302 50.1526 54.037 50.2842 54.7709C50.3632 55.233 50.0736 55.7223 49.9683 56.2116C49.9156 56.4562 49.863 56.728 49.942 56.9183C50.4422 58.4405 51.0214 59.9084 51.4953 61.4578C51.7322 62.2461 51.8112 63.0887 51.9429 63.9314C51.8375 63.9585 51.7322 64.0129 51.6269 64.0401C51.39 63.4693 51.1267 62.9256 50.8897 62.3276C50.8108 62.8441 50.7581 63.3334 50.6791 63.8498L50.4422 63.9042C49.4944 62.4092 49.2574 60.6151 48.5203 58.957C48.6256 60.2617 48.7309 61.5121 48.8362 62.7625C48.7309 62.7897 48.6256 62.7897 48.4939 62.8169C48.336 62.083 48.1253 61.349 47.9937 60.5879C47.7041 58.7667 47.2829 57.8697 46.1244 56.8639C46.2298 57.9241 46.3351 58.8483 46.4404 59.7996C46.3877 59.8268 46.3614 59.8268 46.3087 59.854C45.8085 58.2231 45.3083 56.5921 44.8081 54.9612C44.7291 54.9884 44.6501 54.9884 44.5711 55.0156C44.5711 55.6951 44.5975 56.3747 44.5448 57.0542C44.5185 57.2989 44.7817 57.7338 44.2289 57.761C44.2025 57.761 44.1762 58.1415 44.2025 58.3318C44.4921 62.98 44.7817 67.6282 45.0713 72.2763C45.1767 74.016 45.282 75.7557 45.3609 77.4954C45.4136 78.8545 44.2025 80.0777 42.9125 79.9961C42.7282 79.969 42.5176 79.8059 42.3596 79.6699C42.07 79.4525 41.7804 79.2078 41.5434 78.936C41.4118 78.8001 41.3328 78.5555 41.3328 78.3924C41.5961 75.1033 41.991 71.8142 42.149 68.5252C42.3596 64.0401 42.0963 59.5822 41.6488 54.9068C40.5693 56.5378 40.9116 58.4677 40.0164 60.0715C39.7268 59.4463 39.4636 58.8755 39.174 58.2503C38.9897 59.1473 38.8054 59.9627 38.6211 60.8054C38.5684 60.8054 38.5158 60.8054 38.4631 60.8054V58.8483C37.7522 59.1201 37.6996 59.6637 37.568 60.1802C37.4363 60.6423 37.3047 61.1316 37.1731 61.5937C37.0677 61.5665 36.9624 61.5665 36.8834 61.5393C36.9098 60.6967 36.9624 59.854 36.9888 59.0385C36.9624 59.0385 36.9624 59.0385 36.9361 59.0114C36.4885 60.8054 36.0409 62.5722 35.5671 64.3663C35.4617 64.3663 35.3564 64.3391 35.2511 64.3391C35.1985 63.7139 35.1195 63.0887 35.0668 62.4635C34.9089 62.9528 34.7246 63.4421 34.5666 63.9314C34.4876 63.9314 34.4086 63.9042 34.3297 63.9042C34.356 63.3877 34.356 62.8713 34.435 62.3548C34.5929 61.3219 34.8299 60.3161 34.9615 59.2832C35.0932 58.4405 34.9352 57.6251 34.4086 56.7009C34.1717 57.326 34.0137 57.7882 33.8294 58.2774C33.6715 58.7395 33.5662 59.2288 33.3555 59.6909C33.2502 59.9356 33.0133 60.0987 32.829 60.3161C32.7237 60.0987 32.6184 59.854 32.5131 59.6094C32.3551 59.1201 32.1971 58.6308 32.0128 58.0056C31.2756 58.957 31.6969 60.153 30.7228 60.9957C30.6438 60.3705 30.5911 59.9356 30.5385 59.4191C30.2489 59.854 29.9593 60.2617 29.696 60.6695C29.3537 59.3919 30.1172 58.4677 30.3805 57.2989C28.6166 58.2231 28.09 60.452 26.1681 61.2131C26.5367 59.7453 27.5898 58.8483 28.327 57.7338C27.7741 57.4076 27.4581 57.4891 27.1159 58.0328C26.6683 58.7395 26.1418 59.3647 25.6152 59.9899C25.4573 60.153 25.2203 60.2617 25.036 60.3977C24.7464 59.7453 25.115 58.6852 25.6942 58.06C26.8 56.8096 27.8531 55.532 28.9852 54.2816C29.2748 53.9554 29.6697 53.6836 30.0909 53.4661C30.4858 53.2487 30.9597 53.1672 31.381 52.9497C31.7232 52.7594 32.1971 52.4876 32.3024 52.1614C32.592 51.2916 33.2765 50.9654 33.9347 50.5033C34.8299 49.8781 35.883 49.3616 36.3042 48.1656C36.4885 47.6491 36.7518 47.1598 37.0677 46.7249C37.252 46.4531 37.6206 46.3172 37.8576 46.0726C38.0419 45.9095 38.3315 45.6376 38.3051 45.4745C38.2525 45.2571 37.9892 45.0124 37.7523 44.9037C36.8045 44.4416 36.7518 44.496 36.1989 45.3658C35.7514 46.0726 35.2775 46.7793 34.7772 47.486C34.5929 47.7579 34.3297 47.9481 34.0927 48.1656C34.0137 48.1656 33.9347 48.1384 33.8821 48.1384C33.8031 47.5404 33.7241 46.9152 33.6451 46.1541C32.5394 47.187 32.0655 48.4918 31.144 49.5791C31.223 48.9811 31.302 48.3831 31.4073 47.5948C30.6175 48.1656 29.8803 48.6005 29.3011 49.1985C28.9325 49.5791 28.8272 50.2314 28.6429 50.7751C28.5639 50.9926 28.6429 51.2372 28.5376 51.4275C28.4323 51.6449 28.2216 51.808 28.0637 51.9983C27.9584 51.7808 27.7478 51.5634 27.7214 51.3459C27.6951 50.9926 27.7741 50.6392 27.8267 50.2858C27.8794 49.9868 27.932 49.6606 27.8531 49.2801C27.6424 49.6063 27.4055 49.9053 27.2475 50.2315C26.9842 50.7207 26.7736 51.2372 26.484 51.7265C26.2997 52.0255 26.0891 52.3245 25.8258 52.5691C25.115 53.1943 24.6937 53.0041 24.4305 51.9439C24.1409 52.3245 23.9039 52.6779 23.6143 52.9769C23.4827 53.1128 23.2457 53.1128 23.0351 53.1671C23.0351 52.9769 22.9561 52.7322 23.0351 52.5963C23.6933 51.3731 24.3515 50.1499 25.036 48.9539C25.2203 48.6549 25.4309 48.3559 25.6152 48.0569C25.1413 47.4317 25.5626 46.3987 26.484 46.1813C27.1685 46.0182 27.5635 45.7735 27.7741 45.0668C27.8267 44.8493 28.0637 44.6863 28.248 44.5232C29.1958 43.6805 30.1436 42.865 31.065 42.0224C31.5389 41.6146 31.9075 41.1254 31.8549 40.4186C31.0124 40.4186 30.6438 40.7176 30.3015 41.5875C30.0119 42.267 29.696 42.9466 29.4064 43.6261C29.3274 43.599 29.2747 43.5718 29.1958 43.5446V41.0438C27.932 41.7777 27.8794 43.4087 26.721 44.3601C26.9579 43.5174 27.1685 42.8107 27.3792 42.1039C27.3265 42.0496 27.3002 42.0224 27.2475 41.968C26.9053 42.3214 26.5367 42.6748 26.2207 43.0553C25.9311 43.4087 25.6942 44.0882 25.2203 43.7621C24.7201 43.4359 25.2466 42.9194 25.4836 42.5388C27.2475 39.8478 29.617 37.9722 32.6184 36.9121C33.5398 36.5859 34.435 36.2597 35.3301 35.9063C35.5144 35.8248 35.7514 35.6345 35.804 35.4442C36.041 34.5472 36.5149 33.8677 37.331 33.4328C37.41 33.3784 37.489 33.2968 37.568 33.2153C37.252 32.6173 36.9888 32.5357 36.5938 32.9978C36.1989 33.4599 35.9093 34.0308 35.5407 34.5744C35.3038 34.0851 35.0405 33.5958 34.7772 33.0794C34.3033 33.2968 33.9084 33.5143 33.8031 34.0851C33.7505 34.4113 33.5398 34.7103 33.4082 35.0093C33.1713 34.7647 32.9343 34.5472 32.6447 34.2482C32.4604 34.7375 32.2498 35.2812 32.0655 35.8248C32.0392 35.8248 32.0128 35.8248 31.9865 35.8248V33.9492C31.9338 33.922 31.8812 33.922 31.8549 33.8949C31.4336 34.6831 31.0387 35.4714 30.6175 36.2597L30.3542 36.151C30.4595 35.5258 30.5648 34.8734 30.6701 34.1395C30.0909 34.7375 29.5907 35.2268 29.0641 35.7704C28.9325 35.4714 28.8535 35.3083 28.7745 35.1181C28.1953 35.5258 28.0637 36.5044 27.0632 36.3684C27.1949 34.7375 28.4059 34.0308 29.4064 33.1881C29.3801 33.1337 29.3801 33.0794 29.3801 33.0522C29.1958 32.8347 29.0115 32.6173 28.8272 32.3998C29.0641 32.2367 29.3011 31.9921 29.5644 31.9105C29.9066 31.8018 30.3279 31.7203 30.6701 31.8018C31.302 31.9649 31.8022 31.7474 32.3551 31.5028C33.4345 31.0135 34.5403 30.5514 35.6197 30.0893C36.3832 29.7631 37.1204 29.4369 37.331 28.4312C37.4363 27.9419 37.8576 27.5342 38.1735 27.0177C37.0414 26.9362 36.2779 27.5342 35.4881 28.2409C35.5407 27.5885 36.3306 27.1264 35.7514 26.4469C34.8036 27.0449 34.5666 28.404 33.2766 28.703C33.5662 27.9691 33.8294 27.3167 34.119 26.5556C32.9343 26.6915 32.5657 28.1594 31.3283 28.2137C31.4863 27.806 31.5916 27.507 31.6969 27.208C31.6706 27.1808 31.6442 27.1536 31.6179 27.1536C31.2756 27.2352 30.7754 27.5342 30.6438 27.3983C30.2489 27.0177 30.7491 26.7459 30.9597 26.4469C31.8812 25.2237 33.0659 24.4354 34.5403 23.9461C36.8308 23.1578 38.8054 21.7443 40.385 19.8416C40.5166 19.6785 40.5956 19.461 40.701 19.2707C40.6746 19.1348 40.6483 19.0805 40.6483 18.9989Z" fill="#F2F2F2"/>
</svg>
