<svg width="34" height="34" viewBox="0 0 34 34" fill="none" xmlns="http://www.w3.org/2000/svg">
<path d="M33 27.5685C32.9278 27.895 32.8697 28.2254 32.7811 28.5471C32.0313 31.2689 29.4722 33.1599 26.7782 32.9893C23.8412 32.8033 21.5312 30.7449 21.1206 27.8547C20.7761 25.4304 21.633 23.4712 23.5592 21.993C23.6409 21.9303 23.7321 21.8804 23.8414 21.81C24.0366 22.223 24.2237 22.6187 24.4226 23.0395C23.1429 23.9892 22.4306 25.2588 22.3973 26.8727C22.3741 27.9976 22.7266 29.0103 23.4331 29.8851C24.8897 31.6888 27.3764 32.1448 29.353 30.9757C31.3181 29.8135 32.1484 27.3633 31.3189 25.2096C30.5783 23.287 28.4055 21.7098 25.6786 22.4371C25.492 22.0423 25.3017 21.6394 25.0954 21.2029C25.8312 20.9371 26.5651 20.8281 27.3148 20.8784C30.1706 21.0696 32.3617 23.0346 32.9083 25.8768C32.9356 26.0191 32.9693 26.1603 33 26.302V27.5685Z" fill="#1A262D"/>
<path d="M12.9671 27.3944C12.6505 31.1733 9.04914 33.8257 5.29731 32.7503C2.04395 31.8178 0.199622 28.1776 1.33743 24.9216C2.48448 21.6391 6.18953 19.8737 9.61386 21.4823C10.0283 20.8287 10.4461 20.1699 10.856 19.5233C10.5462 19.3933 10.2446 19.3026 9.97995 19.1472C9.58303 18.9142 9.58556 18.5789 9.97921 18.3399C10.5232 18.0096 11.1355 17.9541 11.7547 17.9327C12.1063 17.9205 12.3907 18.0047 12.6982 18.2184C13.1447 18.5287 13.6702 18.7224 14.1247 18.9473C14.0313 18.9865 13.8751 19.0519 13.719 19.1173C13.7209 19.1545 13.7228 19.1918 13.7247 19.229C14.9741 19.1106 16.1806 19.2832 17.3579 19.7101C17.3579 19.7479 17.3636 19.7901 17.3568 19.8302C17.3396 19.9322 17.3169 20.0332 17.2924 20.1545C16.9924 20.1545 16.7019 20.1545 16.4115 20.1545C14.8803 20.1545 13.3491 20.1576 11.818 20.1505C11.6312 20.1497 11.5159 20.2009 11.4153 20.3677C11.0957 20.8977 10.758 21.4165 10.4145 21.9597C11.9089 23.0811 12.7573 24.5704 12.9521 26.4644H13.3008C14.9049 26.4644 16.509 26.463 18.113 26.4661C18.316 26.4664 18.5055 26.4758 18.6159 26.2464C18.6443 26.1874 18.7496 26.1566 18.8256 26.1324C19.5472 25.903 19.9685 25.4008 20.0486 24.6506C20.0998 24.1712 20.2646 23.7714 20.5383 23.3826C21.2153 22.4211 21.8638 21.4389 22.5231 20.4645C22.58 20.3805 22.6316 20.2928 22.7151 20.16H20.6982C20.7441 19.8315 20.7846 19.5421 20.8308 19.2118H21.6044C22.1669 19.2118 22.7304 19.1891 23.2915 19.2175C23.9996 19.2532 24.5956 18.9989 25.1359 18.5713C25.8095 18.0384 26.2959 17.3546 26.6805 16.5744C26.1629 16.9642 25.7078 16.8361 25.2216 16.5012C23.0609 15.0131 20.8869 13.5451 18.7174 12.0702C18.6059 11.9944 18.4913 11.9233 18.3449 11.8285C17.5469 13.2116 16.7458 14.5731 16.1936 16.1181C16.7535 16.2633 17.3023 16.4056 17.893 16.5588C17.8606 16.747 17.8407 16.9321 17.7957 17.1106C17.6131 17.8339 17.2913 18.4932 16.863 19.0976C16.81 19.1725 16.674 19.2548 16.6001 19.2364C15.5914 18.9853 14.5747 18.7563 13.5848 18.4415C12.6858 18.1557 12.0574 17.5404 12.0173 16.5306C11.9968 16.0138 12.0946 15.4825 12.2037 14.9719C12.6305 12.9745 13.5417 11.211 14.8215 9.64421C15.471 8.84912 16.3079 8.42409 17.3518 8.57575C17.6458 8.61846 17.9262 8.7566 18.2129 8.85097C18.2043 8.90424 18.1957 8.95751 18.1871 9.01077C17.7035 9.01077 17.2198 9.00491 16.7363 9.01212C15.9804 9.0234 15.4827 9.5101 15.496 10.2143C15.5089 10.8958 16.0266 11.3676 16.7671 11.3513C18.0166 11.3238 19.2658 11.279 20.5153 11.2578C20.6889 11.2549 20.8917 11.303 21.0342 11.3988C22.8298 12.6053 24.6153 13.8274 26.4074 15.0393C26.782 15.2927 26.9661 15.6223 26.8966 16.1048C26.9274 16.0837 26.9475 16.0739 26.9623 16.0588C26.9841 16.0365 27.0005 16.0088 27.0221 15.9863C27.1978 15.8023 27.4032 15.7685 27.6157 15.9C27.836 16.0362 27.8887 16.2618 27.7851 16.4812C27.0491 18.0392 26.1093 19.4031 24.4101 20.0206C24.3815 20.031 24.3555 20.0487 24.3101 20.0726C24.8018 21.1209 25.292 22.1664 25.7827 23.2117C26.3009 24.3156 26.8198 25.4192 27.3377 26.5232C27.3777 26.6087 27.4193 26.6944 27.4483 26.784C27.5285 27.0324 27.4424 27.2316 27.2229 27.3426C27.0033 27.4536 26.7922 27.3986 26.642 27.1929C26.581 27.1094 26.543 27.008 26.4983 26.913C25.5633 24.9247 24.6288 22.9362 23.6939 20.9479C23.6497 20.854 23.6021 20.7617 23.5394 20.635C23.4491 20.7632 23.3768 20.8624 23.3079 20.9641C21.9403 22.981 20.569 24.9953 19.2108 27.0187C19.0254 27.2948 18.8142 27.4024 18.4877 27.4001C16.7691 27.3878 15.0504 27.3944 13.3317 27.3944C13.2091 27.3944 13.0865 27.3944 12.9671 27.3944ZM11.5492 27.3944C11.42 27.3944 11.3073 27.3944 11.1946 27.3944C9.7584 27.3944 8.32223 27.393 6.88608 27.3956C6.65974 27.396 6.4463 27.3848 6.31782 27.1544C6.18796 26.9215 6.29526 26.7324 6.41725 26.54C7.15922 25.3698 7.899 24.1983 8.6392 23.027C8.71141 22.9127 8.78145 22.797 8.85331 22.6807C7.45524 21.9448 5.22817 22.0814 3.71773 23.6156C2.22766 25.1291 1.92835 27.4531 2.99094 29.2948C4.05448 31.1381 6.19878 32.016 8.23062 31.4398C10.0516 30.9233 11.5745 29.0916 11.5492 27.3944ZM9.67629 23.1238C8.97106 24.2396 8.28711 25.3218 7.58211 26.4372H11.5833C11.4 25.0547 10.783 23.9728 9.67629 23.1238Z" fill="#1A262D"/>
<path d="M18.2453 16.6359C18.7931 16.784 19.3039 16.8889 19.7911 17.0623C20.4209 17.2863 20.7752 17.9263 20.6773 18.6354C20.3965 20.6701 20.1058 22.7036 19.806 24.7355C19.69 25.522 18.9654 26.0521 18.201 25.9445C17.3948 25.8311 16.8451 25.123 16.9513 24.3027C17.0703 23.3835 17.2114 22.4672 17.3425 21.5496C17.4377 20.8833 17.5324 20.2168 17.6311 19.5234C17.4657 19.4718 17.311 19.4235 17.1202 19.364C17.6708 18.5442 18.0829 17.6697 18.2453 16.6359Z" fill="#1A262D"/>
<path d="M18.9772 11.1113C18.2381 11.1113 17.499 11.1106 16.7599 11.1115C16.151 11.1122 15.7444 10.7579 15.7284 10.2107C15.7124 9.66176 16.1005 9.26866 16.7024 9.24941C17.9618 9.20914 19.2214 9.1723 20.4812 9.15134C20.727 9.14725 20.871 9.07596 20.9964 8.85432C21.6589 7.68387 22.3374 6.52268 23.0132 5.35996C23.2607 4.93404 23.5878 4.76659 24.021 4.83113C24.6691 4.92767 24.9781 5.65667 24.6219 6.27994C24.0119 7.3473 23.3908 8.40815 22.7745 9.47177C22.5953 9.78087 22.4078 10.0853 22.2397 10.4005C22.0262 10.8007 21.7125 11.0044 21.2571 10.9995C20.4973 10.9914 19.7372 10.9973 18.9773 10.9973C18.9772 11.0353 18.9772 11.0733 18.9772 11.1113Z" fill="#1A262D"/>
<path d="M11.9698 6.55128C11.9876 6.4847 11.997 6.38557 12.0388 6.30331C12.9925 4.42549 14.2076 2.82141 16.3287 2.20312C17.1093 1.97557 17.9036 1.90474 18.6959 2.17166C19.2567 2.36059 19.6689 2.71825 19.9305 3.26142C20.0445 3.49796 19.9974 3.67123 19.7876 3.79763C19.52 3.95888 19.2562 4.13912 18.968 4.25061C17.5118 4.81388 16.0478 5.35633 14.5874 5.90845C13.8572 6.18449 13.1288 6.4654 12.3998 6.74447C12.0942 6.86144 11.9691 6.81333 11.9698 6.55128Z" fill="#1A262D"/>
<path d="M14.0324 20.4106C14.1543 20.4019 14.2251 20.3925 14.296 20.3924C15.179 20.3914 16.0621 20.3918 16.9433 20.3918C17.2003 21.1046 17.0864 21.7985 16.9795 22.4941C16.8852 23.108 16.7892 23.7222 16.7218 24.3393C16.6985 24.5527 16.6999 24.8067 16.793 24.9877C17.0142 25.4176 16.8672 25.7998 16.7425 26.2153H13.7239C14.3978 24.3129 14.4845 22.3931 14.0324 20.4106Z" fill="#1A262D"/>
<path d="M19.6794 4.16099C19.7703 4.09864 19.8639 4.03442 19.9567 3.97078C20.525 4.52107 20.6446 5.74753 20.2196 6.63226C19.7357 7.63948 18.6289 8.25431 17.5786 8.09932C16.3876 7.92357 15.5259 7.09015 15.3273 5.89168C16.1178 5.60463 16.9147 5.31525 17.7104 5.02634C18.1991 5.58907 18.8634 5.48862 19.3449 5.18746C19.7517 4.93301 19.8366 4.65434 19.6794 4.16099Z" fill="#1A262D"/>
<path d="M22.5424 5.71829C22.4758 5.601 22.4138 5.5415 22.4112 5.47943C22.3904 4.98628 22.36 4.49189 22.3769 3.99945C22.3851 3.76058 22.5918 3.64618 22.8205 3.63804C24.0565 3.59406 25.2927 3.55168 26.529 3.51989C26.851 3.51161 27.0306 3.6918 27.048 4.02366C27.069 4.42309 27.0724 4.8237 27.0741 5.22384C27.0754 5.51532 26.9065 5.68912 26.6354 5.6998C26.108 5.72058 25.5793 5.70589 25.0279 5.70589C24.9649 5.15616 24.6847 4.73175 24.1082 4.60912C23.258 4.42821 22.8887 5.04619 22.5424 5.71829Z" fill="#1A262D"/>
<path d="M16.3086 27.6341C16.0281 28.1828 15.8206 28.6932 15.5249 29.1443C14.9822 29.9723 13.7793 29.9754 13.2031 29.1798C12.9857 28.8796 12.8788 28.5778 13.0569 28.1872C13.3032 27.6473 13.275 27.6341 13.8757 27.6341L16.3086 27.6341Z" fill="#1A262D"/>
<path d="M21.4892 5.10561C21.4112 5.09369 21.3317 5.08154 21.2538 5.06965C21.1401 4.56032 21.1559 4.51203 21.4565 4.44036C21.4663 4.42248 21.4841 4.40461 21.4844 4.38645C21.4879 4.17807 21.4956 3.95232 21.7711 3.95595C22.0612 3.95976 22.0629 4.19529 22.0658 4.41469C22.069 4.66706 22.0765 4.91947 22.0875 5.17163C22.096 5.36798 22.0592 5.55297 21.8378 5.57508C21.6007 5.59876 21.5179 5.42627 21.5071 5.21068C21.5056 5.18024 21.497 5.15017 21.4892 5.10561Z" fill="#1A262D"/>
</svg>
