<svg width="24" height="25" viewBox="0 0 24 25" fill="none" xmlns="http://www.w3.org/2000/svg">
<path d="M24 17.1945C24 21.5625 21.396 24.1665 17.028 24.1665H15.6C14.94 24.1665 14.4 23.6265 14.4 22.9665V16.0425C14.4 15.7185 14.664 15.4425 14.988 15.4425L17.1 15.4065C17.268 15.3945 17.412 15.2745 17.448 15.1065L17.868 12.8145C17.904 12.5985 17.736 12.3945 17.508 12.3945L14.952 12.4305C14.616 12.4305 14.352 12.1665 14.34 11.8425L14.292 8.9025C14.292 8.7105 14.448 8.54252 14.652 8.54252L17.532 8.4945C17.736 8.4945 17.892 8.33852 17.892 8.13452L17.844 5.25449C17.844 5.05049 17.688 4.8945 17.484 4.8945L14.244 4.94252C12.252 4.97852 10.668 6.6105 10.704 8.6025L10.764 11.9025C10.776 12.2385 10.512 12.5025 10.176 12.5145L8.736 12.5385C8.532 12.5385 8.37601 12.6945 8.37601 12.8985L8.41201 15.1785C8.41201 15.3825 8.568 15.5385 8.772 15.5385L10.212 15.5145C10.548 15.5145 10.812 15.7785 10.824 16.1025L10.932 22.9425C10.944 23.6145 10.404 24.1665 9.732 24.1665H6.972C2.604 24.1665 0 21.5625 0 17.1825V7.1385C0 2.7705 2.604 0.166504 6.972 0.166504H17.028C21.396 0.166504 24 2.7705 24 7.1385V17.1945Z" fill="white"/>
</svg>
