<svg width="33" height="33" viewBox="0 0 33 33" fill="none" xmlns="http://www.w3.org/2000/svg">
<rect x="1.25" y="1.4165" width="30.5" height="30.5" rx="15.25" stroke="white" stroke-width="1.5"/>
<path d="M31 13.0063C30.8888 13.2422 30.7038 13.3309 30.4402 13.3553C28.0641 13.5757 25.7314 13.9999 23.5417 14.983C22.8845 15.2782 22.2392 15.6353 21.661 16.0611C20.2331 17.1128 18.6756 17.2905 17.014 16.8506C16.1142 16.6124 15.233 16.305 14.3431 16.0296C14.2803 16.0101 14.2161 15.9942 14.1515 15.9819C13.9018 15.9342 13.7615 16.0318 13.7308 16.2746C13.6739 16.7249 13.3877 17.0144 12.9052 17.1108C12.3032 17.231 11.7124 17.1251 11.1468 16.9513C9.83382 16.5477 8.54127 16.0781 7.22618 15.6818C6.11985 15.3484 5.00047 15.0491 3.87196 14.8016C3.48717 14.7172 3.05416 14.815 2.64868 14.8696C2.35985 14.9086 2.12781 14.8251 2.03107 14.5661C1.94307 14.3305 2.04088 14.1478 2.33895 14.0302C3.10271 13.7288 3.88984 13.7773 4.64695 13.9976C6.21861 14.455 7.77178 14.9746 9.33739 15.453C10.2451 15.7304 11.1618 15.9786 12.0755 16.2364C12.156 16.2592 12.2435 16.2604 12.3281 16.2649C12.6347 16.281 12.818 16.139 12.8781 15.839C12.9792 15.3346 13.3328 15.0022 13.8509 15.0455C14.2949 15.0826 14.7342 15.2145 15.1668 15.3355C16.0719 15.5887 16.96 15.9122 17.8758 16.114C18.8781 16.3347 19.8591 16.1792 20.7097 15.5679C22.8366 14.0393 25.2573 13.2534 27.8016 12.7899C28.6623 12.6331 29.5396 12.5667 30.4085 12.4532C30.6696 12.4191 30.873 12.484 31 12.7252V13.0063Z" fill="white"/>
<path d="M19.1324 15.9264C18.5968 16.0223 18.0692 15.9687 17.5626 15.833C16.782 15.624 16.0139 15.368 15.2463 15.1144C15.1692 15.0889 15.0865 14.9439 15.0845 14.8527C15.0706 14.2069 15.0866 13.5604 15.0689 12.9148C15.0654 12.7888 14.9884 12.6267 14.8908 12.5472C13.3893 11.323 11.8788 10.11 10.371 8.89364C10.2759 8.81699 10.1772 8.74199 10.0957 8.65232C9.89139 8.42752 9.89031 8.11198 10.0824 7.88245C10.2652 7.6641 10.5711 7.60147 10.8246 7.7401C10.9145 7.78927 10.9944 7.85788 11.0748 7.92263C12.5834 9.138 14.0885 10.3576 15.6043 11.5641C15.7371 11.6698 15.9371 11.7375 16.1083 11.7425C16.787 11.7626 17.4668 11.7594 18.1458 11.7439C18.2915 11.7406 18.4629 11.6844 18.5756 11.5946C20.0608 10.4102 21.5375 9.21548 23.0164 8.02342C23.1043 7.9526 23.1901 7.8789 23.2813 7.81263C23.5823 7.59401 23.9239 7.62604 24.1386 7.88989C24.3496 8.14914 24.3151 8.50567 24.0334 8.73959C23.5271 9.16007 23.0109 9.56878 22.4983 9.98178C21.4512 10.8254 20.4059 11.6713 19.3541 12.5092C19.1992 12.6326 19.1415 12.7629 19.1438 12.9601C19.1544 13.8776 19.1487 14.7953 19.1478 15.713C19.1477 15.7774 19.1388 15.8418 19.1324 15.9264Z" fill="white"/>
<path d="M15.0981 16.5073C16.4082 16.9523 17.7056 17.3842 19.146 17.2775C19.146 17.7984 19.15 18.3 19.1396 18.8014C19.1386 18.85 19.0564 18.9237 18.9986 18.9404C18.4472 19.0994 17.8877 19.127 17.2942 19.0234V18.0288H16.9429V20.0812H15.0981V16.5073Z" fill="white"/>
<path d="M15.0831 20.2671C15.4135 20.2967 15.7127 20.3337 16.0131 20.3475C16.3034 20.3609 16.5948 20.3504 16.9171 20.3504C16.9235 20.4166 16.9376 20.495 16.9377 20.5735C16.939 21.9296 16.9415 23.2858 16.9374 24.6418C16.9354 25.3014 16.512 25.7133 15.9041 25.6623C15.4839 25.627 15.0938 25.2826 15.0894 24.865C15.0735 23.3421 15.0831 21.8189 15.0831 20.2671Z" fill="white"/>
<path d="M17.103 11.3192C16.1695 11.3165 15.418 10.5641 15.4199 9.63417C15.4217 8.70727 16.1838 7.95219 17.1132 7.95634C18.0412 7.96049 18.808 8.72653 18.8031 9.64436C18.7981 10.5683 18.0332 11.3218 17.103 11.3192Z" fill="white"/>
<path d="M17.2868 19.328C17.9322 19.2868 18.5283 19.2488 19.1485 19.2092C19.1485 19.6099 19.1485 20.0476 19.1484 20.4854C19.1483 20.9344 19.1579 21.3837 19.1452 21.8323C19.1296 22.3859 18.7176 22.7904 18.1998 22.7824C17.6744 22.7742 17.2906 22.3687 17.2879 21.8064C17.2838 20.9664 17.2868 20.1263 17.2868 19.328Z" fill="white"/>
</svg>
