<svg width="32" height="32" viewBox="0 0 32 32" fill="none" xmlns="http://www.w3.org/2000/svg">
<rect x="0.75" y="0.75" width="30.5" height="30.5" rx="15.25" stroke="white" stroke-width="1.5"/>
<path d="M6.97901 19.3992C6.87544 19.3157 6.72656 19.2516 6.66131 19.1336C6.28586 18.4542 5.9337 17.7599 5.5666 17.075C5.33597 16.6447 5.08628 16.2264 4.85732 15.7951C4.58141 15.2754 4.31358 14.7505 4.0526 14.2219C3.96757 14.0497 3.97888 13.8668 4.13643 13.7368C4.29527 13.6058 4.45687 13.476 4.6287 13.3667C5.31089 12.9328 5.9995 12.5106 6.68209 12.0774C7.57523 11.5106 8.46291 10.9337 9.35706 10.3688C9.73866 10.1277 10.1324 9.90912 10.5173 9.67407C10.752 9.53077 11.0084 9.40821 11.202 9.21431C11.3331 9.0829 11.3934 8.85027 11.4454 8.65072C11.4882 8.48624 11.4722 8.29746 11.6759 8.25907C11.8655 8.22334 11.9981 8.29118 12.1032 8.49058C12.5033 9.25026 12.9282 9.99468 13.3319 10.7523C13.84 11.7059 14.3299 12.6709 14.8402 13.6232C15.1623 14.2241 15.497 14.8179 15.8468 15.4003C15.9944 15.6459 16.0684 15.6343 16.2007 15.3932C16.6755 14.528 17.1411 13.6568 17.6138 12.7902C17.8428 12.3704 18.087 11.9603 18.3111 11.5376C18.6093 10.9753 18.8913 10.403 19.1865 9.83886C19.4348 9.36428 19.6933 8.89599 19.9445 8.42313C20.0404 8.24251 20.2022 8.19232 20.3469 8.27199C20.4465 8.3268 20.5594 8.49556 20.5537 8.6066C20.5305 9.056 20.8189 9.22737 21.1012 9.41808C21.483 9.67594 21.8606 9.94106 22.2462 10.192C22.4379 10.3167 22.6471 10.4097 22.842 10.5291C23.6143 11.0023 24.3839 11.4805 25.1548 11.9563C25.8874 12.4084 26.6253 12.8509 27.3501 13.3171C27.5695 13.4583 27.7735 13.6449 27.9432 13.8505C28.0107 13.9323 28.0183 14.1535 27.9646 14.258C27.5084 15.1455 27.0331 16.0215 26.5609 16.8993C26.1715 17.6234 25.7834 18.3484 25.3848 19.0666C25.1841 19.4284 24.9435 19.4578 24.6109 19.2432C24.0143 18.8582 23.4029 18.5001 22.8017 18.1233C22.4702 17.9155 22.1484 17.6899 21.8195 17.4772C21.425 17.2221 21.0279 16.972 20.6316 16.7203C20.2194 16.4587 19.8089 16.1939 19.3939 15.9376C18.8724 15.6156 18.3513 15.2919 17.8215 14.9863C17.5209 14.8129 17.3369 14.8995 17.1677 15.2294C17.0112 15.5347 16.8634 15.8488 16.6766 16.1318C16.3879 16.5691 16.5971 16.9363 16.786 17.3016C17.1207 17.949 17.4713 18.5869 17.8198 19.2259C18.1335 19.8011 18.4565 20.3703 18.7688 20.9464C18.8778 21.1476 18.9592 21.3663 19.0665 21.5687C19.3301 22.0661 19.6142 22.5515 19.8619 23.0579C19.9337 23.2046 19.9613 23.391 19.9601 23.5671C19.9598 23.6252 19.8014 23.761 19.7397 23.7565C19.5941 23.7338 19.4665 23.6994 19.3629 23.603C19.2157 23.4661 19.1027 23.275 19.0053 23.0886C18.5045 22.1306 18.021 21.1621 17.5167 20.2064C17.0905 19.3986 16.641 18.6051 16.2085 17.8011C16.0913 17.5833 15.9617 17.5554 15.8375 17.7635C15.5736 18.2054 15.3209 18.6557 15.0777 19.1114C14.8471 19.5437 14.639 19.9899 14.413 20.4251C14.1749 20.8837 13.9319 21.3395 13.683 21.7913C13.3588 22.3797 13.0273 22.9634 12.6976 23.5483C12.5858 23.7466 12.4183 23.8296 12.2314 23.7079C12.0585 23.5952 12.0387 23.383 12.1226 23.2025C12.3183 22.7816 12.5332 22.3708 12.7476 21.9603C13.0686 21.3457 13.3942 20.734 13.7207 20.1228C14.0517 19.5033 14.3868 18.8864 14.719 18.2677C14.9328 17.8696 15.1498 17.4733 15.3559 17.0704C15.5438 16.7029 15.4854 16.3384 15.3001 15.9928C15.1477 15.7088 14.9774 15.4361 14.8189 15.1558C14.6624 14.879 14.392 14.8331 14.0893 15.0222C13.3216 15.5016 12.5476 15.9691 11.7826 16.4532C11.1152 16.8755 10.4589 17.3184 9.79321 17.7438C9.26106 18.084 8.72286 18.4131 8.18584 18.7442C7.922 18.9069 7.65692 19.0676 7.388 19.2201C7.274 19.2847 7.14866 19.326 6.97901 19.3992ZM22.7816 15.4378C22.6401 15.6949 22.4903 15.9588 22.3481 16.2275C22.117 16.6645 22.1941 16.8339 22.6546 17.0905C22.8841 17.2184 23.1062 17.3623 23.3195 17.5197C23.5502 17.6898 23.7231 17.6634 23.8615 17.4224C24.0192 17.1478 24.1785 16.8742 24.335 16.5987C24.3921 16.4982 24.5093 16.4741 24.5979 16.543C24.7953 16.6966 24.9996 16.8409 25.2077 16.9772C25.4789 17.155 25.6644 17.0667 25.8105 16.7434C25.9124 16.5177 26.0297 16.3011 26.1732 16.1035C26.3593 15.8473 26.3952 15.3958 26.227 15.2799C26.0442 15.1541 25.8549 15.0373 25.6603 14.9344C25.4915 14.8451 25.3988 14.635 25.452 14.4401C25.4881 14.3075 25.5672 14.1843 25.6483 14.0739C25.9394 13.6773 25.8832 13.3412 25.479 13.0882C25.2746 12.9603 25.0763 12.8222 24.8836 12.6746C24.6412 12.489 24.3941 12.5147 24.2146 12.7717C24.0631 12.9886 23.9364 13.2256 23.7961 13.4518C23.6325 13.7156 23.6411 13.7646 23.9106 13.9243C24.2311 14.1141 24.5558 14.2955 24.8761 14.4856C25.1502 14.6483 25.1882 14.7877 25.0608 15.0215C24.8809 15.3515 24.7283 15.6996 24.5361 16.0204C24.4793 16.1152 24.2939 16.2241 24.2261 16.19C23.7732 15.9622 23.3361 15.6974 22.8816 15.4377C23.0024 15.204 23.1038 15.0172 23.1969 14.8257C23.338 14.5351 23.4891 14.2484 23.6053 13.9462C23.6921 13.7206 23.591 13.5481 23.3028 13.442C23.0713 13.3567 22.8528 13.232 22.6743 13.0512C22.4001 12.7736 22.0763 12.779 21.9248 13.0684C21.6929 13.5114 21.4706 13.9602 21.2229 14.4489C20.8308 13.9275 20.1738 13.8872 19.8312 13.3734C20.0935 12.8985 20.3383 12.4555 20.5829 12.0124C20.6711 11.8527 20.5986 11.7512 20.4578 11.6701C20.242 11.5458 20.0248 11.4219 19.829 11.2637C19.5792 11.0618 19.363 11.0763 19.2106 11.3522C19.032 11.6756 18.8576 12.002 18.692 12.3334C18.5668 12.584 18.6175 12.7877 18.831 12.9424C19.004 13.0677 19.18 13.1886 19.3586 13.3045C19.6101 13.4677 19.634 13.5876 19.4861 13.8591C19.3627 14.0856 19.2412 14.3163 19.1487 14.5585C19.0592 14.7929 19.1683 14.9629 19.4527 15.0696C19.6474 15.1427 19.8306 15.2491 19.9811 15.4014C20.2676 15.6914 20.6231 15.717 20.7975 15.4375C20.9235 15.2357 21.0423 15.024 21.1314 14.8013C21.1936 14.6456 21.2715 14.5956 21.4105 14.6383C21.5277 14.6743 21.6532 14.6992 21.7566 14.7637C22.0935 14.9737 22.422 15.1995 22.7816 15.4378ZM10.7919 14.3531C10.7027 14.213 10.5867 14.0513 10.4916 13.8763C10.3465 13.6091 10.2173 13.3319 10.0785 13.0606C9.97197 12.8526 9.80977 12.7922 9.61295 12.8924C9.38415 13.0088 9.15389 13.1265 8.93916 13.2698C8.33622 13.672 8.32725 13.6741 7.98309 13.0124C7.69982 12.4677 7.53951 12.4285 7.04925 12.7729C6.85315 12.9107 6.65069 13.0394 6.44044 13.1502C6.11918 13.3194 6.07003 13.4658 6.24946 13.8057C6.36173 14.0183 6.48342 14.2266 6.57853 14.448C6.64779 14.6093 6.66019 14.7809 6.47071 14.8831C6.24695 15.0039 6.02968 15.14 5.80125 15.249C5.60089 15.3447 5.56283 15.4849 5.6643 15.676C5.87188 16.0667 6.07566 16.4607 6.30213 16.8385C6.46673 17.1131 6.64019 17.1184 6.89518 16.926C7.13416 16.7458 7.38382 16.5821 7.59629 16.4338C7.80843 16.7736 8.02193 17.1027 8.22196 17.4412C8.32862 17.6217 8.45581 17.6552 8.61983 17.5565C8.93861 17.3645 9.268 17.1883 9.56612 16.9638C9.67171 16.8843 9.75586 16.6795 9.74798 16.5385C9.73756 16.3519 9.63638 16.167 9.55723 15.9903C9.47094 15.7977 9.36524 15.6152 9.26797 15.4282C9.63871 15.1868 9.97741 14.945 10.3341 14.7398C10.7124 14.5221 10.8091 14.5773 10.9942 14.9886C11.0814 15.1823 11.1873 15.369 11.3062 15.5417C11.3475 15.6017 11.4623 15.6508 11.5277 15.6337C11.6936 15.5905 11.8568 15.5202 12.0096 15.4363C12.2197 15.321 12.4119 15.1661 12.6251 15.0588C12.838 14.9517 12.9373 14.683 12.8324 14.4559C12.733 14.2408 12.6077 14.0386 12.4834 13.8384C12.3954 13.6965 12.3462 13.5561 12.4908 13.4401C12.6991 13.2731 12.9093 13.099 13.1413 12.9791C13.4468 12.8211 13.5035 12.7179 13.3451 12.4024C13.1791 12.0716 13.0186 11.7367 12.8344 11.418C12.7261 11.2307 12.5915 11.0155 12.297 11.2201C12.2094 11.2809 12.1139 11.3272 12.0156 11.3642C11.5355 11.545 11.3605 11.8784 11.5598 12.2253C11.7188 12.5021 11.8815 12.7764 12.0348 13.0567C12.184 13.3296 12.1581 13.5551 11.9633 13.6715C11.587 13.8964 11.2063 14.1127 10.7919 14.3531ZM11.4048 11.7273C11.197 11.3817 10.9972 11.0361 10.7839 10.7004C10.6648 10.513 10.5055 10.5519 10.3091 10.7111C10.1029 10.8782 9.86878 10.9964 9.628 11.0955C9.33546 11.216 9.19233 11.5356 9.31857 11.8374C9.3965 12.0237 9.50598 12.1949 9.57971 12.3828C9.69024 12.6645 9.9166 12.7754 10.1727 12.6297C10.5266 12.4283 10.8749 12.2148 11.2193 11.9949C11.2827 11.9545 11.316 11.859 11.4048 11.7273ZM21.3232 10.5271C21.2466 10.6119 21.1565 10.6873 21.0964 10.7845C21.0251 10.8998 20.9738 11.0313 20.9243 11.1604C20.8488 11.3569 20.7662 11.5533 20.7211 11.7585C20.7059 11.8278 20.7758 11.9569 20.8405 12.0023C21.1233 12.2007 21.4198 12.3761 21.7088 12.5643C21.9855 12.7445 22.2663 12.7244 22.3825 12.4981C22.5044 12.2605 22.6104 12.0135 22.7271 11.7727C22.803 11.616 22.7894 11.4771 22.6567 11.3715C22.4399 11.1991 22.2249 11.0212 21.9943 10.8726C21.7971 10.7456 21.5791 10.6567 21.3232 10.5271Z" fill="white"/>
<path d="M22.7816 15.4378C22.422 15.1995 22.0935 14.9737 21.7566 14.7637C21.6532 14.6992 21.5277 14.6743 21.4105 14.6383C21.2715 14.5956 21.1936 14.6456 21.1314 14.8013C21.0423 15.024 20.9235 15.2357 20.7975 15.4375C20.6507 15.6728 20.3756 15.6919 20.1213 15.519C19.8636 15.3439 19.6066 15.1647 19.3355 15.0167C19.1398 14.9099 19.0728 14.7573 19.1487 14.5585C19.2412 14.3163 19.3627 14.0856 19.4861 13.8591C19.634 13.5876 19.6101 13.4677 19.3586 13.3045C19.18 13.1886 19.004 13.0677 18.831 12.9424C18.6175 12.7877 18.5668 12.584 18.692 12.3334C18.8576 12.002 19.032 11.6756 19.2106 11.3522C19.3555 11.0899 19.5581 11.0639 19.7923 11.2354C20.0151 11.3985 20.2526 11.5382 20.4846 11.6863C20.6074 11.7647 20.6653 11.8631 20.5829 12.0124C20.3383 12.4555 20.0935 12.8985 19.8312 13.3734C20.1738 13.8872 20.8308 13.9275 21.2229 14.4489C21.4706 13.9602 21.6929 13.5114 21.9248 13.0684C22.0518 12.8258 22.2999 12.7828 22.5383 12.9388C22.828 13.1283 23.1124 13.3304 23.4153 13.4917C23.6161 13.5987 23.6797 13.7529 23.6053 13.9462C23.4891 14.2484 23.338 14.5351 23.1969 14.8257C23.1038 15.0172 23.0024 15.204 22.8816 15.4377C23.3361 15.6974 23.7732 15.9622 24.2261 16.19C24.2939 16.2241 24.4793 16.1152 24.5361 16.0204C24.7283 15.6996 24.8809 15.3515 25.0608 15.0215C25.1882 14.7877 25.1502 14.6483 24.8761 14.4856C24.5558 14.2955 24.2311 14.1141 23.9106 13.9243C23.6411 13.7646 23.6325 13.7156 23.7961 13.4518C23.9364 13.2256 24.0631 12.9886 24.2146 12.7717C24.3868 12.5252 24.6212 12.4915 24.854 12.653C25.0733 12.8052 25.2904 12.9612 25.5119 13.1095C25.8861 13.36 25.9313 13.6884 25.6483 14.0739C25.574 14.1751 25.5014 14.287 25.4619 14.407C25.3697 14.6876 25.4357 14.8141 25.6822 14.946C25.869 15.046 26.0511 15.1588 26.227 15.2799C26.3851 15.3888 26.3629 15.7944 26.205 16.0555C26.0583 16.2981 25.914 16.5434 25.7847 16.7971C25.6426 17.076 25.4632 17.1447 25.2077 16.9772C24.9996 16.8409 24.7953 16.6966 24.5979 16.543C24.4873 16.457 24.4128 16.4615 24.3413 16.5876C24.1828 16.8668 24.0214 17.1441 23.8615 17.4224C23.7305 17.6506 23.5684 17.6864 23.3557 17.5451C23.0967 17.373 22.8369 17.2017 22.5711 17.0424C22.1855 16.8112 22.1317 16.6366 22.3481 16.2275C22.4903 15.9588 22.6401 15.6949 22.7816 15.4378Z" fill="white"/>
<path d="M10.7919 14.3531C11.2063 14.1127 11.587 13.8964 11.9633 13.6715C12.1581 13.5551 12.184 13.3296 12.0348 13.0567C11.8815 12.7764 11.7188 12.5021 11.5598 12.2253C11.3736 11.9011 11.5142 11.5887 11.9252 11.4016C12.0765 11.3328 12.2224 11.25 12.3714 11.1753C12.6151 11.0533 12.7357 11.2472 12.8344 11.418C13.0186 11.7367 13.1791 12.0716 13.3451 12.4024C13.5035 12.7179 13.4468 12.8211 13.1413 12.9791C12.9093 13.099 12.6991 13.2731 12.4908 13.4401C12.3462 13.5561 12.3954 13.6965 12.4834 13.8384C12.6097 14.0418 12.7371 14.2474 12.8372 14.4664C12.983 14.7854 12.919 14.91 12.6214 15.0607C12.4097 15.1679 12.2185 15.3217 12.0096 15.4363C11.8568 15.5202 11.6936 15.5905 11.5277 15.6337C11.4623 15.6508 11.3475 15.6017 11.3062 15.5417C11.1873 15.369 11.0814 15.1823 10.9942 14.9886C10.8091 14.5773 10.7124 14.5221 10.3341 14.7398C9.97741 14.945 9.63871 15.1868 9.26797 15.4282C9.36524 15.6152 9.47094 15.7977 9.55723 15.9903C9.63638 16.167 9.73756 16.3519 9.74798 16.5385C9.75586 16.6795 9.67171 16.8843 9.56612 16.9638C9.268 17.1883 8.93861 17.3645 8.61983 17.5565C8.45581 17.6552 8.32862 17.6217 8.22196 17.4412C8.02193 17.1027 7.80843 16.7736 7.59629 16.4338C7.38382 16.5821 7.13416 16.7458 6.89518 16.926C6.64019 17.1184 6.46673 17.1131 6.30213 16.8385C6.07566 16.4607 5.87188 16.0667 5.6643 15.676C5.56283 15.4849 5.60089 15.3447 5.80125 15.249C6.02968 15.14 6.24695 15.0039 6.47071 14.8831C6.66019 14.7809 6.64779 14.6093 6.57853 14.448C6.48342 14.2266 6.36173 14.0183 6.24946 13.8057C6.07275 13.4709 6.11774 13.3238 6.42599 13.1579C6.63547 13.0451 6.84099 12.9202 7.03675 12.7817C7.5368 12.4279 7.69742 12.4631 7.98309 13.0124C8.32725 13.6741 8.33622 13.672 8.93916 13.2698C9.15389 13.1265 9.38415 13.0088 9.61295 12.8924C9.80977 12.7922 9.97197 12.8526 10.0785 13.0606C10.2173 13.3319 10.3465 13.6091 10.4916 13.8763C10.5867 14.0513 10.7027 14.213 10.7919 14.3531ZM9.14341 15.4059C8.89274 14.9203 8.64255 14.4275 8.38427 13.9397C8.29777 13.7763 8.18796 13.7651 8.03855 13.885C7.79729 14.0785 7.54885 14.268 7.28391 14.4191C6.86308 14.6592 6.81498 14.8181 7.07799 15.2591C7.22862 15.5117 7.38896 15.7604 7.51168 16.0287C7.60696 16.2369 7.73743 16.2633 7.89294 16.1724C8.31141 15.9278 8.72135 15.6661 9.14341 15.4059Z" fill="white"/>
<path d="M11.4048 11.7273C11.316 11.859 11.2827 11.9545 11.2193 11.9949C10.8749 12.2148 10.5266 12.4283 10.1727 12.6297C9.9166 12.7754 9.69024 12.6645 9.57971 12.3828C9.50598 12.1949 9.3965 12.0237 9.31857 11.8374C9.20069 11.5556 9.31769 11.2582 9.57188 11.122C9.85125 10.9724 10.13 10.8192 10.3974 10.6464C10.5537 10.5453 10.6832 10.5419 10.7839 10.7004C10.9972 11.0361 11.197 11.3817 11.4048 11.7273Z" fill="white"/>
<path d="M21.3232 10.5271C21.5791 10.6567 21.7971 10.7456 21.9943 10.8726C22.2249 11.0212 22.4399 11.1991 22.6567 11.3715C22.7894 11.4771 22.803 11.616 22.7271 11.7727C22.6104 12.0135 22.5044 12.2605 22.3825 12.4981C22.2663 12.7244 21.9855 12.7445 21.7088 12.5643C21.4198 12.3761 21.1233 12.2007 20.8405 12.0023C20.7758 11.9569 20.7059 11.8278 20.7211 11.7585C20.7662 11.5533 20.8488 11.3569 20.9243 11.1604C20.9738 11.0313 21.0251 10.8998 21.0964 10.7845C21.1565 10.6873 21.2466 10.6119 21.3232 10.5271Z" fill="white"/>
<path d="M9.14341 15.4059C8.72135 15.6661 8.31141 15.9278 7.89294 16.1724C7.73743 16.2633 7.60696 16.2369 7.51168 16.0287C7.38896 15.7604 7.22862 15.5117 7.07799 15.2591C6.81498 14.8181 6.86308 14.6592 7.28391 14.4191C7.54885 14.268 7.79729 14.0785 8.03855 13.885C8.18796 13.7651 8.29777 13.7763 8.38427 13.9397C8.64255 14.4275 8.89274 14.9203 9.14341 15.4059Z" fill="white"/>
</svg>
