<svg width="33" height="33" viewBox="0 0 33 33" fill="none" xmlns="http://www.w3.org/2000/svg">
<g clip-path="url(#clip0_2040_1072)">
<path d="M31.75 16.6665C31.75 8.24416 24.9223 1.4165 16.5 1.4165C8.07766 1.4165 1.25 8.24416 1.25 16.6665C1.25 25.0888 8.07766 31.9165 16.5 31.9165C24.9223 31.9165 31.75 25.0888 31.75 16.6665Z" stroke="white" stroke-width="1.5"/>
<path d="M14.1937 22.3133C14.5638 22.6797 14.9241 23.0336 15.2811 23.3912C15.3855 23.4959 15.4929 23.6014 15.5775 23.7234C15.7724 24.0044 15.7512 24.3879 15.5417 24.6417C15.3235 24.9059 14.917 25.0098 14.6655 24.7778C13.9774 24.1433 13.3044 23.4873 12.6617 22.8011C12.4019 22.5237 12.47 22.177 12.7599 21.796C13.4175 20.9322 14.0754 20.0685 14.746 19.2163C14.9402 18.9696 15.046 18.724 15.0302 18.3912C15.0047 17.8554 14.9991 17.3155 15.0317 16.7805C15.054 16.4122 14.9306 16.1595 14.6976 15.9074C14.0664 15.2241 13.4598 14.515 12.8335 13.8264C12.5688 13.5354 12.4575 13.2297 12.5674 12.8209C12.7091 12.2936 12.8033 11.7519 12.9357 11.2215C13.0569 10.7356 13.3748 10.5102 13.7795 10.5922C14.1599 10.6692 14.3849 11.0495 14.305 11.5348C14.243 11.9114 14.125 12.278 14.0705 12.6554C14.0489 12.805 14.1313 12.9718 14.1676 13.1305C14.1701 13.1413 14.1846 13.1484 14.1912 13.1589C14.7612 14.0625 15.5257 14.4604 16.5626 14.2828C17.0297 14.2028 17.5928 14.4015 17.9701 14.188C18.3344 13.9819 18.5 13.3954 18.782 12.9996C19.0201 12.6654 19.0972 12.3139 19.0914 11.8979C19.0721 10.5168 19.0837 9.13522 19.0847 7.75384C19.0848 7.62627 19.0836 7.49724 19.0999 7.37138C19.1587 6.9169 19.4244 6.65759 19.8112 6.66674C20.1898 6.67569 20.4884 6.96646 20.4915 7.40855C20.504 9.1863 20.5029 10.9643 20.4869 12.742C20.4852 12.9292 20.377 13.132 20.2763 13.2988C19.7703 14.1371 19.2611 14.9737 18.7297 15.7937C18.5417 16.0836 18.4751 16.3731 18.4764 16.719C18.4879 19.6864 18.4867 22.6538 18.4885 25.6211C18.4886 25.7617 18.4951 25.9043 18.476 26.0424C18.4268 26.3979 18.1367 26.6595 17.8013 26.6664C17.4572 26.6733 17.165 26.4367 17.1115 26.0699C17.0768 25.8318 17.0813 25.5859 17.0808 25.3435C17.0783 23.9365 17.0732 22.5295 17.0849 21.1227C17.0872 20.8404 17.0025 20.7858 16.7431 20.7429C15.7637 20.5808 15.025 20.8941 14.5414 21.8406C14.4573 22.0052 14.3227 22.1406 14.1937 22.3133Z" fill="white"/>
<path d="M16.5218 9.85596C17.4225 9.86728 18.1371 10.6455 18.1249 11.6016C18.1128 12.5552 17.3666 13.3372 16.4857 13.3197C15.5961 13.302 14.8602 12.4994 14.8752 11.5632C14.8904 10.6094 15.6279 9.84473 16.5218 9.85596Z" fill="white"/>
</g>
<defs>
<clipPath id="clip0_2040_1072">
<rect width="33" height="33" fill="white"/>
</clipPath>
</defs>
</svg>
