<svg width="33" height="33" viewBox="0 0 33 33" fill="none" xmlns="http://www.w3.org/2000/svg">
<rect x="1.25" y="1.4165" width="30.5" height="30.5" rx="15.25" stroke="white" stroke-width="1.5"/>
<path d="M7.47901 20.0657C7.37544 19.9822 7.22656 19.9181 7.16131 19.8001C6.78586 19.1207 6.4337 18.4264 6.0666 17.7415C5.83597 17.3112 5.58628 16.8929 5.35732 16.4616C5.08141 15.9419 4.81358 15.417 4.5526 14.8884C4.46757 14.7162 4.47888 14.5333 4.63643 14.4033C4.79527 14.2723 4.95687 14.1425 5.1287 14.0332C5.81089 13.5993 6.4995 13.1771 7.18209 12.7439C8.07523 12.1771 8.96291 11.6002 9.85706 11.0353C10.2387 10.7942 10.6324 10.5756 11.0173 10.3406C11.252 10.1973 11.5084 10.0747 11.702 9.88081C11.8331 9.74941 11.8934 9.51677 11.9454 9.31722C11.9882 9.15274 11.9722 8.96397 12.1759 8.92557C12.3655 8.88984 12.4981 8.95769 12.6032 9.15708C13.0033 9.91676 13.4282 10.6612 13.8319 11.4188C14.34 12.3724 14.8299 13.3374 15.3402 14.2897C15.6623 14.8906 15.997 15.4844 16.3468 16.0668C16.4944 16.3124 16.5684 16.3008 16.7007 16.0597C17.1755 15.1945 17.6411 14.3233 18.1138 13.4567C18.3428 13.0369 18.587 12.6268 18.8111 12.2041C19.1093 11.6418 19.3913 11.0695 19.6865 10.5054C19.9348 10.0308 20.1933 9.56249 20.4445 9.08964C20.5404 8.90902 20.7022 8.85883 20.8469 8.9385C20.9465 8.99331 21.0594 9.16206 21.0537 9.2731C21.0305 9.72251 21.3189 9.89387 21.6012 10.0846C21.983 10.3424 22.3606 10.6076 22.7462 10.8585C22.9379 10.9832 23.1471 11.0762 23.342 11.1957C24.1143 11.6688 24.8839 12.147 25.6548 12.6228C26.3874 13.0749 27.1253 13.5174 27.8501 13.9836C28.0695 14.1248 28.2735 14.3114 28.4432 14.517C28.5107 14.5988 28.5183 14.82 28.4646 14.9245C28.0084 15.812 27.5331 16.688 27.0609 17.5658C26.6715 18.2899 26.2834 19.0149 25.8848 19.7331C25.6841 20.0949 25.4435 20.1244 25.1109 19.9097C24.5143 19.5247 23.9029 19.1666 23.3017 18.7898C22.9702 18.582 22.6484 18.3564 22.3195 18.1437C21.925 17.8887 21.5279 17.6385 21.1316 17.3869C20.7194 17.1252 20.3089 16.8604 19.8939 16.6042C19.3724 16.2821 18.8513 15.9584 18.3215 15.6528C18.0209 15.4794 17.8369 15.566 17.6677 15.8959C17.5112 16.2012 17.3634 16.5153 17.1766 16.7983C16.8879 17.2356 17.0971 17.6028 17.286 17.9681C17.6207 18.6155 17.9713 19.2534 18.3198 19.8924C18.6335 20.4676 18.9565 21.0368 19.2688 21.6129C19.3778 21.8141 19.4592 22.0328 19.5665 22.2352C19.8301 22.7327 20.1142 23.218 20.3619 23.7244C20.4337 23.8711 20.4613 24.0575 20.4601 24.2337C20.4598 24.2917 20.3014 24.4275 20.2397 24.423C20.0941 24.4003 19.9665 24.3659 19.8629 24.2695C19.7157 24.1326 19.6027 23.9415 19.5053 23.7551C19.0045 22.7971 18.521 21.8286 18.0167 20.8729C17.5905 20.0651 17.141 19.2716 16.7085 18.4676C16.5913 18.2498 16.4617 18.2219 16.3375 18.43C16.0736 18.8719 15.8209 19.3222 15.5777 19.7779C15.3471 20.2102 15.139 20.6564 14.913 21.0916C14.6749 21.5502 14.4319 22.006 14.183 22.4578C13.8588 23.0462 13.5273 23.6299 13.1976 24.2148C13.0858 24.4131 12.9183 24.4961 12.7314 24.3744C12.5585 24.2617 12.5387 24.0495 12.6226 23.869C12.8183 23.4481 13.0332 23.0373 13.2476 22.6268C13.5686 22.0123 13.8942 21.4005 14.2207 20.7893C14.5517 20.1698 14.8868 19.5529 15.219 18.9342C15.4328 18.5361 15.6498 18.1398 15.8559 17.7369C16.0438 17.3694 15.9854 17.0049 15.8001 16.6593C15.6477 16.3753 15.4774 16.1026 15.3189 15.8223C15.1624 15.5455 14.892 15.4996 14.5893 15.6887C13.8216 16.1681 13.0476 16.6356 12.2826 17.1198C11.6152 17.5421 10.9589 17.9849 10.2932 18.4103C9.76106 18.7505 9.22286 19.0796 8.68584 19.4107C8.422 19.5734 8.15692 19.7341 7.888 19.8866C7.774 19.9512 7.64866 19.9925 7.47901 20.0657ZM23.2816 16.1043C23.1401 16.3614 22.9903 16.6253 22.8481 16.894C22.617 17.331 22.6941 17.5004 23.1546 17.757C23.3841 17.8849 23.6062 18.0288 23.8195 18.1862C24.0502 18.3563 24.2231 18.3299 24.3615 18.0889C24.5192 17.8143 24.6785 17.5407 24.835 17.2652C24.8921 17.1647 25.0093 17.1406 25.0979 17.2095C25.2953 17.3631 25.4996 17.5074 25.7077 17.6437C25.9789 17.8215 26.1644 17.7332 26.3105 17.4099C26.4124 17.1842 26.5297 16.9676 26.6732 16.7701C26.8593 16.5138 26.8952 16.0623 26.727 15.9464C26.5442 15.8206 26.3549 15.7038 26.1603 15.6009C25.9915 15.5116 25.8988 15.3015 25.952 15.1066C25.9881 14.974 26.0672 14.8508 26.1483 14.7404C26.4394 14.3438 26.3832 14.0077 25.979 13.7547C25.7746 13.6268 25.5763 13.4887 25.3836 13.3411C25.1412 13.1555 24.8941 13.1812 24.7146 13.4382C24.5631 13.6551 24.4364 13.8921 24.2961 14.1183C24.1325 14.3821 24.1411 14.4311 24.4106 14.5908C24.7311 14.7806 25.0558 14.962 25.3761 15.1521C25.6502 15.3148 25.6882 15.4542 25.5608 15.688C25.3809 16.018 25.2283 16.3661 25.0361 16.6869C24.9793 16.7817 24.7939 16.8906 24.7261 16.8565C24.2732 16.6287 23.8361 16.3639 23.3816 16.1042C23.5024 15.8705 23.6038 15.6837 23.6969 15.4922C23.838 15.2016 23.9891 14.9149 24.1053 14.6127C24.1921 14.3871 24.091 14.2146 23.8028 14.1085C23.5713 14.0232 23.3528 13.8985 23.1743 13.7177C22.9001 13.4401 22.5763 13.4455 22.4248 13.7349C22.1929 14.1779 21.9706 14.6267 21.7229 15.1154C21.3308 14.594 20.6738 14.5537 20.3312 14.0399C20.5935 13.565 20.8383 13.122 21.0829 12.6789C21.1711 12.5192 21.0986 12.4177 20.9578 12.3366C20.742 12.2123 20.5248 12.0885 20.329 11.9302C20.0792 11.7283 19.863 11.7428 19.7106 12.0187C19.532 12.3421 19.3576 12.6685 19.192 12.9999C19.0668 13.2505 19.1175 13.4542 19.331 13.6089C19.504 13.7342 19.68 13.8551 19.8586 13.971C20.1101 14.1342 20.134 14.2541 19.9861 14.5256C19.8627 14.7521 19.7412 14.9828 19.6487 15.225C19.5592 15.4594 19.6683 15.6294 19.9527 15.7361C20.1474 15.8092 20.3306 15.9156 20.4811 16.0679C20.7676 16.3579 21.1231 16.3835 21.2975 16.104C21.4235 15.9022 21.5423 15.6905 21.6314 15.4678C21.6936 15.3121 21.7715 15.2621 21.9105 15.3048C22.0277 15.3408 22.1532 15.3657 22.2566 15.4302C22.5935 15.6402 22.922 15.866 23.2816 16.1043ZM11.2919 15.0196C11.2027 14.8795 11.0867 14.7178 10.9916 14.5428C10.8465 14.2756 10.7173 13.9984 10.5785 13.7272C10.472 13.5191 10.3098 13.4587 10.1129 13.5589C9.88415 13.6753 9.65389 13.793 9.43916 13.9363C8.83622 14.3385 8.82725 14.3406 8.48309 13.6789C8.19982 13.1342 8.03951 13.095 7.54925 13.4394C7.35315 13.5772 7.15069 13.7059 6.94044 13.8167C6.61918 13.9859 6.57003 14.1323 6.74946 14.4722C6.86173 14.6848 6.98342 14.8931 7.07853 15.1145C7.14779 15.2758 7.16019 15.4474 6.97071 15.5496C6.74695 15.6704 6.52968 15.8065 6.30125 15.9155C6.10089 16.0112 6.06283 16.1515 6.1643 16.3425C6.37188 16.7332 6.57566 17.1272 6.80213 17.505C6.96673 17.7796 7.14019 17.7849 7.39518 17.5925C7.63416 17.4123 7.88382 17.2486 8.09629 17.1003C8.30843 17.4401 8.52193 17.7692 8.72196 18.1077C8.82862 18.2882 8.95581 18.3217 9.11983 18.223C9.43861 18.031 9.768 17.8548 10.0661 17.6303C10.1717 17.5508 10.2559 17.346 10.248 17.205C10.2376 17.0184 10.1364 16.8335 10.0572 16.6568C9.97094 16.4642 9.86524 16.2817 9.76797 16.0947C10.1387 15.8533 10.4774 15.6115 10.8341 15.4063C11.2124 15.1886 11.3091 15.2438 11.4942 15.6551C11.5814 15.8488 11.6873 16.0355 11.8062 16.2082C11.8475 16.2682 11.9623 16.3173 12.0277 16.3002C12.1936 16.257 12.3568 16.1867 12.5096 16.1028C12.7197 15.9875 12.9119 15.8326 13.1251 15.7253C13.338 15.6182 13.4373 15.3495 13.3324 15.1224C13.233 14.9073 13.1077 14.7051 12.9834 14.5049C12.8954 14.3631 12.8462 14.2227 12.9908 14.1066C13.1991 13.9396 13.4093 13.7655 13.6413 13.6456C13.9468 13.4877 14.0035 13.3844 13.8451 13.0689C13.6791 12.7381 13.5186 12.4032 13.3344 12.0845C13.2261 11.8972 13.0915 11.682 12.797 11.8866C12.7094 11.9474 12.6139 11.9937 12.5156 12.0307C12.0355 12.2115 11.8605 12.5449 12.0598 12.8918C12.2188 13.1686 12.3815 13.4429 12.5348 13.7232C12.684 13.9961 12.6581 14.2216 12.4633 14.338C12.087 14.563 11.7063 14.7792 11.2919 15.0196ZM11.9048 12.3938C11.697 12.0482 11.4972 11.7026 11.2839 11.3669C11.1648 11.1795 11.0055 11.2184 10.8091 11.3776C10.6029 11.5447 10.3688 11.6629 10.128 11.7621C9.83546 11.8825 9.69233 12.2021 9.81857 12.5039C9.8965 12.6902 10.006 12.8614 10.0797 13.0493C10.1902 13.331 10.4166 13.4419 10.6727 13.2962C11.0266 13.0948 11.3749 12.8813 11.7193 12.6614C11.7827 12.621 11.816 12.5255 11.9048 12.3938ZM21.8232 11.1936C21.7466 11.2784 21.6565 11.3538 21.5964 11.451C21.5251 11.5663 21.4738 11.6978 21.4243 11.8269C21.3488 12.0234 21.2662 12.2198 21.2211 12.425C21.2059 12.4943 21.2758 12.6234 21.3405 12.6688C21.6233 12.8672 21.9198 13.0426 22.2088 13.2308C22.4855 13.411 22.7663 13.3909 22.8825 13.1646C23.0044 12.927 23.1104 12.68 23.2271 12.4392C23.303 12.2825 23.2894 12.1436 23.1567 12.038C22.9399 11.8656 22.7249 11.6877 22.4943 11.5391C22.2971 11.4122 22.0791 11.3232 21.8232 11.1936Z" fill="white"/>
<path d="M23.2816 16.1043C22.922 15.866 22.5935 15.6402 22.2566 15.4302C22.1532 15.3657 22.0277 15.3408 21.9105 15.3048C21.7715 15.2621 21.6936 15.3121 21.6314 15.4678C21.5423 15.6905 21.4235 15.9022 21.2975 16.104C21.1507 16.3393 20.8756 16.3584 20.6213 16.1855C20.3636 16.0104 20.1066 15.8312 19.8355 15.6832C19.6398 15.5764 19.5728 15.4238 19.6487 15.225C19.7412 14.9828 19.8627 14.7521 19.9861 14.5256C20.134 14.2541 20.1101 14.1342 19.8586 13.971C19.68 13.8551 19.504 13.7342 19.331 13.6089C19.1175 13.4542 19.0668 13.2505 19.192 12.9999C19.3576 12.6685 19.532 12.3421 19.7106 12.0187C19.8555 11.7564 20.0581 11.7304 20.2923 11.9019C20.5151 12.065 20.7526 12.2047 20.9846 12.3528C21.1074 12.4312 21.1653 12.5296 21.0829 12.6789C20.8383 13.122 20.5935 13.565 20.3312 14.0399C20.6738 14.5537 21.3308 14.594 21.7229 15.1154C21.9706 14.6267 22.1929 14.1779 22.4248 13.7349C22.5518 13.4923 22.7999 13.4493 23.0383 13.6053C23.328 13.7948 23.6124 13.9969 23.9153 14.1582C24.1161 14.2652 24.1797 14.4194 24.1053 14.6127C23.9891 14.9149 23.838 15.2016 23.6969 15.4922C23.6038 15.6837 23.5024 15.8705 23.3816 16.1042C23.8361 16.3639 24.2732 16.6287 24.7261 16.8565C24.7939 16.8906 24.9793 16.7817 25.0361 16.6869C25.2283 16.3661 25.3809 16.018 25.5608 15.688C25.6882 15.4542 25.6502 15.3148 25.3761 15.1521C25.0558 14.962 24.7311 14.7806 24.4106 14.5908C24.1411 14.4311 24.1325 14.3821 24.2961 14.1183C24.4364 13.8921 24.5631 13.6551 24.7146 13.4382C24.8868 13.1917 25.1212 13.158 25.354 13.3195C25.5733 13.4717 25.7904 13.6277 26.0119 13.776C26.3861 14.0265 26.4313 14.3549 26.1483 14.7404C26.074 14.8416 26.0014 14.9535 25.9619 15.0735C25.8697 15.3541 25.9357 15.4806 26.1822 15.6125C26.369 15.7125 26.5511 15.8253 26.727 15.9464C26.8851 16.0553 26.8629 16.4609 26.705 16.722C26.5583 16.9646 26.414 17.2099 26.2847 17.4636C26.1426 17.7425 25.9632 17.8112 25.7077 17.6437C25.4996 17.5074 25.2953 17.3631 25.0979 17.2095C24.9873 17.1235 24.9128 17.128 24.8413 17.2541C24.6828 17.5333 24.5214 17.8106 24.3615 18.0889C24.2305 18.3171 24.0684 18.3529 23.8557 18.2116C23.5967 18.0395 23.3369 17.8682 23.0711 17.7089C22.6855 17.4777 22.6317 17.3031 22.8481 16.894C22.9903 16.6253 23.1401 16.3614 23.2816 16.1043Z" fill="white"/>
<path d="M11.2919 15.0196C11.7063 14.7792 12.087 14.563 12.4633 14.338C12.6581 14.2216 12.684 13.9961 12.5348 13.7232C12.3815 13.4429 12.2188 13.1686 12.0598 12.8918C11.8736 12.5676 12.0142 12.2552 12.4252 12.0681C12.5765 11.9993 12.7224 11.9165 12.8714 11.8419C13.1151 11.7198 13.2357 11.9137 13.3344 12.0845C13.5186 12.4032 13.6791 12.7381 13.8451 13.0689C14.0035 13.3844 13.9468 13.4877 13.6413 13.6456C13.4093 13.7655 13.1991 13.9396 12.9908 14.1066C12.8462 14.2227 12.8954 14.3631 12.9834 14.5049C13.1097 14.7083 13.2371 14.9139 13.3372 15.1329C13.483 15.4519 13.419 15.5765 13.1214 15.7272C12.9097 15.8344 12.7185 15.9882 12.5096 16.1028C12.3568 16.1867 12.1936 16.257 12.0277 16.3002C11.9623 16.3173 11.8475 16.2682 11.8062 16.2082C11.6873 16.0355 11.5814 15.8488 11.4942 15.6551C11.3091 15.2438 11.2124 15.1886 10.8341 15.4063C10.4774 15.6115 10.1387 15.8533 9.76797 16.0947C9.86524 16.2817 9.97094 16.4642 10.0572 16.6568C10.1364 16.8335 10.2376 17.0184 10.248 17.205C10.2559 17.346 10.1717 17.5508 10.0661 17.6303C9.768 17.8548 9.43861 18.031 9.11983 18.223C8.95581 18.3217 8.82862 18.2882 8.72196 18.1077C8.52193 17.7692 8.30843 17.4401 8.09629 17.1003C7.88382 17.2486 7.63416 17.4123 7.39518 17.5925C7.14019 17.7849 6.96673 17.7796 6.80213 17.505C6.57566 17.1272 6.37188 16.7332 6.1643 16.3425C6.06283 16.1515 6.10089 16.0112 6.30125 15.9155C6.52968 15.8065 6.74695 15.6704 6.97071 15.5496C7.16019 15.4474 7.14779 15.2758 7.07853 15.1145C6.98342 14.8931 6.86173 14.6848 6.74946 14.4722C6.57275 14.1374 6.61774 13.9903 6.92599 13.8244C7.13547 13.7116 7.34099 13.5867 7.53675 13.4482C8.0368 13.0944 8.19742 13.1296 8.48309 13.6789C8.82725 14.3406 8.83622 14.3385 9.43916 13.9363C9.65389 13.793 9.88415 13.6753 10.1129 13.5589C10.3098 13.4587 10.472 13.5191 10.5785 13.7272C10.7173 13.9984 10.8465 14.2756 10.9916 14.5428C11.0867 14.7178 11.2027 14.8795 11.2919 15.0196ZM9.64341 16.0724C9.39274 15.5868 9.14255 15.094 8.88427 14.6062C8.79777 14.4428 8.68796 14.4316 8.53855 14.5515C8.29729 14.745 8.04885 14.9345 7.78391 15.0857C7.36308 15.3257 7.31498 15.4846 7.57799 15.9256C7.72862 16.1782 7.88896 16.4269 8.01168 16.6952C8.10696 16.9034 8.23743 16.9298 8.39294 16.8389C8.81141 16.5943 9.22135 16.3327 9.64341 16.0724Z" fill="white"/>
<path d="M11.9048 12.3938C11.816 12.5255 11.7827 12.621 11.7193 12.6614C11.3749 12.8813 11.0266 13.0948 10.6727 13.2962C10.4166 13.4419 10.1902 13.331 10.0797 13.0493C10.006 12.8614 9.8965 12.6902 9.81857 12.5039C9.70069 12.2221 9.81769 11.9247 10.0719 11.7885C10.3512 11.6389 10.63 11.4857 10.8974 11.3129C11.0537 11.2118 11.1832 11.2084 11.2839 11.3669C11.4972 11.7026 11.697 12.0482 11.9048 12.3938Z" fill="white"/>
<path d="M21.8232 11.1936C22.0791 11.3232 22.2971 11.4122 22.4943 11.5391C22.7249 11.6877 22.9399 11.8656 23.1567 12.038C23.2894 12.1436 23.303 12.2825 23.2271 12.4392C23.1104 12.68 23.0044 12.927 22.8825 13.1646C22.7663 13.3909 22.4855 13.411 22.2088 13.2308C21.9198 13.0426 21.6233 12.8672 21.3405 12.6688C21.2758 12.6234 21.2059 12.4943 21.2211 12.425C21.2662 12.2198 21.3488 12.0234 21.4243 11.8269C21.4738 11.6978 21.5251 11.5663 21.5964 11.451C21.6565 11.3538 21.7466 11.2784 21.8232 11.1936Z" fill="white"/>
<path d="M9.64341 16.0724C9.22135 16.3327 8.81141 16.5943 8.39294 16.8389C8.23743 16.9298 8.10696 16.9034 8.01168 16.6952C7.88896 16.4269 7.72862 16.1782 7.57799 15.9256C7.31498 15.4846 7.36308 15.3257 7.78391 15.0857C8.04885 14.9345 8.29729 14.745 8.53855 14.5515C8.68796 14.4316 8.79777 14.4428 8.88427 14.6062C9.14255 15.094 9.39274 15.5868 9.64341 16.0724Z" fill="white"/>
</svg>
