<svg width="33" height="33" viewBox="0 0 33 33" fill="none" xmlns="http://www.w3.org/2000/svg">
<g clip-path="url(#clip0_2040_1082)">
<path d="M31.75 16.6665C31.75 8.24416 24.9223 1.4165 16.5 1.4165C8.07766 1.4165 1.25 8.24416 1.25 16.6665C1.25 25.0888 8.07766 31.9165 16.5 31.9165C24.9223 31.9165 31.75 25.0888 31.75 16.6665Z" stroke="white" stroke-width="1.5"/>
<mask id="mask0_2040_1082" style="mask-type:luminance" maskUnits="userSpaceOnUse" x="7" y="7" width="19" height="20">
<path d="M25.5 7.01892H7.5V26.3142H25.5V7.01892Z" fill="white"/>
</mask>
<g mask="url(#mask0_2040_1082)">
<path d="M13.1127 19.9661C13.1127 17.2909 13.1118 14.7623 13.113 12.2337C13.1138 10.3917 13.6817 9.65065 15.4398 9.17926C17.9846 8.49696 20.527 7.80557 23.0735 7.12974C24.5536 6.73693 25.4703 7.40068 25.4799 8.92557C25.5028 12.5599 25.5105 16.1947 25.4795 19.8289C25.4631 21.7504 24.1236 23.1758 22.2728 23.3635C20.5611 23.537 18.9379 22.3023 18.5754 20.5509C18.2228 18.8472 19.1921 17.163 20.8532 16.5801C21.9652 16.1898 23.0112 16.4255 24.0718 17.0058V12.5538C23.8137 12.5984 23.5868 12.62 23.3694 12.6777C20.6408 13.4018 17.9175 14.1466 15.1827 14.8462C14.6287 14.9879 14.4746 15.2378 14.4817 15.7894C14.5114 18.1043 14.5125 20.4201 14.4869 22.7351C14.4687 24.3759 13.5376 25.6643 12.107 26.1348C10.6971 26.5985 9.18028 26.1451 8.26206 24.9855C7.26362 23.7246 7.24461 22.0031 8.21491 20.7151C9.162 19.4579 10.8866 18.9919 12.3437 19.6034C12.5616 19.6949 12.7718 19.8046 13.1127 19.9661ZM14.4996 13.5174C14.6755 13.5315 14.7327 13.5508 14.7813 13.5379C17.2753 12.873 19.7691 12.2072 22.2617 11.5374C24.2283 11.0089 24.2174 11.007 24.113 8.99352C24.0876 8.50181 23.9564 8.30863 23.4277 8.454C20.7574 9.18826 18.0815 9.90216 15.4064 10.6189C14.8398 10.7708 14.5303 11.1385 14.5053 11.7125C14.4797 12.2991 14.4996 12.8877 14.4996 13.5174ZM22.0285 21.982C23.1812 21.9648 24.1209 20.9914 24.0999 19.8365C24.079 18.6868 23.0988 17.7405 21.9508 17.7617C20.801 17.7829 19.8658 18.7565 19.8825 19.9148C19.8991 21.0674 20.8666 21.9994 22.0285 21.982ZM13.1099 22.7951C13.0981 21.663 12.0988 20.6861 10.9692 20.7024C9.82302 20.7189 8.87815 21.694 8.89044 22.8475C8.90287 24.0132 9.84585 24.929 11.0217 24.9172C12.1876 24.9056 13.1219 23.9561 13.1099 22.7951Z" fill="#F5F4F3"/>
</g>
</g>
<defs>
<clipPath id="clip0_2040_1082">
<rect width="33" height="33" fill="white"/>
</clipPath>
</defs>
</svg>
