<svg width="33" height="33" viewBox="0 0 33 33" fill="none" xmlns="http://www.w3.org/2000/svg">
<rect x="1.25" y="1.4165" width="30.5" height="30.5" rx="15.25" stroke="white" stroke-width="1.5"/>
<path d="M12.8927 9.26493C12.8927 9.11143 12.8882 8.96403 12.8948 8.81718C12.8978 8.74882 12.9118 8.67623 12.9395 8.6148C13.0073 8.46438 13.129 8.38897 13.2874 8.38817C13.6751 8.3862 14.0628 8.38755 14.4505 8.38756C14.4719 8.38756 14.4934 8.38756 14.5236 8.38756C14.5236 8.29734 14.5235 8.21286 14.5237 8.12838C14.5239 8.01316 14.5513 7.90804 14.6231 7.81717C14.6968 7.72404 14.7914 7.6684 14.9047 7.66816C15.9684 7.66587 17.032 7.66636 18.0957 7.66723C18.273 7.66738 18.4452 7.82971 18.4648 8.02454C18.4765 8.14127 18.467 8.26034 18.467 8.38756H18.5442C18.9299 8.38756 19.3156 8.38745 19.7013 8.38761C19.9352 8.3877 20.1067 8.56712 20.107 8.81161C20.1072 8.95906 20.107 9.10652 20.107 9.26112C20.1338 9.26253 20.1566 9.26477 20.1794 9.26478C20.6307 9.26496 21.082 9.26291 21.5333 9.26548C21.8856 9.26749 22.1951 9.39465 22.465 9.63012C22.719 9.85167 22.8814 10.1336 22.9565 10.4683C22.9825 10.5841 22.9981 10.7055 22.9982 10.8243C23.0003 15.2561 23.001 19.6878 22.998 24.1195C22.9978 24.4911 22.8771 24.8254 22.6454 25.1126C22.4007 25.416 22.0884 25.5907 21.7168 25.6537C21.6624 25.6629 21.6066 25.6658 21.5515 25.6658C18.1775 25.6664 14.8036 25.6676 11.4297 25.6644C11.1026 25.6641 10.8106 25.536 10.5565 25.3215C10.2915 25.0978 10.1202 24.8087 10.0431 24.4624C10.0178 24.3484 10.0018 24.2293 10.0018 24.1125C9.99974 19.6807 9.99912 15.249 10.0017 10.8172C10.002 10.4432 10.1223 10.1074 10.3548 9.81808C10.5965 9.51735 10.9065 9.34579 11.2722 9.27771C11.3224 9.26835 11.3744 9.26548 11.4256 9.26538C11.8888 9.2645 12.352 9.2649 12.8153 9.26493C12.8387 9.26493 12.8622 9.26493 12.8927 9.26493ZM12.8896 10.1136C12.8572 10.1136 12.8334 10.1136 12.8097 10.1136C12.3961 10.1136 11.9826 10.1132 11.569 10.1141C11.5159 10.1142 11.4625 10.1184 11.4096 10.1248C11.0846 10.1636 10.8213 10.4708 10.8213 10.8113C10.8212 15.2474 10.8212 19.6834 10.8212 24.1195C10.8212 24.1403 10.8193 24.1615 10.8221 24.1819C10.874 24.5597 11.1609 24.8177 11.5277 24.8177C14.8421 24.8176 18.1564 24.8177 21.4708 24.8172C21.5101 24.8172 21.5495 24.8117 21.5886 24.8069C21.928 24.7649 22.1803 24.445 22.1802 24.0898C22.178 19.6745 22.1788 15.2592 22.1783 10.844C22.1783 10.7988 22.1748 10.7531 22.168 10.7084C22.1163 10.3663 21.8365 10.1204 21.5099 10.1152C21.0626 10.1081 20.6152 10.1135 20.1679 10.1137C20.1504 10.1137 20.1329 10.1153 20.107 10.1166C20.107 10.1436 20.107 10.1679 20.107 10.1922C20.1071 10.3961 20.1077 10.6 20.1072 10.8039C20.1067 11.0169 19.9313 11.2018 19.7275 11.2018C17.5763 11.2022 15.425 11.2021 13.2737 11.2018C13.0672 11.2018 12.892 11.0155 12.8922 10.7992C12.8923 10.5932 12.8927 10.3872 12.8927 10.1812C12.8927 10.1609 12.8909 10.1406 12.8896 10.1136ZM13.7078 10.3494H19.2899V9.23623C19.2606 9.23623 19.237 9.23623 19.2133 9.23623C18.8217 9.23622 18.43 9.23788 18.0384 9.23522C17.9123 9.23437 17.8128 9.17228 17.7355 9.06718C17.6767 8.98715 17.6571 8.89641 17.656 8.79912C17.6549 8.70638 17.6557 8.61361 17.6557 8.52042H15.3442C15.3442 8.62294 15.3452 8.72041 15.344 8.81785C15.3408 9.07723 15.1355 9.23974 14.9377 9.23751C14.5521 9.23315 14.1664 9.23623 13.7807 9.23623C13.7575 9.23624 13.7342 9.23623 13.7078 9.23623L13.7078 10.3494Z" fill="#F5F4F3"/>
<path d="M16.4995 21.4001C17.5629 21.4001 18.6264 21.4001 19.6898 21.4002C19.8979 21.4002 20.0733 21.5457 20.1037 21.7455C20.1473 22.0324 19.9534 22.2403 19.746 22.2495C19.7007 22.2515 19.6555 22.2591 19.6102 22.2591C17.5211 22.2596 15.432 22.2596 13.3429 22.2596C13.1955 22.2596 13.065 22.2164 12.9724 22.0884C12.8828 21.9646 12.8664 21.8234 12.9144 21.6812C12.9646 21.5327 13.0685 21.4375 13.2213 21.4113C13.2639 21.4039 13.3077 21.4006 13.3509 21.4006C14.4004 21.4 15.4499 21.4001 16.4995 21.4001Z" fill="#F5F4F3"/>
<path d="M16.5003 18.3536C15.4249 18.3535 14.3494 18.3536 13.2739 18.3535C13.072 18.3535 12.9026 18.1691 12.8909 17.9568C12.8766 17.6972 13.0815 17.5027 13.3209 17.503C15.45 17.5062 17.5791 17.5049 19.7081 17.5049C19.9038 17.5049 20.0836 17.6665 20.106 17.8625C20.1327 18.0962 20.0041 18.299 19.7975 18.3474C19.7746 18.3528 19.7504 18.3533 19.7267 18.3533C18.6513 18.3536 17.5758 18.3536 16.5003 18.3536Z" fill="#F5F4F3"/>
<path d="M16.5001 14.4583C15.4324 14.4583 14.3647 14.4566 13.2971 14.4598C13.1009 14.4604 12.926 14.3094 12.895 14.1078C12.8607 13.8853 12.9858 13.6824 13.1885 13.6227C13.2184 13.6139 13.2507 13.6102 13.2819 13.6102C15.4292 13.6096 17.5764 13.6096 19.7237 13.6096C19.9219 13.6096 20.0988 13.8003 20.1087 14.0077C20.1197 14.237 19.967 14.4159 19.7858 14.4526C19.7646 14.4569 19.7426 14.4581 19.7209 14.4581C18.6473 14.4583 17.5737 14.4583 16.5001 14.4583Z" fill="#F5F4F3"/>
</svg>
