<svg width="33" height="33" viewBox="0 0 33 33" fill="none" xmlns="http://www.w3.org/2000/svg">
<g clip-path="url(#clip0_2040_1064)">
<path d="M31.75 16.6665C31.75 8.24416 24.9223 1.4165 16.5 1.4165C8.07766 1.4165 1.25 8.24416 1.25 16.6665C1.25 25.0888 8.07766 31.9165 16.5 31.9165C24.9223 31.9165 31.75 25.0888 31.75 16.6665Z" stroke="white" stroke-width="1.5"/>
<path d="M31 13.0063C30.8888 13.2422 30.7038 13.3309 30.4402 13.3553C28.0641 13.5757 25.7314 13.9999 23.5417 14.983C22.8845 15.2782 22.2392 15.6353 21.661 16.0611C20.2331 17.1128 18.6756 17.2905 17.014 16.8506C16.1142 16.6124 15.233 16.305 14.3431 16.0296C14.2803 16.0101 14.2161 15.9942 14.1515 15.9819C13.9018 15.9342 13.7615 16.0318 13.7308 16.2746C13.6739 16.7249 13.3877 17.0144 12.9052 17.1108C12.3032 17.231 11.7124 17.1251 11.1468 16.9513C9.83382 16.5477 8.54127 16.0781 7.22618 15.6818C6.11985 15.3484 5.00047 15.0491 3.87196 14.8016C3.48717 14.7172 3.05416 14.815 2.64868 14.8696C2.35985 14.9086 2.12781 14.8251 2.03107 14.5661C1.94307 14.3305 2.04088 14.1478 2.33895 14.0302C3.10271 13.7288 3.88984 13.7773 4.64695 13.9976C6.21861 14.455 7.77178 14.9746 9.33739 15.453C10.2451 15.7304 11.1618 15.9786 12.0755 16.2364C12.156 16.2592 12.2435 16.2604 12.3281 16.2649C12.6347 16.281 12.818 16.139 12.8781 15.839C12.9792 15.3346 13.3328 15.0022 13.8509 15.0455C14.2949 15.0826 14.7342 15.2145 15.1668 15.3355C16.0719 15.5887 16.96 15.9122 17.8758 16.114C18.8781 16.3347 19.8591 16.1792 20.7097 15.5679C22.8366 14.0393 25.2573 13.2534 27.8016 12.7899C28.6623 12.6331 29.5396 12.5667 30.4085 12.4532C30.6696 12.4191 30.873 12.484 31 12.7252V13.0063Z" fill="white"/>
<path d="M19.1325 15.9264C18.5969 16.0223 18.0693 15.9687 17.5627 15.833C16.7821 15.624 16.014 15.368 15.2464 15.1144C15.1693 15.0889 15.0866 14.9439 15.0846 14.8527C15.0707 14.2069 15.0867 13.5604 15.069 12.9148C15.0655 12.7888 14.9885 12.6267 14.8909 12.5472C13.3894 11.323 11.8789 10.11 10.3711 8.89364C10.276 8.81699 10.1773 8.74199 10.0958 8.65232C9.89147 8.42752 9.89039 8.11198 10.0825 7.88245C10.2653 7.6641 10.5712 7.60147 10.8247 7.7401C10.9146 7.78927 10.9945 7.85788 11.0749 7.92263C12.5835 9.138 14.0886 10.3576 15.6044 11.5641C15.7372 11.6698 15.9372 11.7375 16.1084 11.7425C16.7871 11.7626 17.4669 11.7594 18.1459 11.7439C18.2916 11.7406 18.463 11.6844 18.5757 11.5946C20.0609 10.4102 21.5376 9.21548 23.0165 8.02342C23.1044 7.9526 23.1902 7.8789 23.2814 7.81263C23.5824 7.59401 23.924 7.62604 24.1387 7.88989C24.3497 8.14914 24.3152 8.50567 24.0335 8.73959C23.5272 9.16007 23.011 9.56878 22.4984 9.98178C21.4513 10.8254 20.406 11.6713 19.3542 12.5092C19.1993 12.6326 19.1416 12.7629 19.1439 12.9601C19.1545 13.8776 19.1488 14.7953 19.1479 15.713C19.1478 15.7774 19.1389 15.8418 19.1325 15.9264Z" fill="white"/>
<path d="M15.0977 16.5073C16.4078 16.9523 17.7052 17.3842 19.1456 17.2775C19.1456 17.7984 19.1496 18.3 19.1392 18.8014C19.1382 18.85 19.056 18.9237 18.9982 18.9404C18.4468 19.0994 17.8873 19.127 17.2938 19.0234V18.0288H16.9425V20.0812H15.0977V16.5073Z" fill="white"/>
<path d="M15.083 20.2671C15.4134 20.2967 15.7126 20.3337 16.013 20.3475C16.3033 20.3609 16.5947 20.3504 16.917 20.3504C16.9234 20.4166 16.9375 20.495 16.9376 20.5735C16.9389 21.9296 16.9414 23.2858 16.9373 24.6418C16.9353 25.3014 16.5119 25.7133 15.904 25.6623C15.4838 25.627 15.0937 25.2826 15.0893 24.865C15.0734 23.3421 15.083 21.8189 15.083 20.2671Z" fill="white"/>
<path d="M17.103 11.3192C16.1695 11.3165 15.418 10.5641 15.4199 9.63415C15.4217 8.70725 16.1838 7.95217 17.1132 7.95632C18.0412 7.96047 18.808 8.72651 18.8031 9.64434C18.7981 10.5683 18.0332 11.3218 17.103 11.3192Z" fill="white"/>
<path d="M17.2872 19.328C17.9326 19.2868 18.5287 19.2488 19.1489 19.2092C19.1489 19.6099 19.1489 20.0476 19.1488 20.4854C19.1487 20.9344 19.1583 21.3837 19.1456 21.8323C19.13 22.3859 18.718 22.7904 18.2002 22.7824C17.6748 22.7742 17.291 22.3687 17.2883 21.8064C17.2842 20.9664 17.2872 20.1263 17.2872 19.328Z" fill="white"/>
</g>
<defs>
<clipPath id="clip0_2040_1064">
<rect width="33" height="33" fill="white"/>
</clipPath>
</defs>
</svg>
