<svg width="24" height="25" viewBox="0 0 24 25" fill="none" xmlns="http://www.w3.org/2000/svg">
<path fill-rule="evenodd" clip-rule="evenodd" d="M7.05266 0.238504C8.33267 0.179835 8.74067 0.166504 12 0.166504C15.26 0.166504 15.6673 0.1805 16.9466 0.238504C18.2246 0.296508 19.0973 0.499842 19.8607 0.796504C20.6613 1.09793 21.3865 1.57022 21.986 2.18051C22.5963 2.77989 23.0687 3.50519 23.37 4.30584C23.6666 5.06917 23.8693 5.94184 23.928 7.21917C23.9867 8.49917 24 8.90717 24 12.1665C24 15.4258 23.986 15.8338 23.928 17.1139C23.87 18.3911 23.6666 19.2639 23.37 20.0272C23.0633 20.8159 22.6526 21.4858 21.986 22.1525C21.3866 22.7628 20.6613 23.2352 19.8607 23.5365C19.0973 23.8331 18.2246 24.0358 16.9474 24.0945C15.6673 24.1532 15.2593 24.1665 12 24.1665C8.74067 24.1665 8.33267 24.1525 7.05266 24.0945C5.77534 24.0365 4.90267 23.8331 4.13933 23.5365C3.35066 23.2299 2.68067 22.8191 2.014 22.1525C1.40361 21.5531 0.931287 20.8278 0.63 20.0272C0.333338 19.2639 0.130669 18.3911 0.072 17.1139C0.0133309 15.8338 0 15.4265 0 12.1665C0 8.90651 0.0139963 8.49917 0.072 7.21984C0.130004 5.94184 0.333338 5.06917 0.63 4.30584C0.931429 3.50524 1.40372 2.77997 2.014 2.18051C2.61337 1.57011 3.33867 1.09779 4.13933 0.796504C4.90267 0.499842 5.77534 0.297173 7.05266 0.238504ZM16.8493 2.3985C15.584 2.34117 15.204 2.3285 12 2.3285C8.796 2.3285 8.416 2.34117 7.15067 2.3985C5.98067 2.45184 5.34534 2.64717 4.92266 2.81184C4.36267 3.02917 3.96266 3.28917 3.54266 3.70917C3.12334 4.12917 2.86267 4.52917 2.64533 5.08917C2.48066 5.51184 2.28533 6.14717 2.232 7.31717C2.17466 8.58251 2.162 8.9625 2.162 12.1665C2.162 15.3705 2.17466 15.7505 2.232 17.0158C2.28533 18.1858 2.48066 18.8212 2.64533 19.2439C2.83757 19.7651 3.14421 20.2366 3.54266 20.6239C3.92983 21.0223 4.40139 21.3289 4.92266 21.5212C5.34534 21.6859 5.98067 21.8812 7.15067 21.9345C8.416 21.9919 8.79533 22.0045 12 22.0045C15.2047 22.0045 15.584 21.9919 16.8493 21.9345C18.0193 21.8812 18.6547 21.6859 19.0774 21.5212C19.6373 21.3039 20.0374 21.0439 20.4574 20.6239C20.8558 20.2367 21.1624 19.7651 21.3547 19.2439C21.5194 18.8212 21.7147 18.1858 21.768 17.0158C21.8254 15.7505 21.838 15.3705 21.838 12.1665C21.838 8.9625 21.8254 8.58251 21.768 7.31717C21.7147 6.14717 21.5194 5.51184 21.3547 5.08917C21.1373 4.52917 20.8774 4.12917 20.4574 3.70917C20.0374 3.28984 19.6373 3.02917 19.0774 2.81184C18.6547 2.64717 18.0193 2.45184 16.8493 2.3985ZM10.4678 15.8657C10.9536 16.0669 11.4742 16.1705 12 16.1705C13.062 16.1705 14.0804 15.7486 14.8312 14.9977C15.5822 14.2469 16.0041 13.2284 16.0041 12.1665C16.0041 11.1046 15.5822 10.0861 14.8312 9.33525C14.0804 8.58435 13.062 8.1625 12 8.1625C11.4742 8.1625 10.9536 8.26607 10.4678 8.46729C9.98193 8.6685 9.54058 8.96343 9.16877 9.33525C8.79697 9.70705 8.50203 10.1484 8.30082 10.6342C8.0996 11.12 7.99604 11.6407 7.99604 12.1665C7.99604 12.6923 8.0996 13.213 8.30082 13.6988C8.50203 14.1846 8.79697 14.626 9.16877 14.9977C9.54058 15.3695 9.98193 15.6645 10.4678 15.8657ZM7.6386 7.80506C8.79532 6.64834 10.3642 5.99849 12 5.99849C13.6359 5.99849 15.2048 6.64834 16.3615 7.80506C17.5181 8.96178 18.168 10.5307 18.168 12.1665C18.168 13.8023 17.5181 15.3712 16.3615 16.528C15.2048 17.6847 13.6359 18.3345 12 18.3345C10.3642 18.3345 8.79532 17.6847 7.6386 16.528C6.48188 15.3712 5.83203 13.8023 5.83203 12.1665C5.83203 10.5307 6.48188 8.96178 7.6386 7.80506ZM19.5357 6.91746C19.8091 6.64403 19.9627 6.27318 19.9627 5.8865C19.9627 5.49981 19.8091 5.12896 19.5357 4.85554C19.2622 4.58211 18.8914 4.4285 18.5047 4.4285C18.118 4.4285 17.7471 4.58211 17.4737 4.85554C17.2003 5.12896 17.0467 5.49981 17.0467 5.8865C17.0467 6.27318 17.2003 6.64403 17.4737 6.91746C17.7471 7.19089 18.118 7.3445 18.5047 7.3445C18.8914 7.3445 19.2622 7.19089 19.5357 6.91746Z" fill="white"/>
</svg>
