<svg width="322" height="1" viewBox="0 0 322 1" fill="none" xmlns="http://www.w3.org/2000/svg">
<line y1="0.25" x2="5.03125" y2="0.25" stroke="#1A262D" stroke-width="0.5"/>
<line x1="15.0938" y1="0.25" x2="20.125" y2="0.25" stroke="#1A262D" stroke-width="0.5"/>
<line x1="30.1875" y1="0.25" x2="35.2188" y2="0.25" stroke="#1A262D" stroke-width="0.5"/>
<line x1="45.2812" y1="0.25" x2="50.3125" y2="0.25" stroke="#1A262D" stroke-width="0.5"/>
<line x1="60.375" y1="0.25" x2="65.4062" y2="0.25" stroke="#1A262D" stroke-width="0.5"/>
<line x1="75.4688" y1="0.25" x2="80.5" y2="0.25" stroke="#1A262D" stroke-width="0.5"/>
<line x1="90.5625" y1="0.25" x2="95.5938" y2="0.25" stroke="#1A262D" stroke-width="0.5"/>
<line x1="105.656" y1="0.25" x2="110.688" y2="0.25" stroke="#1A262D" stroke-width="0.5"/>
<line x1="120.75" y1="0.25" x2="125.781" y2="0.25" stroke="#1A262D" stroke-width="0.5"/>
<line x1="135.844" y1="0.25" x2="140.875" y2="0.25" stroke="#1A262D" stroke-width="0.5"/>
<line x1="150.938" y1="0.25" x2="155.969" y2="0.25" stroke="#1A262D" stroke-width="0.5"/>
<line x1="166.031" y1="0.25" x2="171.062" y2="0.25" stroke="#1A262D" stroke-width="0.5"/>
<line x1="181.125" y1="0.25" x2="186.156" y2="0.25" stroke="#1A262D" stroke-width="0.5"/>
<line x1="196.219" y1="0.25" x2="201.25" y2="0.25" stroke="#1A262D" stroke-width="0.5"/>
<line x1="211.312" y1="0.25" x2="216.344" y2="0.25" stroke="#1A262D" stroke-width="0.5"/>
<line x1="226.406" y1="0.25" x2="231.438" y2="0.25" stroke="#1A262D" stroke-width="0.5"/>
<line x1="241.5" y1="0.25" x2="246.531" y2="0.25" stroke="#1A262D" stroke-width="0.5"/>
<line x1="256.594" y1="0.25" x2="261.625" y2="0.25" stroke="#1A262D" stroke-width="0.5"/>
<line x1="271.688" y1="0.25" x2="276.719" y2="0.25" stroke="#1A262D" stroke-width="0.5"/>
<line x1="286.781" y1="0.25" x2="291.812" y2="0.25" stroke="#1A262D" stroke-width="0.5"/>
<line x1="301.875" y1="0.25" x2="306.906" y2="0.25" stroke="#1A262D" stroke-width="0.5"/>
<line x1="316.969" y1="0.25" x2="322" y2="0.25" stroke="#1A262D" stroke-width="0.5"/>
</svg>
