<svg width="286" height="143" viewBox="0 0 286 143" fill="none" xmlns="http://www.w3.org/2000/svg">
<path d="M143.37 38.2487C141.924 38.8531 140.979 38.5365 140.812 36.7521C139.95 37.7019 139.894 39.1697 138.393 39.4863C138.588 38.738 138.727 38.1048 138.893 37.3565C138.059 38.0185 137.309 38.6229 136.558 39.2561C136.502 39.1985 136.419 39.1122 136.363 39.0546C136.669 38.5941 136.947 38.1048 137.281 37.6156C136.447 37.7307 135.696 37.817 134.917 37.9321C134.89 37.8458 134.862 37.7882 134.834 37.7019C135.001 37.5868 135.168 37.3853 135.334 37.3853C136.252 37.3277 136.808 36.6946 137.42 36.0902C137.976 35.5721 138.56 35.0253 139.227 34.7087C141.869 33.4999 143.398 31.37 144.01 28.5207C144.343 26.9953 144.649 25.4699 144.983 23.9733C145.011 23.8006 145.094 23.5991 145.289 23.4265C145.511 24.4338 145.789 25.4124 145.956 26.4197C146.29 28.3193 146.901 30.0461 148.18 31.514C148.514 31.8881 148.792 32.3486 149.098 32.7803C150.182 34.3633 151.406 35.7736 153.046 36.7521C153.63 37.0975 154.13 37.6156 154.659 38.0761L154.548 38.3351C153.63 38.0473 152.74 37.7307 151.684 37.4141C152.073 38.1048 152.379 38.6517 152.74 39.2849C152.268 39.4 151.878 39.5439 151.461 39.6014C150.571 39.7454 150.266 39.5727 149.849 38.738C149.487 38.0185 149.042 37.4141 148.291 37.0111C148.291 38.4502 148.431 39.6878 149.57 40.6664C150.182 41.1844 150.655 41.9039 151.183 42.5371C152.323 44.005 153.769 45.0411 155.437 45.7894C156.605 46.3075 157.717 46.9982 158.273 48.2934C158.412 48.6099 158.357 48.9841 158.385 49.3295C157.995 49.2431 157.578 49.2431 157.245 49.0417C156.911 48.8402 156.661 48.466 156.299 48.207C156.577 48.7826 156.855 49.387 157.161 50.0778C156.049 49.8475 155.715 48.9265 155.048 48.1207V49.5309C153.991 49.2431 153.825 48.2646 153.408 47.4875C153.185 47.6602 152.963 47.8041 152.74 48.0055C152.268 47.5738 151.767 47.1133 151.267 46.6816C151.128 47.4587 151.267 48.0631 151.962 48.3797C153.352 49.0417 154.13 50.2217 154.992 51.4305C156.466 53.5027 158.273 55.2584 160.247 56.8126C160.47 56.9852 160.553 57.3306 160.72 57.5896C160.414 57.6472 160.053 57.8199 159.775 57.7048C159.413 57.5609 159.08 57.2443 158.802 56.9565C158.468 56.6399 158.19 56.2369 157.773 55.9491C157.94 56.4096 158.107 56.8989 158.301 57.3594C158.218 57.417 158.134 57.4745 158.051 57.5321C157.745 57.1579 157.411 56.8126 157.189 56.3808C156.744 55.4886 155.993 54.9418 155.131 54.3949C155.27 55.1433 155.382 55.8052 155.521 56.4672C154.464 55.8052 154.575 54.3086 153.435 53.733C153.547 54.4813 153.686 55.172 153.797 55.8916C153.741 55.9203 153.658 55.9203 153.602 55.9491C153.463 55.7477 153.296 55.5462 153.102 55.2584C153.046 55.6325 152.99 55.9491 152.935 56.2945C152.379 56.2945 152.156 55.8916 152.017 55.4599C151.767 54.7403 151.628 53.992 151.406 53.2437C151.267 52.7832 151.072 52.3515 150.822 51.9486C150.766 52.6393 150.71 53.3588 150.655 54.0496L150.432 54.0784C150.154 53.5027 149.876 52.9559 149.57 52.3227C149.404 52.7832 149.265 53.1574 149.126 53.5603C149.07 53.5603 149.014 53.5603 148.959 53.5891C148.848 53.1286 148.709 52.6681 148.57 52.0637C148.486 53.0135 148.625 53.8193 149.153 54.3949C149.904 55.2296 150.738 55.9779 151.628 56.6687C152.573 57.3882 153.63 57.935 154.659 58.5682C154.937 58.7409 155.187 58.9711 155.382 59.259C154.409 58.9136 153.408 58.5682 152.351 58.1941C152.573 59.0287 153.018 59.5755 153.658 59.8921C154.297 60.2375 154.965 60.4965 155.66 60.698C158.329 61.4751 160.47 63.0868 162.388 65.044C162.527 65.1879 162.639 65.3606 162.889 65.7059C161.109 65.1303 159.83 64.123 158.496 62.9429C158.468 63.3171 158.44 63.5761 158.412 63.9215C157.745 63.4898 157.106 63.0581 156.438 62.6263C156.577 63.1444 156.716 63.6337 156.855 64.123L156.577 64.3244C156.049 63.8352 155.521 63.3459 154.853 62.7415C154.742 63.72 154.659 64.4683 155.521 64.9864C155.799 65.1591 155.966 65.6484 156.049 66.0225C156.16 66.483 156.299 66.6269 156.772 66.6557C157.328 66.6557 157.968 66.7133 158.468 66.9435C160.442 67.9509 162.222 69.3036 163.751 70.9441C164.057 71.2607 164.224 71.6348 163.667 71.9227C164.224 72.7573 164.78 73.5344 165.28 74.3115C165.447 74.5705 165.642 74.8295 165.725 75.1174C165.836 75.4339 165.864 75.7793 165.92 76.0959C165.586 75.952 165.225 75.8369 164.946 75.6354C164.696 75.4627 164.557 75.2037 164.39 75.0022C164.168 75.3764 163.973 75.7505 163.779 76.1247C163.389 75.8657 162.917 75.6642 162.611 75.3188C162.055 74.6856 161.582 73.9661 161.054 73.3041C160.915 73.1027 160.748 72.9012 160.581 72.671C160.692 73.6207 160.776 74.513 160.859 75.3764C160.748 75.4052 160.665 75.434 160.553 75.4627C159.664 74.8583 159.691 73.7646 159.302 72.8436C159.052 72.9588 158.774 73.1027 158.412 73.2466C158.885 73.8798 159.386 74.4842 159.858 75.1461C160.442 75.9808 160.998 76.8154 161.527 77.6789C161.666 77.9091 161.666 78.2257 161.721 78.4847C161.638 78.5423 161.554 78.5999 161.471 78.6574C160.998 78.2545 160.526 77.8228 160.053 77.4198C160.053 77.4198 159.997 77.4486 159.997 77.4774C159.83 77.794 159.691 78.1394 159.525 78.456C159.163 78.2833 158.718 78.1682 158.468 77.8803C157.662 76.9306 156.939 75.8944 156.105 74.9159C156.216 75.3764 156.383 75.8369 156.466 76.2974C156.549 76.6715 156.577 77.0457 156.549 77.4198C156.549 77.5638 156.327 77.8228 156.244 77.8228C156.077 77.794 155.91 77.6501 155.771 77.4774C155.688 77.3911 155.715 77.2184 155.688 77.0745C155.409 75.29 154.297 74.3403 152.768 73.8222C153.046 74.5993 153.408 75.3476 153.547 76.1247C153.63 76.614 153.324 77.132 153.213 77.6501C153.157 77.9091 153.102 78.1969 153.185 78.3984C153.713 80.0102 154.325 81.5643 154.826 83.2048C155.076 84.0395 155.159 84.9317 155.298 85.8239C155.187 85.8527 155.076 85.9103 154.965 85.9391C154.714 85.3347 154.436 84.759 154.186 84.1259C154.103 84.6727 154.047 85.1908 153.964 85.7376L153.713 85.7952C152.712 84.2122 152.462 82.3126 151.684 80.557C151.795 81.9385 151.906 83.2624 152.017 84.5864C151.906 84.6151 151.795 84.6151 151.656 84.6439C151.489 83.8668 151.267 83.0897 151.128 82.2839C150.822 80.3555 150.377 79.4057 149.153 78.3408C149.265 79.4633 149.376 80.4419 149.487 81.4492C149.431 81.478 149.404 81.478 149.348 81.5068C148.82 79.7799 148.291 78.053 147.763 76.3262C147.68 76.3549 147.596 76.3549 147.513 76.3837C147.513 77.1033 147.541 77.8228 147.485 78.5423C147.457 78.8013 147.735 79.2618 147.151 79.2906C147.124 79.2906 147.096 79.6936 147.124 79.895C147.43 84.8166 147.735 89.7382 148.041 94.6597C148.152 96.5017 148.264 98.3437 148.347 100.186C148.403 101.625 147.124 102.92 145.761 102.834C145.567 102.805 145.344 102.632 145.177 102.488C144.872 102.258 144.566 101.999 144.315 101.711C144.176 101.567 144.093 101.308 144.093 101.135C144.371 97.653 144.788 94.1705 144.955 90.6879C145.177 85.9391 144.899 81.219 144.427 76.2686C143.287 77.9955 143.648 80.0389 142.703 81.737C142.397 81.075 142.119 80.4706 141.813 79.8087C141.618 80.7585 141.424 81.6219 141.229 82.5141C141.173 82.5141 141.118 82.5141 141.062 82.5141V80.4419C140.312 80.7297 140.256 81.3053 140.117 81.8521C139.978 82.3414 139.839 82.8595 139.7 83.3488C139.589 83.32 139.477 83.32 139.394 83.2912C139.422 82.399 139.477 81.5068 139.505 80.6433C139.477 80.6433 139.477 80.6433 139.45 80.6145C138.977 82.5141 138.504 84.3849 138.004 86.2844C137.893 86.2844 137.781 86.2557 137.67 86.2557C137.614 85.5937 137.531 84.9317 137.475 84.2698C137.309 84.7878 137.114 85.3059 136.947 85.8239C136.864 85.8239 136.78 85.7952 136.697 85.7952C136.725 85.2483 136.725 84.7015 136.808 84.1546C136.975 83.061 137.225 81.996 137.364 80.9024C137.503 80.0101 137.336 79.1467 136.78 78.1682C136.53 78.8301 136.363 79.3194 136.169 79.8375C136.002 80.3267 135.891 80.8448 135.668 81.3341C135.557 81.5931 135.307 81.7658 135.112 81.996C135.001 81.7658 134.89 81.5068 134.778 81.2477C134.612 80.7297 134.445 80.2116 134.25 79.5497C133.472 80.557 133.916 81.8234 132.888 82.7156C132.804 82.0536 132.749 81.5931 132.693 81.0463C132.387 81.5068 132.081 81.9385 131.803 82.3702C131.442 81.0175 132.248 80.0389 132.526 78.8013C130.663 79.7799 130.107 82.14 128.077 82.9458C128.467 81.3916 129.579 80.4419 130.357 79.2618C129.774 78.9165 129.44 79.0028 129.078 79.5784C128.606 80.3267 128.05 80.9887 127.494 81.6507C127.327 81.8234 127.077 81.9385 126.882 82.0824C126.576 81.3916 126.965 80.2692 127.577 79.6072C128.745 78.2833 129.857 76.9306 131.053 75.6066C131.358 75.2613 131.775 74.9734 132.22 74.7432C132.637 74.513 133.138 74.4266 133.583 74.1964C133.944 73.9949 134.445 73.7071 134.556 73.3617C134.862 72.4407 135.585 72.0953 136.28 71.6061C137.225 70.9441 138.337 70.3972 138.782 69.1309C138.977 68.584 139.255 68.066 139.589 67.6055C139.783 67.3177 140.173 67.1738 140.423 66.9147C140.617 66.7421 140.923 66.4542 140.895 66.2816C140.84 66.0513 140.562 65.7923 140.312 65.6771C139.311 65.1879 139.255 65.2454 138.671 66.1664C138.198 66.9147 137.698 67.663 137.17 68.4114C136.975 68.6992 136.697 68.9006 136.447 69.1309C136.363 69.1309 136.28 69.1021 136.224 69.1021C136.141 68.4689 136.057 67.807 135.974 67.0011C134.806 68.0948 134.306 69.4763 133.333 70.6275C133.416 69.9943 133.499 69.3611 133.611 68.5265C132.776 69.1309 131.998 69.5914 131.386 70.2246C130.997 70.6275 130.886 71.3182 130.691 71.8939C130.608 72.1241 130.691 72.3831 130.58 72.5846C130.469 72.8149 130.246 72.9876 130.079 73.189C129.968 72.9588 129.746 72.7285 129.718 72.4983C129.69 72.1241 129.774 71.75 129.829 71.3758C129.885 71.0592 129.94 70.7138 129.857 70.3109C129.635 70.6563 129.384 70.9729 129.217 71.3183C128.939 71.8363 128.717 72.3831 128.411 72.9012C128.216 73.2178 127.994 73.5344 127.716 73.7934C126.965 74.4554 126.52 74.2539 126.242 73.1315C125.937 73.5344 125.686 73.9086 125.38 74.2251C125.241 74.369 124.991 74.369 124.769 74.4266C124.769 74.2251 124.685 73.9661 124.769 73.8222C125.464 72.5271 126.159 71.2319 126.882 69.9655C127.077 69.6489 127.299 69.3324 127.494 69.0158C126.993 68.3538 127.438 67.2601 128.411 67.0299C129.134 66.8572 129.551 66.5981 129.774 65.8498C129.829 65.6196 130.079 65.4469 130.274 65.2742C131.275 64.382 132.276 63.5186 133.249 62.6263C133.75 62.1946 134.139 61.6766 134.083 60.9283C133.194 60.9283 132.804 61.2449 132.443 62.1659C132.137 62.8854 131.803 63.6049 131.497 64.3244C131.414 64.2957 131.358 64.2669 131.275 64.2381V61.5902C129.94 62.3673 129.885 64.0942 128.661 65.1015C128.912 64.2093 129.134 63.461 129.356 62.7127C129.301 62.6551 129.273 62.6263 129.217 62.5688C128.856 62.9429 128.467 63.3171 128.133 63.72C127.827 64.0942 127.577 64.8137 127.077 64.4683C126.548 64.123 127.104 63.5761 127.355 63.1732C129.217 60.3239 131.72 58.338 134.89 57.2155C135.863 56.8701 136.808 56.5247 137.754 56.1506C137.948 56.0642 138.198 55.8628 138.254 55.6613C138.504 54.7115 139.005 53.992 139.867 53.5315C139.95 53.4739 140.033 53.3876 140.117 53.3013C139.783 52.6681 139.505 52.5817 139.088 53.071C138.671 53.5603 138.365 54.1647 137.976 54.7403C137.726 54.2223 137.448 53.7042 137.17 53.1574C136.669 53.3876 136.252 53.6179 136.141 54.2223C136.085 54.5676 135.863 54.8842 135.724 55.2008C135.474 54.9418 135.223 54.7115 134.917 54.3949C134.723 54.913 134.5 55.4886 134.306 56.0643C134.278 56.0643 134.25 56.0643 134.222 56.0643V54.0784C134.167 54.0496 134.111 54.0496 134.083 54.0208C133.638 54.8554 133.221 55.6901 132.776 56.5247L132.498 56.4096C132.61 55.7477 132.721 55.0569 132.832 54.2798C132.22 54.913 131.692 55.4311 131.136 56.0067C130.997 55.6901 130.914 55.5174 130.83 55.3159C130.218 55.7477 130.079 56.7838 129.023 56.6399C129.162 54.913 130.441 54.1647 131.497 53.2725C131.47 53.2149 131.47 53.1574 131.47 53.1286C131.275 52.8983 131.08 52.6681 130.886 52.4378C131.136 52.2651 131.386 52.0061 131.664 51.9198C132.026 51.8046 132.471 51.7183 132.832 51.8046C133.499 51.9773 134.028 51.7471 134.612 51.4881C135.752 50.97 136.919 50.4807 138.059 49.9914C138.866 49.6461 139.644 49.3007 139.867 48.2358C139.978 47.7177 140.423 47.286 140.756 46.7392C139.561 46.6528 138.754 47.286 137.92 48.0343C137.976 47.3436 138.81 46.8543 138.198 46.1348C137.197 46.768 136.947 48.207 135.585 48.5236C135.891 47.7465 136.169 47.0558 136.474 46.2499C135.223 46.3938 134.834 47.948 133.527 48.0055C133.694 47.5738 133.805 47.2572 133.916 46.9406C133.889 46.9118 133.861 46.8831 133.833 46.8831C133.472 46.9694 132.943 47.286 132.804 47.1421C132.387 46.7392 132.915 46.4514 133.138 46.1348C134.111 44.8396 135.362 44.005 136.919 43.4869C139.338 42.6522 141.424 41.1556 143.092 39.141C143.231 38.9683 143.314 38.738 143.426 38.5365C143.398 38.3926 143.37 38.3351 143.37 38.2487Z" fill="white"/>
<path d="M15.9968 133.629C15.6076 134.867 15.2183 136.105 14.8012 137.342C14.5788 138.09 14.3564 138.839 14.1061 139.587C13.4944 141.4 12.271 142.408 10.3525 142.465C9.32372 142.494 8.29495 142.897 7.29398 142.321C7.23837 142.292 7.15496 142.292 7.09935 142.321C5.95936 142.753 5.45887 141.89 5.18083 141.084C4.68034 139.558 4.37449 137.947 4.04083 136.364C3.54035 134.004 3.03987 131.643 2.59499 129.283C2.15012 126.779 1.76085 124.247 1.34378 121.743C1.20476 120.879 1.09354 119.987 0.871102 119.152C0.56525 118.001 0.342813 116.85 0.370618 115.641C0.370618 114.087 0.175985 112.533 0.00915687 111.007C-0.0464525 110.403 0.14818 110.029 0.676469 109.943C2.34475 109.683 4.01303 109.396 5.68131 109.309C7.29398 109.194 7.85007 109.741 8.15593 111.353C8.35056 112.418 8.46178 113.483 8.6286 114.547C8.87885 116.073 9.2125 117.598 9.37933 119.124C9.65738 121.513 9.7964 123.93 10.0188 126.319C10.0466 126.549 10.1023 126.808 10.1579 127.038C10.2135 127.038 10.2691 127.067 10.3525 127.067C10.5193 126.722 10.6862 126.405 10.7974 126.06C10.992 125.513 11.131 124.909 11.3535 124.362C11.7983 123.239 12.271 122.117 12.7437 120.994C12.8549 120.735 13.0774 120.505 13.1052 120.217C13.1886 119.095 14.0505 119.009 14.7734 118.951C15.8578 118.865 16.9422 118.893 18.0266 118.922C18.5549 118.951 19.1388 119.037 19.6115 119.268C19.8617 119.383 20.0841 119.786 20.1397 120.073C20.6402 122.059 21.0851 124.045 21.5578 126.06C21.5856 126.175 21.6412 126.29 21.6968 126.492C21.7802 126.377 21.8358 126.319 21.8636 126.261C22.3641 124.132 22.8646 122.002 23.3373 119.872C23.81 117.742 24.1992 115.584 24.7553 113.454C25.0334 112.389 25.506 111.324 26.0065 110.374C26.2012 110 26.7851 109.683 27.2577 109.597C28.787 109.309 30.3441 109.482 31.8455 109.77C32.2348 109.827 32.624 110.374 32.8465 110.806C33.5972 112.216 33.0411 113.569 32.5962 114.922C31.8455 117.138 31.0948 119.354 30.9558 121.772C30.8723 123.326 30.3441 124.851 29.9826 126.377C29.7324 127.441 29.3431 128.478 29.0372 129.514C28.5924 131.01 28.1753 132.536 27.786 134.061C27.647 134.55 27.6748 135.068 27.5358 135.558C27.3968 136.105 27.1743 136.623 26.9519 137.112C26.7573 137.601 26.4792 138.033 26.2846 138.522C26.1177 138.925 26.0343 139.357 25.8953 139.76C25.4226 141.112 24.5051 141.832 23.1148 141.89C23.0592 141.89 23.0036 141.861 22.9758 141.89C22.0305 142.58 21.0295 141.947 20.0563 142.005C18.9997 142.091 18.5827 141.688 18.3324 140.652C18.2768 140.422 18.1934 140.191 18.11 139.961C17.3593 137.889 16.2471 135.932 16.1915 133.629C16.1637 133.658 16.0803 133.629 15.9968 133.629Z" fill="#BF4C0C"/>
<path d="M218.415 141.774C217.275 141.343 216.218 140.969 215.023 141.372C214.578 141.026 214.05 141.084 213.632 141.4C213.327 141.199 213.076 141.055 212.854 140.882C212.771 141.026 212.687 141.199 212.604 141.372C212.381 141.228 212.103 141.112 211.881 140.94C211.714 140.796 211.492 140.594 211.492 140.393C211.436 139.27 211.352 138.148 211.38 137.026C211.436 134.809 211.519 132.564 211.603 130.348C211.631 129.686 211.436 129.456 210.769 129.456C209.907 129.485 209.045 129.456 208.211 129.37C207.654 129.312 207.488 129.542 207.488 130.089C207.46 133.169 207.46 136.277 207.404 139.357C207.376 140.163 207.237 140.969 207.126 141.746C207.098 141.918 206.904 142.149 206.765 142.149C204.679 142.321 202.594 142.494 200.509 142.638C200.036 142.667 199.869 142.35 199.869 141.918C199.869 140.969 199.869 139.99 199.869 139.04C199.841 136.968 199.786 134.867 199.786 132.795C199.786 131.183 199.897 129.6 199.897 127.988C199.897 123.815 199.869 119.642 199.841 115.497C199.841 113.828 199.841 112.13 199.841 110.461C199.841 110.345 199.814 110.202 199.841 110.115C199.953 109.683 200.092 108.906 200.175 108.906C200.787 108.935 201.398 109.137 202.01 109.281C202.01 109.338 202.01 109.424 202.01 109.482C202.149 109.281 202.316 109.079 202.372 109.022C202.9 108.964 203.317 108.935 203.79 108.878C203.79 108.993 203.817 109.194 203.845 109.424C204.624 109.511 205.096 108.129 206.042 108.935C205.847 108.993 205.708 109.05 205.569 109.108C205.625 109.194 205.653 109.309 205.708 109.396C205.958 109.252 206.209 109.079 206.487 108.906C206.598 109.453 206.709 110.058 206.848 110.748C206.959 110.576 207.043 110.432 207.182 110.173C207.265 111.238 207.404 112.216 207.432 113.166C207.46 115.641 207.46 118.116 207.46 120.592C207.46 122.347 207.738 122.635 209.406 122.635C209.629 122.635 209.851 122.405 210.073 122.318C210.379 122.203 210.685 122.059 210.991 122.117C211.714 122.232 211.797 121.858 211.797 121.253C211.77 118.26 211.77 115.267 211.797 112.274C211.797 111.209 211.853 110.173 211.881 109.108C211.881 108.964 211.936 108.849 212.02 108.619C212.52 109.108 212.965 108.791 213.466 108.647C214.133 108.446 214.884 108.417 215.579 108.417C216.357 108.417 217.108 108.561 217.887 108.619C218.415 108.647 218.693 108.906 218.749 109.453C218.888 111.151 219.054 112.821 219.11 114.519C219.221 117.051 219.305 119.584 219.305 122.117C219.305 124.333 219.166 126.578 219.11 128.794C218.971 132.421 218.832 136.076 218.693 139.702C218.609 140.393 218.498 141.055 218.415 141.774Z" fill="#BF4C0C"/>
<path d="M278.612 117.598C278.612 116.418 278.556 115.238 278.612 114.058C278.695 112.619 278.807 111.209 279.001 109.799C279.085 109.165 280.197 108.734 280.781 108.935C281.309 109.108 281.893 109.108 282.449 109.194C283.283 109.338 284.145 109.453 284.951 109.626C285.09 109.655 285.257 109.943 285.285 110.115C285.341 110.835 285.396 111.583 285.396 112.303C285.396 113.799 285.396 115.296 285.341 116.792C285.257 118.807 285.09 120.793 285.007 122.808C284.896 125.398 284.868 127.959 284.757 130.55C284.646 133.773 285.09 137.026 284.507 140.22C284.423 140.738 284.229 141.228 284.062 141.717C284.006 141.861 283.839 142.005 283.728 142.033C282.338 142.235 280.948 142.58 279.557 142.58C278.584 142.58 277.722 142.033 277.444 140.825C276.805 138.177 276.082 135.586 275.387 132.939C275.303 132.593 275.192 132.277 274.997 131.931C274.719 135.414 274.719 138.925 273.83 142.149C273.413 142.033 273.079 141.861 272.717 141.832C271.939 141.803 271.133 141.947 270.382 141.832C269.575 141.688 268.797 141.371 268.046 141.026C267.852 140.94 267.768 140.393 267.768 140.048C267.879 137.342 268.018 134.665 268.157 131.96C268.185 131.298 268.185 130.636 268.213 129.974C268.241 128.967 268.324 127.959 268.296 126.981C268.269 125.686 268.157 124.391 268.157 123.124C268.157 121.8 268.324 120.448 268.352 119.124C268.38 116.735 268.324 114.346 268.296 111.957C268.296 111.583 268.269 111.18 268.296 110.806C268.324 109.856 268.463 109.741 269.353 109.712C270.354 109.683 271.355 109.482 272.356 109.54C273.19 109.568 273.996 109.827 274.803 110C274.97 110.058 275.136 110.288 275.248 110.461C276.666 112.418 277.333 114.749 278.139 117.023C278.223 117.224 278.306 117.397 278.39 117.598C278.445 117.598 278.529 117.598 278.612 117.598Z" fill="#BF4C0C"/>
<path d="M79.1969 114.72C79.1413 114.893 79.0578 115.066 79.03 115.181C79.03 113.742 79.03 112.245 79.03 110.748C79.03 110.029 79.4471 109.712 80.1422 109.54C82.7837 108.935 85.4529 109.194 88.0944 109.108C89.568 109.05 90.9304 109.223 92.2651 109.914C93.1548 110.374 93.8777 111.007 94.2392 111.957C94.9343 113.828 95.6294 115.699 96.1299 117.627C96.3801 118.692 96.2133 119.872 96.2411 120.994C96.2967 124.765 96.408 128.506 96.3523 132.277C96.3245 133.975 96.1021 135.73 95.6016 137.371C94.8231 140.048 92.8212 141.602 90.2631 142.292C89.3456 142.552 88.3446 142.552 87.3714 142.58C85.1193 142.638 82.8949 142.667 80.6427 142.667C79.5861 142.667 79.3637 142.321 79.3359 141.228C79.2803 139.27 79.1691 137.313 79.1134 135.356C79.0856 134.032 79.0856 132.68 79.0856 131.356C79.03 126.895 78.9744 122.462 78.9466 118.001C78.9466 117.483 79.0856 116.965 79.1413 116.447C79.1969 115.871 79.2525 115.325 79.3081 114.749C79.2525 114.749 79.2247 114.72 79.1969 114.72ZM86.0646 134.953C86.8431 134.781 87.4827 134.637 88.1222 134.522C88.5392 134.464 88.7339 134.234 88.7617 133.802C88.8173 132.507 88.9285 131.212 88.9007 129.945C88.8451 127.211 88.7339 124.448 88.6226 121.714C88.5948 120.822 88.3446 119.901 88.4002 119.009C88.4558 118.26 88.3446 117.656 88.0109 117.023C87.6495 116.389 86.8153 115.958 86.2036 116.274C85.9534 116.418 85.8978 117.023 85.8422 117.454C85.7866 117.857 85.8422 118.26 85.87 118.663C85.9256 119.699 86.009 120.735 86.009 121.772C86.0368 123.038 85.9534 124.304 85.9812 125.599C86.009 128.478 86.0646 131.384 86.0924 134.263C86.0924 134.493 86.0646 134.723 86.0646 134.953Z" fill="#BF4C0C"/>
<path d="M128.828 133.716C128.661 135.989 128.495 138.234 128.356 140.508C128.356 140.71 128.356 140.882 128.328 141.084C128.161 142.292 127.994 142.379 126.826 142.35C125.603 142.321 124.379 142.436 123.156 142.436C122.266 142.408 121.71 142.062 121.738 141.17C121.821 139.242 121.988 137.313 122.072 135.385C122.099 134.694 122.072 134.004 122.044 133.313C122.016 130.118 121.988 126.895 121.96 123.7C121.933 122.031 121.821 120.361 121.794 118.692C121.766 117.685 121.849 116.677 121.849 115.67C121.849 114.691 121.794 113.713 121.794 112.734C121.821 111.871 121.877 111.036 121.988 110.202C122.099 109.568 122.739 109.108 123.434 109.079C124.963 109.05 126.493 109.165 127.994 108.993C129.329 108.849 130.608 108.82 131.915 109.022C134.584 109.424 136.169 110.979 136.614 113.713C136.975 115.814 137.197 117.915 137.058 120.073C137.003 121.196 137.031 122.347 137.031 123.498C137.003 125.283 135.946 126.377 134.612 127.24C134.473 127.326 134.334 127.384 134.195 127.47C134.473 128.362 134.806 129.226 135.001 130.118C135.446 131.989 135.918 133.86 136.252 135.759C136.586 137.486 136.753 139.27 137.003 140.997C137.142 141.976 136.808 142.552 135.863 142.58C134.222 142.638 132.554 142.552 130.886 142.465C130.719 142.465 130.441 142.149 130.385 141.918C129.857 139.414 129.051 136.939 128.995 134.32C128.995 134.119 128.912 133.917 128.856 133.716C128.884 133.716 128.856 133.716 128.828 133.716ZM127.633 118.577C127.66 118.577 127.66 118.577 127.633 118.577C127.633 119.268 127.633 119.958 127.66 120.649C127.66 120.994 127.633 121.426 128.161 121.397C128.634 121.34 129.356 121.599 129.496 120.851C129.774 119.325 129.746 117.8 129.329 116.332C129.134 115.612 128.467 115.958 128.022 115.9C127.938 115.9 127.716 116.332 127.688 116.591C127.605 117.224 127.633 117.886 127.633 118.577Z" fill="#BF4C0C"/>
<path d="M260.539 109.424C260.9 109.827 261.317 110.202 261.623 110.662C262.124 111.439 262.624 112.216 263.014 113.051C263.153 113.367 262.958 113.857 262.93 114.288C262.902 114.461 262.847 114.634 262.736 115.008C262.986 114.807 263.069 114.72 263.264 114.576V118.721C263.236 118.721 263.236 118.721 263.208 118.721C263.18 118.548 263.153 118.404 263.097 118.059C263.014 118.289 262.93 118.375 262.958 118.433C263.014 119.613 263.069 120.822 263.18 122.002C263.403 124.132 263.681 126.261 263.319 128.42C263.153 129.485 263.375 130.607 263.292 131.701C263.125 133.975 262.958 136.22 262.652 138.465C262.569 139.069 262.124 139.673 261.679 140.134C261.067 140.796 260.344 141.314 259.649 141.861C258.481 142.782 257.147 142.695 255.784 142.523C255.312 142.465 254.811 142.436 254.339 142.436C251.614 142.379 249.25 141.458 247.943 138.81C247.36 137.63 247.109 136.22 247.054 134.867C246.859 131.528 246.776 128.161 246.776 124.822C246.776 123.239 247.109 121.628 247.193 120.045C247.248 119.095 247.109 118.174 247.081 117.224C247.054 115.641 246.748 114.029 247.665 112.562C247.971 112.072 248.194 111.525 248.5 111.036C249.083 110.144 249.834 109.482 250.946 109.281C251.447 109.194 251.919 108.964 252.392 108.849C252.67 108.791 253.004 108.878 253.31 108.906C253.393 108.906 253.504 108.906 253.56 108.849C254.033 108.619 254.561 108.849 255.034 108.705C256.424 108.273 257.758 108.878 259.121 108.906C259.455 108.906 259.76 109.252 260.094 109.396C260.261 109.511 260.428 109.424 260.539 109.424ZM253.504 125.686H253.671C253.671 128.852 253.671 131.989 253.671 135.155C253.671 135.846 254.06 136.162 254.839 136.306C255.451 136.421 256.035 136.421 256.174 135.615C256.424 134.205 256.758 132.795 256.785 131.384C256.841 128.794 256.702 126.233 256.618 123.642C256.591 122.549 256.507 121.455 256.507 120.361C256.507 119.44 256.591 118.548 256.618 117.627C256.646 116.936 256.09 116.303 255.534 116.274C254.922 116.246 254.255 116.994 254.227 117.627C254.172 118.491 254.088 119.383 253.977 120.246C253.866 121.167 253.616 122.059 253.532 122.952C253.449 123.844 253.504 124.765 253.504 125.686ZM260.817 113.799C261.178 112.878 261.039 112.504 260.483 112.303C260.595 112.821 260.706 113.31 260.817 113.799Z" fill="#BF4C0C"/>
<path d="M41.1601 109.165C42.2445 109.165 43.3288 109.137 44.441 109.165C44.9693 109.165 45.4698 109.281 45.9981 109.367C46.1093 109.396 46.2483 109.511 46.3039 109.626C47.0547 110.892 47.8054 112.187 48.139 113.655C48.9454 117.253 49.7517 120.851 50.5024 124.477C50.7249 125.513 50.6971 126.578 50.9195 127.614C51.3366 129.744 51.8649 131.874 52.3097 134.004C52.699 135.903 53.0049 137.803 53.3107 139.702C53.3941 140.249 53.3941 140.853 53.3107 141.429C53.1995 142.149 52.7824 142.35 52.0873 142.062C51.6146 141.861 51.1698 141.803 50.8083 142.264C50.7527 142.321 50.6971 142.379 50.6415 142.379C49.3624 142.235 48.0556 142.983 46.8044 142.264C46.6098 142.149 46.4152 141.861 46.3595 141.602C46.0815 140.163 45.8313 138.695 45.6366 137.227C45.442 135.759 45.4698 135.759 44.0796 135.702C42.9396 135.644 41.7718 135.529 40.6318 135.414C40.1591 135.356 39.9089 135.443 39.7698 135.961C39.3528 137.63 38.8801 139.27 38.4352 140.911C38.185 141.803 37.6567 142.12 36.7391 142.091C35.5991 142.062 34.4591 142.177 33.347 142.235C32.8187 142.264 32.2626 142.379 31.7621 142.264C31.484 142.177 31.1226 141.631 31.1782 141.343C31.3172 140.479 31.6509 139.673 31.8733 138.81C32.1514 137.774 32.3738 136.767 32.624 135.73C32.6518 135.587 32.5962 135.443 32.6518 135.299C33.0967 134.061 33.5694 132.795 34.0143 131.557C34.0699 131.413 34.1811 131.212 34.1533 131.097C33.8752 130.176 34.4869 129.456 34.6816 128.65C35.0708 126.895 35.4045 125.11 35.7938 123.355C36.183 121.628 36.6001 119.93 37.045 118.203C37.2396 117.426 37.6567 116.649 37.6845 115.871C37.7679 114.116 38.9357 112.792 39.2972 111.151C39.3528 110.864 39.4918 110.633 39.603 110.345C39.8532 109.252 39.9645 109.165 41.1601 109.165ZM41.5771 129.111C42.1054 129.111 42.6337 129.111 43.162 129.111C44.4132 129.111 44.4688 129.082 44.2186 127.758C44.2186 127.7 44.1908 127.672 44.1908 127.614C43.9405 126.002 43.6903 124.419 43.4401 122.808C43.4122 122.549 43.301 122.318 43.1898 121.915C42.6059 124.362 42.1054 126.578 41.5771 128.794C41.5771 128.88 41.5771 128.938 41.5771 129.111Z" fill="#BF4C0C"/>
<path d="M164.057 109.165C165.419 109.165 166.504 109.137 167.56 109.165C168.088 109.165 168.589 109.252 169.117 109.338C169.228 109.367 169.367 109.482 169.423 109.597C170.007 110.748 170.73 111.813 171.119 113.08C172.343 116.994 172.954 121.052 173.649 125.11C173.872 126.463 174.233 127.816 174.511 129.168C175.095 132.162 175.651 135.155 176.18 138.177C176.346 139.213 176.458 140.249 176.402 141.285C176.374 142.177 175.929 142.321 175.095 142.062C174.762 141.976 174.317 142.149 173.955 142.206C173.844 142.235 173.761 142.408 173.677 142.408C172.537 142.408 171.369 142.436 170.229 142.379C169.757 142.379 169.506 142.033 169.451 141.544C169.201 139.99 168.923 138.436 168.7 136.882C168.533 135.788 168.561 135.788 167.477 135.702C166.198 135.615 164.946 135.529 163.667 135.385C163.223 135.356 163 135.443 162.889 135.932C162.472 137.601 161.999 139.242 161.554 140.882C161.304 141.774 160.748 142.091 159.858 142.062C158.718 142.033 157.578 142.149 156.466 142.206C155.938 142.235 155.409 142.292 154.881 142.264C154.353 142.206 154.186 141.717 154.269 141.314C154.436 140.451 154.714 139.645 154.965 138.81C155.243 137.86 155.521 136.91 155.771 135.932C155.882 135.529 155.91 135.097 156.049 134.723C156.438 133.543 157.078 132.421 157.217 131.212C157.523 128.794 158.385 126.549 158.746 124.16C159.08 122.059 159.719 119.987 160.22 117.886C160.414 117.023 160.581 116.13 160.748 115.267C160.776 115.094 160.831 114.95 160.887 114.807C161.527 113.166 162.166 111.525 162.806 109.885C163.056 109.108 163.723 109.165 164.057 109.165ZM166.476 122.088C166.42 122.088 166.337 122.088 166.281 122.088C165.781 124.391 165.308 126.693 164.78 129.111C165.252 129.111 165.725 129.111 166.198 129.111C167.56 129.111 167.644 128.996 167.365 127.585C167.338 127.528 167.31 127.441 167.31 127.384C167.115 126.175 166.893 124.995 166.698 123.786C166.615 123.239 166.531 122.664 166.476 122.088Z" fill="#BF4C0C"/>
<path d="M67.074 134.752C69.0204 134.752 70.9389 134.723 72.8852 134.781C73.5247 134.781 74.1364 134.982 74.7759 135.097C74.8593 135.126 74.9705 135.184 75.0262 135.184C75.9159 134.925 76.0271 135.558 76.194 136.22C76.5276 137.486 76.611 138.695 76.2496 139.961C76.0827 140.566 76.0549 141.228 75.8881 141.861C75.8603 142.033 75.6379 142.292 75.471 142.321C74.2476 142.465 73.0242 142.667 71.8286 142.638C67.6301 142.552 63.4038 142.408 59.2053 142.264C58.538 142.235 57.8985 142.062 57.259 141.861C57.0921 141.803 56.9531 141.4 56.9253 141.141C56.8141 138.896 56.6473 136.651 56.6473 134.406C56.6473 131.183 56.7863 127.959 56.7863 124.736C56.7863 122.693 56.6473 120.678 56.6195 118.634C56.6195 117.944 56.7307 117.253 56.7307 116.562C56.7307 115.44 56.7029 114.317 56.7029 113.195C56.7029 112.274 56.7029 111.324 56.7863 110.403C56.8141 110.173 57.0921 109.827 57.3146 109.77C59.2053 109.165 61.1794 109.309 63.1536 109.309C63.7375 109.309 64.0433 109.54 64.1545 110.23C64.4048 111.669 64.2936 113.08 64.2936 114.519C64.2936 116.908 63.9599 119.325 64.377 121.743C64.6272 123.211 64.516 124.736 64.4882 126.261C64.4326 128.679 64.3214 131.097 64.2379 133.514C64.2101 134.579 64.5716 134.953 65.6004 134.953C66.0731 134.953 66.5735 134.953 67.0462 134.953C67.074 134.867 67.074 134.809 67.074 134.752Z" fill="#BF4C0C"/>
<path d="M229.147 109.309C229.87 109.309 230.593 109.309 231.288 109.309C231.761 109.309 232.067 109.511 232.178 110.086C232.456 111.497 232.373 112.878 232.373 114.288C232.373 116.591 232.095 118.893 232.373 121.225C232.651 123.498 232.484 125.858 232.456 128.19C232.428 129.974 232.317 131.73 232.289 133.485C232.262 134.493 232.651 134.896 233.624 134.896C234.931 134.867 236.21 134.809 237.517 134.781C238.935 134.752 240.325 134.723 241.743 134.781C242.438 134.809 243.133 135.04 243.801 135.184C243.912 135.212 244.051 135.356 244.079 135.471C244.412 136.795 244.774 138.09 244.44 139.501C244.245 140.278 244.162 141.084 243.995 141.89C243.967 142.062 243.773 142.292 243.661 142.321C242.382 142.465 241.076 142.667 239.797 142.638C237.266 142.609 234.708 142.436 232.178 142.321C230.844 142.264 229.481 142.321 228.146 142.264C227.229 142.206 226.311 142.062 225.422 141.861C225.255 141.832 225.06 141.4 225.032 141.141C224.949 139.645 224.921 138.119 224.866 136.623C224.81 135.443 224.699 134.291 224.643 133.111C224.615 132.593 224.587 132.046 224.615 131.528C224.921 127.384 225.06 123.211 224.754 119.066C224.699 118.289 224.838 117.483 224.838 116.706C224.838 115.497 224.81 114.288 224.81 113.051C224.81 112.187 224.81 111.324 224.893 110.489C224.921 110.23 225.227 109.856 225.449 109.799C226.673 109.54 227.924 109.396 229.175 109.194C229.12 109.223 229.12 109.281 229.147 109.309Z" fill="#BF4C0C"/>
<path d="M189.637 109.309C191.111 109.309 192.612 109.309 194.086 109.309C194.336 109.309 194.586 109.309 194.836 109.367C195.726 109.54 195.837 109.655 195.81 110.604C195.754 111.583 195.671 112.533 195.615 113.511C195.587 113.972 195.782 114.461 195.698 114.893C195.643 115.181 195.365 115.555 195.087 115.67C194.67 115.843 194.197 115.871 193.724 115.871C192.417 115.929 191.138 115.987 189.832 115.987C189.331 115.987 189.192 116.246 189.192 116.706C189.248 117.8 189.359 118.922 189.303 120.016C189.22 123.182 189.053 126.377 188.942 129.542C188.914 130.435 188.998 131.298 188.998 132.19C188.998 135.212 189.025 138.263 188.998 141.285C188.998 142.149 188.692 142.494 187.857 142.523C186.384 142.58 184.91 142.523 183.437 142.436C182.825 142.408 182.436 142.062 182.436 141.343C182.436 139.386 182.38 137.428 182.408 135.471C182.436 132.075 182.519 128.679 182.519 125.283C182.519 123.412 182.297 121.513 182.269 119.642C182.241 118.721 182.324 117.771 182.463 116.85C182.575 116.188 182.38 115.987 181.74 116.015C180.851 116.073 179.989 116.044 179.099 116.044C177.208 116.044 176.68 115.555 176.569 113.655C176.513 112.677 176.624 111.698 176.736 110.72C176.819 110.029 177.32 109.799 177.931 109.77C181.824 109.568 185.689 109.367 189.581 109.194C189.609 109.223 189.637 109.281 189.637 109.309Z" fill="#BF4C0C"/>
<path d="M112.09 109.309C113.563 109.309 115.065 109.309 116.539 109.309C116.761 109.309 117.011 109.338 117.234 109.338C117.957 109.396 118.29 109.741 118.207 110.547C118.096 111.497 118.096 112.446 118.04 113.396C118.04 113.655 118.068 113.943 118.151 114.202C118.374 114.95 118.068 115.612 117.317 115.699C116.177 115.843 115.009 115.871 113.869 115.929C113.341 115.958 112.813 115.987 112.284 115.987C111.84 115.987 111.645 116.13 111.645 116.591C111.701 117.57 111.756 118.548 111.728 119.527C111.728 120.966 111.673 122.405 111.589 123.815C111.478 126.06 111.256 128.305 111.256 130.55C111.256 132.766 111.534 134.982 111.562 137.198C111.589 138.695 111.45 140.191 111.311 141.688C111.283 141.947 110.922 142.235 110.644 142.408C110.422 142.552 110.116 142.552 109.838 142.552C108.559 142.523 107.307 142.523 106.028 142.436C105.055 142.35 104.861 142.12 104.861 141.141C104.861 138.321 104.944 135.5 104.944 132.68C104.944 130.924 104.944 129.197 104.916 127.441C104.916 126.405 104.861 125.398 104.833 124.362C104.777 122.203 104.722 120.073 104.694 117.915C104.694 117.541 104.749 117.167 104.833 116.792C104.944 116.188 104.805 115.929 104.138 115.958C103.164 116.015 102.191 116.015 101.218 115.987C99.6889 115.958 99.1606 115.584 99.0216 114.029C98.9104 112.878 99.0494 111.698 99.1606 110.547C99.2162 109.914 99.7723 109.77 100.301 109.741C104.193 109.54 108.114 109.338 112.006 109.165C112.09 109.223 112.09 109.281 112.09 109.309Z" fill="#BF4C0C"/>
<path d="M146.957 142.695C146.262 142.609 145.594 142.523 144.927 142.465C144.343 142.408 143.759 142.465 143.203 142.35C143.009 142.321 142.703 141.947 142.703 141.717C142.703 140.278 142.758 138.81 142.786 137.371C142.786 136.795 142.703 136.191 142.675 135.615C142.647 134.867 142.619 134.147 142.592 133.399C142.48 130.838 142.313 128.276 142.313 125.715C142.313 122.75 142.452 119.786 142.564 116.821C142.647 114.835 142.758 112.849 142.842 110.892C142.897 109.597 143.62 108.849 144.872 108.762C145.038 108.762 145.205 108.734 145.344 108.762C146.401 108.906 147.43 109.108 148.486 109.194C148.875 109.223 148.987 109.396 149.098 109.712C149.737 111.295 149.765 112.936 149.682 114.634C149.626 115.929 149.849 117.253 149.904 118.548C149.932 119.613 149.849 120.678 149.821 121.743C149.793 122.376 149.487 123.124 149.682 123.642C150.46 125.456 149.988 127.326 150.071 129.14C150.238 132.91 150.154 136.709 150.154 140.479C150.154 140.997 149.988 141.515 149.793 142.005C149.71 142.206 149.404 142.408 149.181 142.436C148.403 142.58 147.68 142.609 146.957 142.695Z" fill="#BF4C0C"/>
<path d="M142.758 16.0585C142.063 16.1161 141.396 16.1448 140.673 16.2024C140.645 15.9434 140.617 15.7131 140.59 15.4829C140.451 13.2379 140.312 10.993 140.145 8.74809C140.145 8.60418 140.117 8.46028 140.089 8.31637C139.95 7.74075 139.616 7.39538 139.005 7.45294C138.365 7.5105 138.087 7.91344 138.115 8.51784C138.143 9.84177 138.254 11.1369 138.31 12.4609C138.393 13.7272 138.476 14.9936 138.56 16.3175C137.837 16.3751 137.197 16.4326 136.447 16.4902C136.335 15.0799 136.252 13.6984 136.169 12.3457C136.113 11.3096 136.057 10.3023 135.974 9.26615C135.974 9.09346 135.946 8.92077 135.918 8.77687C135.779 8.02856 135.446 7.74075 134.806 7.76953C134.111 7.82709 133.889 8.28759 133.916 8.89199C133.972 10.3886 134.083 11.914 134.167 13.4106C134.222 14.4468 134.306 15.5117 134.389 16.6341C133.694 16.6917 133.055 16.7492 132.248 16.8068C131.998 13.1804 131.775 9.61152 131.525 5.92754C132.248 5.86998 132.915 5.81241 133.638 5.72607C133.666 6.04266 133.694 6.30169 133.75 6.56072C135.557 5.09289 136.057 5.06411 137.559 6.24413C138.143 5.89876 138.671 5.46704 139.255 5.29435C140.756 4.86264 141.98 5.66851 142.174 7.25147C142.397 8.92078 142.452 10.6476 142.564 12.3169C142.619 13.5545 142.675 14.7921 142.758 16.0585Z" fill="white"/>
<path d="M102.219 28.1178C102.803 27.83 103.415 27.5134 103.971 27.2256C104.304 27.427 104.583 27.6573 104.888 27.7436C105.639 27.9163 106.279 27.168 106.001 26.4197C105.75 25.7289 105.417 25.067 105.083 24.3762C104.861 24.808 104.694 25.2109 104.444 25.5275C103.443 26.7939 101.885 26.7363 100.968 25.4124C100.662 24.9806 100.412 24.4626 100.189 23.9733C99.4387 22.3903 98.6879 20.7786 97.9928 19.1956C97.6036 18.3034 97.5201 17.4112 98.1875 16.6341C98.8826 15.857 99.7723 15.598 100.773 15.9722C100.857 16.0009 100.94 16.0009 101.107 16.0297C101.024 15.7707 100.94 15.5404 100.829 15.2814C101.441 14.9648 102.052 14.6482 102.72 14.3316C103.443 15.8858 104.138 17.3824 104.833 18.879C105.834 21.0376 106.863 23.1674 107.863 25.326C108.67 27.1104 108.03 28.8949 106.334 29.7007C104.777 30.4491 103.053 29.8159 102.219 28.1178ZM104.249 22.9372C104.165 22.563 104.165 22.3903 104.082 22.2464C103.47 20.9225 102.859 19.5698 102.219 18.2746C101.885 17.5839 101.274 17.3536 100.745 17.6702C100.245 17.958 100.106 18.5049 100.412 19.2244C100.745 20.0303 101.135 20.8074 101.524 21.6133C101.83 22.2177 102.08 22.8796 102.469 23.4265C102.636 23.6567 103.192 23.8294 103.47 23.7431C103.776 23.5991 104.026 23.1674 104.249 22.9372Z" fill="white"/>
<path d="M211.658 30.19C210.63 32.1471 209.601 34.0179 208.6 35.8887C208.628 35.9175 208.655 35.9462 208.683 35.975C210.296 34.5648 211.881 33.1833 213.521 31.7442C214.105 32.2047 214.633 32.6652 215.301 33.212C212.409 35.5433 209.601 37.817 206.737 40.1195C206.236 39.7166 205.764 39.3136 205.263 38.8819C206.209 37.0399 207.154 35.1979 208.099 33.3847L207.988 33.2984C206.487 34.6223 204.985 35.975 203.428 37.3565C202.955 36.9536 202.483 36.5794 201.954 36.1477C203.512 32.7515 205.069 29.3842 206.626 25.988C207.237 26.506 207.821 26.9953 208.405 27.4558C207.404 29.4129 206.459 31.3125 205.486 33.212C205.514 33.2408 205.541 33.2696 205.597 33.3272C207.154 31.9169 208.739 30.5354 210.352 29.0676C210.769 29.4705 211.186 29.8159 211.658 30.19Z" fill="white"/>
<path d="M175.484 9.72665C176.235 10.0145 176.902 10.2735 177.598 10.5325C177.264 12.7199 176.93 14.8785 176.624 17.0371L176.736 17.0658C177.625 15.4829 178.515 13.8999 179.433 12.3169C180.072 11.2233 179.766 11.3384 180.934 11.7701C181.101 11.8277 181.268 11.914 181.518 12.0004C181.157 14.1302 180.767 16.26 180.406 18.361L180.545 18.4185C181.24 17.2385 181.935 16.0585 182.63 14.8785C182.714 14.7346 182.797 14.5907 182.881 14.4468C183.937 12.6335 184.02 12.6048 185.911 13.7272C183.937 16.8068 181.963 19.9152 179.961 23.0523C179.377 22.8221 178.821 22.6206 178.182 22.3903C178.515 20.3181 178.849 18.2746 179.182 16.2312C179.155 16.2024 179.099 16.2024 179.071 16.1736C178.042 17.958 177.014 19.7425 175.985 21.5557C175.401 21.3254 174.845 21.124 174.205 20.8937C174.623 17.2097 175.067 13.5258 175.484 9.72665Z" fill="white"/>
<path d="M231.511 44.8108C231.984 45.3865 232.401 45.9333 232.873 46.5089C229.064 49.7612 225.283 53.0135 221.446 56.2945C220.973 55.7189 220.556 55.172 220.083 54.5964C220.278 54.3949 220.445 54.251 220.528 54.1647C219.944 53.8481 219.277 53.6179 218.804 53.1861C217.887 52.2939 217.887 51.1715 218.749 50.1929C219.249 49.6173 219.833 49.1568 220.389 48.6675C221.529 47.6889 222.669 46.7104 223.837 45.7606C224.587 45.1274 225.422 44.8108 226.339 45.3289C227.229 45.847 227.674 46.6816 227.563 47.7753C227.563 47.8616 227.563 47.948 227.59 48.1494C228.925 46.9982 230.176 45.9333 231.511 44.8108ZM225.422 47.6314C225.116 47.7465 224.893 47.7465 224.782 47.8616C223.531 48.9265 222.28 49.9627 221.056 51.0851C220.667 51.4305 220.611 51.9198 220.973 52.3803C221.362 52.8695 221.89 52.9559 222.335 52.5817C223.587 51.5744 224.81 50.5671 225.978 49.4734C226.2 49.2719 226.228 48.6963 226.145 48.3797C226.033 48.0631 225.644 47.8616 225.422 47.6314Z" fill="white"/>
<path d="M156.244 5.81241C155.521 5.75485 154.853 5.72607 154.242 5.66851C154.158 5.12167 154.158 4.66117 154.047 4.22945C153.88 3.50992 153.38 3.22211 152.712 3.22211C152.073 3.22211 151.628 3.56749 151.406 4.20067C150.877 5.72607 151.211 6.64707 152.629 7.33781C153.157 7.59684 153.686 7.85587 154.186 8.1149C155.243 8.66175 155.882 9.55396 155.854 10.7915C155.827 11.914 155.799 13.0653 155.521 14.1302C155.048 16.0009 153.574 16.8068 151.517 16.519C149.904 16.2887 148.597 14.8497 148.514 13.1516C148.486 12.7487 148.542 12.3457 148.57 11.8565C149.292 11.8852 149.988 11.9428 150.683 11.9716C150.683 12.2594 150.683 12.4609 150.683 12.6335C150.655 13.6409 151.155 14.2741 152.073 14.3316C153.074 14.3892 153.547 13.9575 153.658 12.8926C153.936 10.4174 153.936 10.3886 151.711 9.32371C150.516 8.74809 149.404 8.05734 149.209 6.50316C148.987 4.83386 149.126 3.25089 150.321 1.95574C151.267 0.948405 152.907 0.689375 154.269 1.265C155.604 1.8694 156.41 3.16455 156.383 4.66117C156.327 5.06411 156.271 5.3807 156.244 5.81241Z" fill="white"/>
<path d="M169.145 8.97834C169.673 8.77687 170.09 8.54662 170.535 8.48906C172.148 8.31637 173.26 9.66908 172.871 11.3672C172.315 13.8423 171.675 16.2887 171.064 18.7351C170.98 19.0805 170.897 19.4259 170.785 19.8288C170.09 19.6561 169.451 19.4834 168.728 19.282C169.089 17.7854 169.451 16.3175 169.812 14.8785C170.035 13.9575 170.285 13.0365 170.507 12.0867C170.563 11.914 170.591 11.7125 170.591 11.5111C170.619 10.9067 170.341 10.5613 169.784 10.4174C169.228 10.2735 168.839 10.5325 168.7 11.0506C168.422 11.9428 168.2 12.835 167.977 13.7272C167.56 15.3677 167.171 17.0083 166.726 18.7351C166.031 18.5625 165.391 18.3898 164.641 18.1883C165.864 13.2379 167.087 8.31637 168.311 3.33724C169.006 3.50992 169.645 3.68261 170.396 3.88408C169.979 5.61095 169.562 7.30903 169.145 8.97834Z" fill="white"/>
<path d="M214.244 36.8672C215.746 35.457 217.497 35.457 218.804 36.7233C220.111 37.9897 220.361 39.8029 219.138 41.1269C217.33 43.084 215.356 44.8396 213.466 46.7104C213.188 46.4226 212.715 45.9045 212.214 45.3577C212.326 45.2138 212.52 44.9835 212.687 44.8108C212.159 44.6957 211.603 44.6957 211.13 44.4942C209.879 43.8898 209.434 42.3069 210.24 41.1556C210.796 40.3785 211.519 39.7166 212.27 39.1697C213.049 38.5941 213.966 38.7092 214.745 39.2561C215.356 39.7166 215.912 40.2634 216.524 40.8103C216.802 40.4937 217.191 40.1771 217.386 39.7741C217.553 39.4575 217.636 38.9107 217.47 38.6805C217.219 38.3639 216.635 37.9897 216.357 38.0761C215.69 38.3063 215.384 37.9897 215.023 37.5868C214.856 37.3277 214.55 37.1263 214.244 36.8672ZM215.245 42.1342C214.411 40.7527 213.188 40.6664 212.465 41.8464C212.159 42.3357 212.131 42.8249 212.548 43.2854C212.993 43.7459 213.493 43.8035 213.966 43.4006C214.439 42.9976 214.828 42.5371 215.245 42.1342Z" fill="white"/>
<path d="M74.6925 39.8605C74.4423 39.6015 74.1642 39.3136 73.8584 39.0546C73.4969 38.738 73.052 38.479 72.6628 38.8531C72.3569 39.141 71.9955 39.7166 72.0789 40.0332C72.3013 40.7815 71.912 41.1269 71.495 41.5298C71.2725 41.7313 71.1057 42.0191 70.8833 42.3357C69.9657 41.2708 69.6321 40.2346 69.9657 38.997C70.6052 36.637 73.2467 35.6297 75.0262 37.2414C77.0003 39.0258 78.8076 40.9829 80.6705 42.8537C80.1144 43.4006 79.6417 43.8898 79.1134 44.3791C78.9744 44.264 78.7798 44.0625 78.4739 43.7747C78.4739 44.0913 78.4739 44.264 78.4739 44.4655C78.4739 46.2499 76.6388 47.4587 75.2208 46.4801C74.3588 45.8757 73.6359 44.9547 72.9964 44.0625C72.4959 43.343 72.6628 42.4796 73.1632 41.76C73.6081 41.1268 74.1364 40.5512 74.6925 39.8605ZM75.9715 41.1844C74.6369 42.2781 74.6091 43.4006 75.7769 44.1201C76.2774 44.4079 76.7501 44.4079 77.1671 43.9474C77.5564 43.4869 77.612 42.9976 77.2227 42.5371C76.8613 42.0766 76.4164 41.6449 75.9715 41.1844Z" fill="white"/>
<path d="M189.47 20.3757C189.637 19.5986 190.582 18.879 189.72 17.9868C189.248 17.4975 188.664 17.6127 187.885 18.2459C187.301 17.958 186.718 17.6702 186.106 17.3536C186.857 15.6556 188.636 14.9936 190.277 15.7419C192.056 16.5478 192.751 18.2746 191.945 20.1166C191.166 21.9298 190.304 23.7143 189.47 25.4987C189.22 26.0455 188.97 26.5636 188.664 27.1968C188.024 26.8802 187.385 26.5636 186.745 26.247C186.884 25.9304 186.996 25.6714 187.135 25.326C186.884 25.4124 186.69 25.4699 186.495 25.5563C185.605 25.8729 184.855 25.6138 184.187 25.0094C183.576 24.4338 183.325 23.6279 183.603 22.8508C183.937 21.9298 184.382 21.0088 184.938 20.203C185.494 19.3683 186.412 19.2244 187.301 19.4834C187.997 19.7137 188.664 20.0591 189.47 20.3757ZM188.664 22.0737C187.385 21.0952 186.384 21.3254 185.967 22.6206C185.744 23.2826 185.939 23.8006 186.467 24.0884C186.996 24.3762 187.552 24.2323 187.885 23.6279C188.163 23.1386 188.386 22.6206 188.664 22.0737Z" fill="white"/>
<path d="M86.5373 37.6156C85.9812 38.1048 85.4529 38.5365 84.869 39.0258C82.6725 36.2053 80.4759 33.3847 78.2237 30.5066C78.7798 30.0461 79.3081 29.6144 79.9754 29.0388C80.1144 29.3266 80.2534 29.5568 80.3925 29.7871C80.6149 29.1539 80.6983 28.5783 80.9764 28.1753C81.7827 26.9665 83.2285 26.8226 84.2851 27.83C84.73 28.2617 85.0914 28.751 85.4529 29.2402C86.7597 30.9096 88.0666 32.5789 89.3734 34.2769C89.5124 34.4496 89.6514 34.6511 89.8183 34.8813C89.2622 35.3418 88.7617 35.7736 88.1778 36.2628C87.5105 35.4282 86.871 34.6223 86.2593 33.8164C85.3973 32.694 84.5354 31.5715 83.6456 30.4778C83.312 30.0461 82.9227 29.6432 82.2832 29.9022C81.5325 30.2476 81.3934 30.9096 81.9495 31.6866C82.6725 32.694 83.4788 33.6725 84.2573 34.6511C84.9802 35.6297 85.731 36.5794 86.5373 37.6156Z" fill="white"/>
<path d="M98.1875 29.1539C96.964 27.0817 95.8241 25.067 94.6563 23.0523C94.5172 22.7933 94.3782 22.563 94.1836 22.3328C93.8221 21.9011 93.3773 21.8147 92.8768 22.1313C92.3763 22.4479 92.2651 22.9084 92.5153 23.4265C92.8212 24.0309 93.1548 24.6065 93.4607 25.1821C94.406 26.8514 95.3792 28.4919 96.3801 30.2476C95.7684 30.6217 95.2123 30.9959 94.545 31.4276C92.7377 28.3193 90.9304 25.2109 89.0953 22.045C89.707 21.6708 90.2909 21.2967 90.9026 20.9225C91.0695 21.1528 91.2363 21.383 91.3475 21.5557C91.6255 21.0376 91.8202 20.4332 92.2094 20.0303C93.3216 18.879 94.8509 19.2244 95.7684 20.7498C96.9084 22.6782 98.0206 24.6065 99.1328 26.5348C99.4109 27.0241 99.6889 27.5134 99.9948 28.0314C99.4109 28.3768 98.8548 28.7222 98.1875 29.1539Z" fill="white"/>
<path d="M122.544 18.7351C121.821 18.9366 121.182 19.1381 120.487 19.3395C120.042 17.7566 119.597 16.2024 119.18 14.6482C118.93 13.7848 118.735 12.9501 118.485 12.0867C118.262 11.2808 117.79 10.9642 117.178 11.1369C116.511 11.3096 116.288 11.8277 116.511 12.6911C117.15 15.0799 117.818 17.4688 118.485 19.9439C117.818 20.1454 117.15 20.3469 116.427 20.5771C115.454 17.0658 114.481 13.5833 113.508 10.072C114.231 9.87055 114.87 9.66908 115.51 9.4964C115.621 9.78421 115.732 10.0145 115.816 10.2447C116.149 9.84177 116.455 9.35249 116.844 9.06468C118.207 8.1149 119.736 8.80565 120.264 10.6189C120.848 12.6048 121.377 14.6194 121.933 16.6053C122.155 17.2673 122.322 17.9293 122.544 18.7351Z" fill="white"/>
<path d="M113.313 16.7492C111.951 17.2673 110.7 17.7566 109.365 18.2746C109.587 18.8503 109.699 19.4259 110.004 19.8576C110.171 20.1166 110.644 20.2893 110.978 20.2893C111.422 20.2893 111.84 19.9727 111.784 19.4259C111.728 18.9366 111.979 18.7639 112.368 18.6488C112.813 18.5049 113.23 18.3322 113.675 18.1595C114.286 19.1381 114.092 20.5483 113.202 21.4981C111.589 23.2826 108.92 22.9084 107.975 20.6923C107.28 19.0805 106.724 17.4112 106.223 15.7131C105.695 13.9575 106.473 12.5184 108.114 11.8852C109.726 11.252 111.311 11.8277 112.034 13.4106C112.535 14.4755 112.868 15.598 113.313 16.7492ZM110.7 15.8858C110.505 15.3677 110.338 14.8497 110.116 14.418C109.865 13.8999 109.393 13.756 108.864 13.9863C108.364 14.2165 108.114 14.6194 108.281 15.1951C108.42 15.6556 108.586 16.1161 108.781 16.6341C109.448 16.3751 110.032 16.1448 110.7 15.8858Z" fill="white"/>
<path d="M61.235 45.3001C64.5716 48.0055 67.9082 50.711 71.3003 53.474C70.8555 54.0496 70.4384 54.5964 69.9657 55.2296C66.6013 52.4954 63.2648 49.79 59.9004 47.0558C59.3721 47.7177 58.8994 48.3509 58.3712 49.0417C57.8429 48.6099 57.3424 48.207 56.7863 47.7465C58.2321 45.8182 59.678 43.9474 61.1516 41.9903C61.6799 42.422 62.1804 42.8249 62.7365 43.2854C62.2082 43.9762 61.7355 44.6094 61.235 45.3001Z" fill="white"/>
<path d="M163.89 14.8209C163.779 16.4902 162.444 17.699 160.859 17.6702C159.052 17.6127 157.662 16.4326 157.689 14.7633C157.717 13.3531 157.967 11.9716 158.162 10.5613C158.246 9.98568 158.329 9.41006 158.468 8.86321C158.913 7.16513 160.22 6.27291 161.86 6.50316C163.612 6.76219 164.668 7.971 164.668 9.75543C164.668 9.9569 164.641 10.1871 164.613 10.475C163.973 10.3886 163.389 10.3311 162.806 10.2159C162.667 10.1871 162.527 9.92812 162.5 9.75543C162.444 9.09346 162.055 8.74809 161.471 8.71931C160.859 8.69053 160.553 9.12224 160.47 9.69787C160.247 11.1945 160.025 12.7199 159.803 14.2453C159.719 14.7921 159.969 15.1951 160.47 15.339C160.943 15.4829 161.415 15.4541 161.638 14.9072C161.805 14.5043 162.055 14.4755 162.416 14.5331C162.917 14.677 163.417 14.7346 163.89 14.8209Z" fill="white"/>
<path d="M205.513 25.2684C205.041 26.247 204.429 26.909 203.512 27.3983C201.649 28.4056 199.841 29.4993 197.895 30.6217C198.84 31.2837 199.73 31.9457 200.703 32.6364C200.342 33.212 199.98 33.7301 199.591 34.3633C197.978 33.212 196.366 32.0896 194.753 30.9671C195.226 30.1037 195.726 29.4129 196.588 28.9524C198.535 27.8875 200.425 26.7363 202.427 25.5563C201.537 24.9231 200.731 24.3187 199.841 23.6855C200.203 23.1386 200.564 22.6206 200.898 22.0737C202.483 23.1099 203.984 24.1748 205.513 25.2684Z" fill="white"/>
<path d="M225.533 37.6731C226.033 38.22 226.478 38.7668 226.979 39.3136C225.088 41.1269 223.225 42.9113 221.362 44.6957C220.417 45.6167 219.471 46.5377 218.498 47.4011C217.942 47.9192 217.553 48.4373 218.165 49.1856C217.664 49.6461 217.219 50.1066 216.774 50.5383C215.217 49.4158 215.134 47.6314 216.58 46.2211C218.276 44.5518 220 42.9401 221.724 41.2995C222.975 40.1195 224.254 38.9107 225.533 37.6731Z" fill="white"/>
<path d="M73.9974 50.1929C73.4969 50.7685 73.0798 51.2866 72.5794 51.8622C69.9101 49.4446 67.2687 47.0845 64.5994 44.6669C65.0999 44.0913 65.5448 43.5445 65.9896 42.9976C66.2677 43.2279 66.4901 43.4006 66.8238 43.6596C66.9072 42.5659 66.935 41.5298 67.7969 40.7527C68.353 41.242 68.8813 41.7313 69.3262 42.1342C69.0203 42.681 68.6311 43.1127 68.4643 43.6308C68.1584 44.6094 68.6311 45.3865 69.354 46.0196C70.6052 47.1421 71.8564 48.2646 73.1076 49.4158C73.4135 49.6748 73.6637 49.9051 73.9974 50.1929Z" fill="white"/>
<path d="M195.254 18.5912C195.893 18.9654 196.477 19.3108 197.089 19.6561C196.95 19.9727 196.838 20.2318 196.699 20.5771C197.7 20.5771 198.701 20.3181 199.619 21.0376C199.257 21.6708 198.924 22.3328 198.562 22.966C196.977 21.8435 195.837 22.1025 194.92 23.7718C193.947 25.5563 192.946 27.3407 191.945 29.1827C191.333 28.8373 190.721 28.4919 190.082 28.089C191.778 24.9519 193.502 21.8147 195.254 18.5912Z" fill="white"/>
<path d="M83.5344 40.2634C82.9505 40.7815 82.4778 41.242 81.9217 41.76C79.5583 39.0258 77.2227 36.3492 74.8593 33.615C75.4154 33.0969 75.9159 32.6364 76.472 32.1184C78.8354 34.8526 81.171 37.5292 83.5344 40.2634Z" fill="white"/>
<path d="M93.0992 32.5213C92.4875 32.953 91.9314 33.3559 91.3197 33.7877C89.3178 30.7944 87.3436 27.83 85.3139 24.7792C85.8978 24.3762 86.4539 23.9733 87.0934 23.5128C89.1231 26.506 91.0973 29.4705 93.0992 32.5213Z" fill="white"/>
<path d="M126.381 6.84854C127.104 6.70463 127.744 6.58951 128.495 6.4456C129.106 10.0432 129.718 13.5833 130.33 17.2097C129.635 17.3536 128.995 17.4688 128.216 17.6127C127.605 14.015 126.993 10.4462 126.381 6.84854Z" fill="white"/>
<path d="M73.6359 28.8373C74.1364 29.4129 74.5813 29.931 75.054 30.4778C74.5257 30.9671 74.0252 31.4276 73.4691 31.9745C72.9964 31.4276 72.5237 30.8808 72.0233 30.3051C72.5794 29.8159 73.0798 29.3554 73.6359 28.8373Z" fill="white"/>
<path d="M85.9256 21.6996C85.3139 22.1313 84.7578 22.5342 84.1461 22.966C83.729 22.3616 83.3398 21.7859 82.9227 21.1528C83.5066 20.721 84.0627 20.3181 84.6744 19.8864C85.0915 20.462 85.4807 21.0376 85.9256 21.6996Z" fill="white"/>
<path d="M127.744 2.09965C127.883 2.84796 127.994 3.53871 128.105 4.25823C127.41 4.40214 126.743 4.51726 126.02 4.66117C125.881 3.94164 125.77 3.25089 125.631 2.4738C126.381 2.35868 127.049 2.24356 127.744 2.09965Z" fill="white"/>
</svg>
