<svg width="34" height="34" viewBox="0 0 34 34" fill="none" xmlns="http://www.w3.org/2000/svg">
<path d="M21.4291 2C21.6477 2.06053 21.8691 2.11397 22.0845 2.18291C22.7383 2.39215 23.2519 2.77073 23.6739 3.27103C23.7693 3.38416 23.9343 3.46983 24.0862 3.51742C24.7608 3.72879 25.4484 3.90647 26.1183 4.12913C26.3703 4.21291 26.6069 4.36384 26.8154 4.52284C27.1052 4.74391 27.0484 4.9773 26.6826 5.07184C26.4209 5.1395 26.1412 5.18237 25.87 5.1804C24.2992 5.16897 22.788 4.89353 21.3718 4.25318C21.1361 4.14661 20.9326 3.98029 20.6596 3.88857C20.8687 4.06433 21.0571 4.26851 21.2906 4.41071C22.1046 4.90659 23.0173 5.20133 23.9495 5.44911C24.033 5.47132 24.1168 5.49279 24.2306 5.52244C24.1305 6.19419 23.803 6.7481 23.2896 7.21054C22.2756 8.12372 20.7496 8.33554 19.4711 7.75186C18.2354 7.18771 17.5047 5.93596 17.6733 4.6718C17.8445 3.38789 18.9014 2.33578 20.2917 2.06317C20.3641 2.04898 20.4333 2.02136 20.504 2C20.8124 2 21.1207 2 21.4291 2Z" fill="#1A262D"/>
<path d="M21.4952 33C21.0216 32.8496 20.5956 32.6438 20.3021 32.2459C20.0022 31.8393 19.9875 31.3708 19.926 30.9144C19.6572 28.9179 19.1932 26.9648 18.4201 25.078C18.3977 25.0234 18.3842 24.9657 18.3576 24.8807C19.5518 24.579 20.6885 24.1891 21.6847 23.423C21.8923 23.9551 22.1031 24.4571 22.2847 24.9677C22.9895 26.9484 23.4186 28.9831 23.6651 31.051C23.7789 32.0056 23.3164 32.5877 22.156 33H21.4952Z" fill="#1A262D"/>
<path d="M19.5885 12.8147C19.3768 12.2149 19.1514 11.6188 18.9573 11.0142C18.7564 10.3885 18.233 9.98424 17.5526 9.96949C16.8966 9.95526 16.3019 10.3183 16.1282 10.8963C16.0552 11.1393 16.0378 11.4244 16.099 11.6685C16.529 13.3844 17.3218 14.9216 18.7913 16.1146C18.8686 16.1774 18.9 16.3234 18.8961 16.4289C18.8683 17.1738 18.814 17.918 18.7976 18.663C18.7943 18.815 18.8785 18.9969 18.9857 19.1182C20.0323 20.303 20.8304 21.6185 21.5151 23.0744C21.0683 23.3328 20.6468 23.6302 20.177 23.8345C19.6239 24.0752 19.0276 24.2316 18.4531 24.4321C18.2464 24.5042 18.1282 24.4622 18.0557 24.2641C17.9943 24.0965 17.8996 23.939 17.8016 23.7404C17.5798 24.2681 17.3782 24.7473 17.136 25.3235C16.5566 24.8159 16.0275 24.3816 15.5371 23.9133C15.1415 23.5356 14.7835 23.1236 14.4298 22.7116C14.3481 22.6164 14.322 22.4595 14.3219 22.3309C14.3214 21.5972 14.3403 20.8636 14.3414 20.1299C14.3416 20.0358 14.3015 19.9241 14.2385 19.8502C13.6722 19.1867 13.5513 18.4084 13.5048 17.601C13.3803 15.436 13.7066 13.3378 14.5719 11.3149C14.5984 11.2528 14.6119 11.186 14.6443 11.0792C14.0527 11.354 13.598 11.7112 13.2058 12.1375C12.4083 13.0045 11.9545 14.0248 11.6379 15.106C11.4445 15.7666 11.0516 16.0985 10.4598 16.1098C9.71541 16.1239 9.1084 15.5243 9.28263 14.849C9.81661 12.7795 10.7708 10.919 12.7167 9.63198C14.4473 8.48739 16.3918 8.19078 18.4645 8.5543C19.3488 8.70938 19.9672 9.4549 20.1134 10.3948C20.2447 11.2385 19.925 12.0041 19.7152 12.7913C19.673 12.7991 19.6308 12.8069 19.5885 12.8147Z" fill="#1A262D"/>
<path d="M14.1253 23.1368C15.031 23.9829 15.9273 24.8204 16.8569 25.6889C16.2519 26.5981 15.384 27.3439 14.2712 27.845C12.8599 28.4805 11.3545 28.6434 9.80625 28.5532C9.3464 28.5264 8.88234 28.4888 8.43261 28.4022C7.45164 28.2131 6.85014 27.3473 7.03248 26.4388C7.20662 25.5711 8.13249 24.9958 9.11044 25.085C9.82925 25.1506 10.566 25.2139 11.2785 25.1421C12.8817 24.9805 13.5322 24.4787 14.1253 23.1368Z" fill="#1A262D"/>
<path d="M22.682 17.2077C20.7829 17.1154 19.2695 16.4068 18.1079 15.0618C17.2112 14.0235 16.6682 12.8317 16.3641 11.5461C16.2233 10.9509 16.6192 10.4025 17.2599 10.262C17.8811 10.1258 18.4997 10.4775 18.6596 11.0775C18.8587 11.8252 19.1298 12.5447 19.5683 13.2054C20.5878 14.7413 22.0047 15.2676 23.8982 14.8134C24.0151 14.7853 24.1298 14.7485 24.2479 14.7261C24.8913 14.6036 25.4973 14.9339 25.6593 15.492C25.8247 16.0621 25.5065 16.6473 24.8692 16.801C24.151 16.9742 23.4119 17.0752 22.682 17.2077Z" fill="#1A262D"/>
</svg>
