<svg width="632" height="41" viewBox="0 0 632 41" fill="none" xmlns="http://www.w3.org/2000/svg">
<path d="M17.3974 28.865L17.3254 28.697L17.0374 28.649H16.7254L16.3894 28.553L16.3654 28.265L16.3894 27.857V26.561L16.3414 26.345L16.3174 26.057L16.3894 25.865L16.5814 25.745L16.8454 25.433L16.9894 25.241L17.3254 24.929L17.6134 24.593L18.1894 23.993L18.5974 23.561L18.7654 23.393L18.8374 23.273L18.9814 23.105L19.0774 23.009L19.1494 22.889L19.5094 22.649L19.8214 22.337L20.1574 22.097L20.8534 21.473L21.1174 21.113L21.4294 20.801L21.8614 20.321L22.1974 19.961L22.4614 19.601L22.9414 19.001L23.3734 18.353L23.6134 17.873L23.7334 17.249V16.841L23.6374 16.409L23.3014 15.761L22.8694 15.281L22.1494 15.089L21.4534 15.065L20.1094 15.353L19.4854 15.617L18.6694 16.025L18.1654 16.313L18.0934 16.217L17.9974 16.145L17.9014 16.001L17.8774 15.905L17.8294 15.857L17.8054 15.737L17.6614 15.569L17.6374 15.377L17.6614 15.233L17.5654 15.209L17.4454 15.137L17.4934 14.969L17.3734 14.777L17.3254 14.705L17.3734 14.585L17.2774 14.537L17.2054 14.489V14.417L17.1814 14.297V14.177L17.1574 14.081L17.1094 14.057L17.0134 14.033L16.9894 13.985L16.9654 13.841L16.9174 13.673L16.8694 13.553L16.8454 13.409L16.7734 13.193L16.8214 13.025L16.9894 12.905L17.3254 12.737L17.6374 12.545V12.401L17.8774 12.257L18.3814 12.041L18.8134 11.849L19.1974 11.705L19.7734 11.537L20.3974 11.417L20.8534 11.369L21.1414 11.321H21.5494L21.9094 11.345H22.1734L22.3894 11.369L22.5574 11.321L22.8454 11.369L23.2774 11.465L23.8294 11.657L24.5254 11.921L24.8854 12.065L25.1254 12.257L25.7734 12.857L26.0134 13.145L26.2294 13.457L26.3734 13.769L26.5414 13.937L26.6854 14.153L26.8774 14.513L26.9974 14.921L27.2134 15.425L27.3814 15.977L27.5014 16.529L27.5254 17.273L27.5014 17.633V18.353L27.4054 18.689L27.3094 19.049L27.2134 19.289L27.0454 19.649L26.8534 20.105L26.6614 20.417L26.4934 20.561L26.2534 20.825L25.9654 21.041L25.7014 21.401L25.4134 21.737L25.1254 22.025L24.8134 22.361L24.5974 22.601L24.3094 22.961L23.4934 23.777L22.8454 24.377L22.4614 24.689L22.3414 24.785L22.3174 24.857L22.6054 24.929L23.3734 25.001L23.7814 24.977L24.5494 25.049L25.1494 25.097H25.6774L25.8694 25.169L26.1094 25.193L26.3734 25.241L26.5174 25.289L26.5654 25.601L26.6854 25.913L26.7814 26.009L26.7334 26.129L26.6614 26.225L26.6374 26.369L26.7334 26.537L26.7574 26.681L26.7094 26.801V26.969L26.5894 27.065L26.5414 27.113L26.6134 27.305L26.6374 27.569L26.5174 27.713L26.5654 27.905L26.5894 28.145L26.5414 28.337L26.5654 28.481L26.4694 28.601L26.2774 28.721L25.8214 28.745H25.2214L24.5254 28.769L23.6854 28.697L23.1574 28.721H22.6774L22.1734 28.697H21.8854L20.6854 28.745L19.7014 28.841L18.9814 28.865L18.6934 28.913L18.2134 28.937L17.7094 28.865L17.6134 28.841L17.4934 28.937L17.3974 28.865Z" fill="#1A262D"/>
<path d="M34.7331 29.129L34.3011 29.081L33.6531 28.865L33.1251 28.649L32.7411 28.529L32.0931 28.193L31.5171 27.785L31.2051 27.473L31.0611 27.185L30.8451 26.921L30.4851 26.513L30.1971 26.057L30.0291 25.697L29.8131 25.337L29.5491 24.809L29.4051 23.993L29.3571 22.961L29.3811 22.121L29.3091 21.665L29.2851 20.993L29.2371 19.937L29.2131 19.097V18.401L29.2611 17.993L29.3091 17.393L29.4531 16.553L29.5491 16.169L29.6691 15.617L29.8851 14.945L30.0051 14.633L30.1011 14.489L30.3411 14.057L30.6771 13.625L30.8211 13.457L30.9411 13.481L31.0611 13.361L31.2531 13.145L31.7571 12.689L32.1651 12.377L32.9331 11.969L33.7011 11.729L34.2771 11.609L34.7331 11.561L34.9731 11.513L35.3811 11.489L35.8131 11.417H35.9091L35.9571 11.369H36.0531L36.1971 11.345L36.3411 11.417L36.7011 11.465L37.1811 11.513L37.8771 11.633L38.5731 11.921L38.9571 12.137L39.3171 12.425L39.7731 12.833L40.1811 13.241L40.6371 13.865L40.8771 14.249L41.1891 14.753L41.4291 15.401L41.6691 16.337L41.7891 16.937L41.8131 17.201L41.8611 17.489L41.9091 17.897L41.9331 18.137V18.665L41.9091 19.193L41.8851 19.673V20.345L41.9091 20.873L41.8851 21.137V21.497L41.8371 22.001L41.8851 22.649L41.8131 23.321L41.7411 23.825L41.6931 24.209L41.5971 24.521L41.5251 24.881L41.4291 25.169L41.2131 26.033L40.9011 26.801L40.5171 27.425L40.1811 27.785L39.8211 28.073L39.5571 28.289L39.1251 28.529L38.5971 28.793L38.1891 28.913L38.0211 28.865L37.5891 28.889L36.7251 28.913H36.1011L35.8131 29.105L35.2611 29.153L34.7331 29.129ZM36.7491 28.745V28.697H36.6051L36.5571 28.721L36.7011 28.745H36.7491ZM37.5891 28.745L37.9491 28.673H38.1891L38.4051 28.577L38.3331 28.553L38.1171 28.625L37.9491 28.649L37.7091 28.673L37.3971 28.721L37.0131 28.697L36.9411 28.745L37.0851 28.769L37.5891 28.745ZM38.5971 28.505L38.6691 28.433H38.7171V28.409L38.5731 28.457L38.5011 28.505L38.4531 28.529V28.553L38.5971 28.505ZM36.4131 25.505L36.7971 25.433L37.3491 25.169L37.6611 24.785L37.9251 24.377L38.0691 23.705L38.1891 22.961L38.2611 22.361L38.2851 21.977L38.2611 21.665L38.2851 21.161L38.3331 20.705L38.3091 20.393L38.3571 20.153L38.3331 19.577V18.209L38.2371 17.441L38.0451 16.577L37.6371 15.785L37.3251 15.401L37.0371 15.281L36.0291 15.113L35.6451 15.137H35.4051L35.2611 15.065L34.8291 15.089L34.0611 15.353L33.6771 15.641L33.5091 15.833L33.1971 16.337L32.9571 17.273L32.7891 18.257L32.7651 19.073V19.649L32.8131 20.369L32.8851 21.473L32.8131 22.529L32.9091 22.985L33.1971 23.657L33.3651 23.993L33.6051 24.257L33.8931 24.569L34.4931 25.073L35.3091 25.433L35.7171 25.457L36.0531 25.529L36.4131 25.505ZM34.1811 13.961L34.4931 13.889L34.8531 13.841L34.9731 13.817L34.9251 13.793L34.5651 13.817L34.2531 13.937L34.0851 13.961H34.1811Z" fill="#1A262D"/>
<path d="M44.7255 28.865L44.6535 28.697L44.3655 28.649H44.0535L43.7175 28.553L43.6935 28.265L43.7175 27.857V26.561L43.6695 26.345L43.6455 26.057L43.7175 25.865L43.9095 25.745L44.1735 25.433L44.3175 25.241L44.6535 24.929L44.9415 24.593L45.5175 23.993L45.9255 23.561L46.0935 23.393L46.1655 23.273L46.3095 23.105L46.4055 23.009L46.4775 22.889L46.8375 22.649L47.1495 22.337L47.4855 22.097L48.1815 21.473L48.4455 21.113L48.7575 20.801L49.1895 20.321L49.5255 19.961L49.7895 19.601L50.2695 19.001L50.7015 18.353L50.9415 17.873L51.0615 17.249V16.841L50.9655 16.409L50.6295 15.761L50.1975 15.281L49.4775 15.089L48.7815 15.065L47.4375 15.353L46.8135 15.617L45.9975 16.025L45.4935 16.313L45.4215 16.217L45.3255 16.145L45.2295 16.001L45.2055 15.905L45.1575 15.857L45.1335 15.737L44.9895 15.569L44.9655 15.377L44.9895 15.233L44.8935 15.209L44.7735 15.137L44.8215 14.969L44.7015 14.777L44.6535 14.705L44.7015 14.585L44.6055 14.537L44.5335 14.489V14.417L44.5095 14.297V14.177L44.4855 14.081L44.4375 14.057L44.3415 14.033L44.3175 13.985L44.2935 13.841L44.2455 13.673L44.1975 13.553L44.1735 13.409L44.1015 13.193L44.1495 13.025L44.3175 12.905L44.6535 12.737L44.9655 12.545V12.401L45.2055 12.257L45.7095 12.041L46.1415 11.849L46.5255 11.705L47.1015 11.537L47.7255 11.417L48.1815 11.369L48.4695 11.321H48.8775L49.2375 11.345H49.5015L49.7175 11.369L49.8855 11.321L50.1735 11.369L50.6055 11.465L51.1575 11.657L51.8535 11.921L52.2135 12.065L52.4535 12.257L53.1015 12.857L53.3415 13.145L53.5575 13.457L53.7015 13.769L53.8695 13.937L54.0135 14.153L54.2055 14.513L54.3255 14.921L54.5415 15.425L54.7095 15.977L54.8295 16.529L54.8535 17.273L54.8295 17.633V18.353L54.7335 18.689L54.6375 19.049L54.5415 19.289L54.3735 19.649L54.1815 20.105L53.9895 20.417L53.8215 20.561L53.5815 20.825L53.2935 21.041L53.0295 21.401L52.7415 21.737L52.4535 22.025L52.1415 22.361L51.9255 22.601L51.6375 22.961L50.8215 23.777L50.1735 24.377L49.7895 24.689L49.6695 24.785L49.6455 24.857L49.9335 24.929L50.7015 25.001L51.1095 24.977L51.8775 25.049L52.4775 25.097H53.0055L53.1975 25.169L53.4375 25.193L53.7015 25.241L53.8455 25.289L53.8935 25.601L54.0135 25.913L54.1095 26.009L54.0615 26.129L53.9895 26.225L53.9655 26.369L54.0615 26.537L54.0855 26.681L54.0375 26.801V26.969L53.9175 27.065L53.8695 27.113L53.9415 27.305L53.9655 27.569L53.8455 27.713L53.8935 27.905L53.9175 28.145L53.8695 28.337L53.8935 28.481L53.7975 28.601L53.6055 28.721L53.1495 28.745H52.5495L51.8535 28.769L51.0135 28.697L50.4855 28.721H50.0055L49.5015 28.697H49.2135L48.0135 28.745L47.0295 28.841L46.3095 28.865L46.0215 28.913L45.5415 28.937L45.0375 28.865L44.9415 28.841L44.8215 28.937L44.7255 28.865Z" fill="#1A262D"/>
<path d="M57.4052 28.865L57.3332 28.697L57.0452 28.649H56.7332L56.3972 28.553L56.3732 28.265L56.3972 27.857V26.561L56.3492 26.345L56.3252 26.057L56.3972 25.865L56.5892 25.745L56.8532 25.433L56.9972 25.241L57.3332 24.929L57.6212 24.593L58.1972 23.993L58.6052 23.561L58.7732 23.393L58.8452 23.273L58.9892 23.105L59.0852 23.009L59.1572 22.889L59.5172 22.649L59.8292 22.337L60.1652 22.097L60.8612 21.473L61.1252 21.113L61.4372 20.801L61.8692 20.321L62.2052 19.961L62.4692 19.601L62.9492 19.001L63.3812 18.353L63.6212 17.873L63.7412 17.249V16.841L63.6452 16.409L63.3092 15.761L62.8772 15.281L62.1572 15.089L61.4612 15.065L60.1172 15.353L59.4932 15.617L58.6772 16.025L58.1732 16.313L58.1012 16.217L58.0052 16.145L57.9092 16.001L57.8852 15.905L57.8372 15.857L57.8132 15.737L57.6692 15.569L57.6452 15.377L57.6692 15.233L57.5732 15.209L57.4532 15.137L57.5012 14.969L57.3812 14.777L57.3332 14.705L57.3812 14.585L57.2852 14.537L57.2132 14.489V14.417L57.1892 14.297V14.177L57.1652 14.081L57.1172 14.057L57.0212 14.033L56.9972 13.985L56.9732 13.841L56.9252 13.673L56.8772 13.553L56.8532 13.409L56.7812 13.193L56.8292 13.025L56.9972 12.905L57.3332 12.737L57.6452 12.545V12.401L57.8852 12.257L58.3892 12.041L58.8212 11.849L59.2052 11.705L59.7812 11.537L60.4052 11.417L60.8612 11.369L61.1492 11.321H61.5572L61.9172 11.345H62.1812L62.3972 11.369L62.5652 11.321L62.8532 11.369L63.2852 11.465L63.8372 11.657L64.5332 11.921L64.8932 12.065L65.1332 12.257L65.7812 12.857L66.0212 13.145L66.2372 13.457L66.3812 13.769L66.5492 13.937L66.6932 14.153L66.8852 14.513L67.0052 14.921L67.2212 15.425L67.3892 15.977L67.5092 16.529L67.5332 17.273L67.5092 17.633V18.353L67.4132 18.689L67.3172 19.049L67.2212 19.289L67.0532 19.649L66.8612 20.105L66.6692 20.417L66.5012 20.561L66.2612 20.825L65.9732 21.041L65.7092 21.401L65.4212 21.737L65.1332 22.025L64.8212 22.361L64.6052 22.601L64.3172 22.961L63.5012 23.777L62.8532 24.377L62.4692 24.689L62.3492 24.785L62.3252 24.857L62.6132 24.929L63.3812 25.001L63.7892 24.977L64.5572 25.049L65.1572 25.097H65.6852L65.8772 25.169L66.1172 25.193L66.3812 25.241L66.5252 25.289L66.5732 25.601L66.6932 25.913L66.7892 26.009L66.7412 26.129L66.6692 26.225L66.6452 26.369L66.7412 26.537L66.7652 26.681L66.7172 26.801V26.969L66.5972 27.065L66.5492 27.113L66.6212 27.305L66.6452 27.569L66.5252 27.713L66.5732 27.905L66.5972 28.145L66.5492 28.337L66.5732 28.481L66.4772 28.601L66.2852 28.721L65.8292 28.745H65.2292L64.5332 28.769L63.6932 28.697L63.1652 28.721H62.6852L62.1812 28.697H61.8932L60.6932 28.745L59.7092 28.841L58.9892 28.865L58.7012 28.913L58.2212 28.937L57.7172 28.865L57.6212 28.841L57.5012 28.937L57.4052 28.865Z" fill="#1A262D"/>
<path d="M101.848 0.140627C102.111 0.219103 102.376 0.288397 102.635 0.377774C103.419 0.649068 104.036 1.13991 104.542 1.78856C104.656 1.93524 104.854 2.04632 105.037 2.10802C105.846 2.38207 106.671 2.61244 107.475 2.90113C107.778 3.00975 108.061 3.20545 108.312 3.41159C108.659 3.69822 108.591 4.00081 108.152 4.1234C107.838 4.21111 107.503 4.2667 107.177 4.26415C105.292 4.24933 103.479 3.8922 101.779 3.06196C101.497 2.92379 101.252 2.70816 100.925 2.58923C101.176 2.81712 101.402 3.08184 101.682 3.26622C102.659 3.90914 103.754 4.29128 104.873 4.61253C104.973 4.64133 105.073 4.66917 105.21 4.70762C105.09 5.57857 104.697 6.29673 104.081 6.8963C102.864 8.08028 101.033 8.35491 99.4985 7.59815C98.0156 6.86671 97.1389 5.24376 97.3411 3.60473C97.5466 1.94008 98.8149 0.575975 100.483 0.222526C100.57 0.20413 100.653 0.168326 100.738 0.140625C101.108 0.140625 101.478 0.140627 101.848 0.140627Z" fill="#1A262D"/>
<path d="M101.927 40.3334C101.359 40.1384 100.848 39.8715 100.496 39.3556C100.136 38.8285 100.118 38.2211 100.044 37.6293C99.7218 35.0408 99.1651 32.5085 98.2373 30.0622C98.2104 29.9914 98.1943 29.9165 98.1624 29.8063C99.5953 29.4152 100.959 28.9097 102.155 27.9164C102.404 28.6063 102.657 29.2572 102.875 29.9192C103.721 32.4873 104.235 35.1253 104.531 37.8064C104.668 39.0441 104.113 39.7989 102.72 40.3334H101.927Z" fill="#1A262D"/>
<path d="M99.6394 14.1623C99.3854 13.3847 99.1149 12.6118 98.8819 11.828C98.6408 11.0166 98.0128 10.4925 97.1963 10.4734C96.4091 10.455 95.6955 10.9257 95.4871 11.6751C95.3994 11.9901 95.3786 12.3598 95.452 12.6763C95.968 14.901 96.9194 16.8941 98.6828 18.4408C98.7756 18.5223 98.8132 18.7115 98.8085 18.8483C98.7752 19.8141 98.7099 20.779 98.6903 21.7449C98.6863 21.9419 98.7875 22.1778 98.916 22.335C100.172 23.8713 101.13 25.5768 101.951 27.4644C101.415 27.7995 100.909 28.185 100.346 28.45C99.6819 28.762 98.9663 28.9648 98.277 29.2247C98.0289 29.3183 97.887 29.2638 97.8 29.007C97.7264 28.7896 97.6128 28.5855 97.4952 28.328C97.2289 29.0121 96.9871 29.6334 96.6963 30.3806C96.0011 29.7223 95.3662 29.1592 94.7777 28.5521C94.303 28.0625 93.8734 27.5282 93.449 26.9941C93.351 26.8707 93.3196 26.6672 93.3195 26.5005C93.3188 25.5492 93.3415 24.598 93.3429 23.6468C93.3431 23.5248 93.295 23.3799 93.2194 23.2842C92.5399 22.4239 92.3948 21.4147 92.339 20.368C92.1895 17.5609 92.5812 14.8405 93.6194 12.2177C93.6513 12.1373 93.6675 12.0507 93.7063 11.9121C92.9964 12.2685 92.4508 12.7316 91.9802 13.2843C91.0232 14.4084 90.4786 15.7313 90.0987 17.1331C89.8666 17.9896 89.3951 18.4199 88.685 18.4345C87.7917 18.4529 87.0633 17.6755 87.2724 16.7999C87.9131 14.1166 89.0581 11.7045 91.3933 10.0358C93.47 8.5518 95.8034 8.16722 98.2906 8.63854C99.3518 8.83962 100.094 9.8062 100.269 11.0248C100.427 12.1187 100.043 13.1114 99.7915 14.132C99.7408 14.1421 99.6901 14.1522 99.6394 14.1623Z" fill="#1A262D"/>
<path d="M93.0836 27.5453C94.1704 28.6424 95.246 29.7283 96.3615 30.8543C95.6355 32.0331 94.594 33.0001 93.2586 33.6498C91.565 34.4737 89.7586 34.6849 87.9007 34.568C87.3489 34.5332 86.792 34.4845 86.2523 34.3721C85.0752 34.127 84.3534 33.0044 84.5722 31.8265C84.7811 30.7016 85.8922 29.9556 87.0657 30.0713C87.9283 30.1563 88.8124 30.2384 89.6673 30.1453C91.5912 29.9358 92.3719 29.2852 93.0836 27.5453Z" fill="#1A262D"/>
<path d="M103.352 19.858C101.073 19.7384 99.2566 18.8196 97.8627 17.0758C96.7866 15.7296 96.135 14.1844 95.7701 12.5175C95.6011 11.7458 96.0763 11.0348 96.8451 10.8526C97.5905 10.676 98.3329 11.132 98.5247 11.91C98.7637 12.8793 99.0889 13.8123 99.6152 14.6689C100.839 16.6602 102.539 17.3426 104.811 16.7537C104.951 16.7174 105.089 16.6696 105.231 16.6405C106.003 16.4818 106.73 16.9099 106.924 17.6336C107.123 18.3728 106.741 19.1315 105.976 19.3307C105.114 19.5553 104.228 19.6863 103.352 19.858Z" fill="#1A262D"/>
<path fill-rule="evenodd" clip-rule="evenodd" d="M144.533 21.237H124.533V19.237H144.533V21.237Z" fill="#1A262D"/>
<path fill-rule="evenodd" clip-rule="evenodd" d="M180.533 21.237H160.533V19.237H180.533V21.237Z" fill="#1A262D"/>
<path fill-rule="evenodd" clip-rule="evenodd" d="M216.533 21.237H196.533V19.237H216.533V21.237Z" fill="#1A262D"/>
<path fill-rule="evenodd" clip-rule="evenodd" d="M252.533 21.237H232.533V19.237H252.533V21.237Z" fill="#1A262D"/>
<path fill-rule="evenodd" clip-rule="evenodd" d="M288.533 21.237H268.533V19.237H288.533V21.237Z" fill="#1A262D"/>
<path fill-rule="evenodd" clip-rule="evenodd" d="M324.533 21.237H304.533V19.237H324.533V21.237Z" fill="#1A262D"/>
<path fill-rule="evenodd" clip-rule="evenodd" d="M360.533 21.237H340.533V19.237H360.533V21.237Z" fill="#1A262D"/>
<path fill-rule="evenodd" clip-rule="evenodd" d="M396.533 21.237H376.533V19.237H396.533V21.237Z" fill="#1A262D"/>
<path fill-rule="evenodd" clip-rule="evenodd" d="M432.533 21.237H412.533V19.237H432.533V21.237Z" fill="#1A262D"/>
<path fill-rule="evenodd" clip-rule="evenodd" d="M468.533 21.237H448.533V19.237H468.533V21.237Z" fill="#1A262D"/>
<path d="M501.848 0.140627C502.111 0.219103 502.376 0.288397 502.635 0.377774C503.419 0.649068 504.036 1.13991 504.542 1.78856C504.656 1.93524 504.854 2.04632 505.037 2.10802C505.846 2.38207 506.671 2.61244 507.475 2.90113C507.778 3.00975 508.061 3.20545 508.312 3.41159C508.659 3.69822 508.591 4.00081 508.152 4.1234C507.838 4.21111 507.503 4.2667 507.177 4.26415C505.292 4.24933 503.479 3.8922 501.779 3.06196C501.497 2.92379 501.252 2.70816 500.925 2.58923C501.176 2.81712 501.402 3.08184 501.682 3.26622C502.659 3.90914 503.754 4.29128 504.873 4.61253C504.973 4.64133 505.073 4.66917 505.21 4.70762C505.09 5.57857 504.697 6.29673 504.081 6.8963C502.864 8.08028 501.033 8.35491 499.498 7.59815C498.016 6.86671 497.139 5.24376 497.341 3.60473C497.547 1.94008 498.815 0.575975 500.483 0.222526C500.57 0.20413 500.653 0.168326 500.738 0.140625C501.108 0.140625 501.478 0.140627 501.848 0.140627Z" fill="#1A262D"/>
<path d="M501.927 40.3334C501.359 40.1384 500.848 39.8715 500.496 39.3556C500.136 38.8285 500.118 38.2211 500.044 37.6293C499.722 35.0408 499.165 32.5085 498.237 30.0622C498.21 29.9914 498.194 29.9165 498.162 29.8063C499.595 29.4152 500.959 28.9097 502.155 27.9164C502.404 28.6063 502.657 29.2572 502.875 29.9192C503.721 32.4873 504.235 35.1253 504.531 37.8064C504.668 39.0441 504.113 39.7989 502.72 40.3334H501.927Z" fill="#1A262D"/>
<path d="M499.639 14.1623C499.385 13.3847 499.115 12.6118 498.882 11.828C498.641 11.0166 498.013 10.4925 497.196 10.4734C496.409 10.455 495.695 10.9257 495.487 11.6751C495.399 11.9901 495.379 12.3598 495.452 12.6763C495.968 14.901 496.919 16.8941 498.683 18.4408C498.776 18.5223 498.813 18.7115 498.808 18.8483C498.775 19.8141 498.71 20.779 498.69 21.7449C498.686 21.9419 498.787 22.1778 498.916 22.335C500.172 23.8713 501.13 25.5768 501.951 27.4644C501.415 27.7995 500.909 28.185 500.346 28.45C499.682 28.762 498.966 28.9648 498.277 29.2247C498.029 29.3183 497.887 29.2638 497.8 29.007C497.726 28.7896 497.613 28.5855 497.495 28.328C497.229 29.0121 496.987 29.6334 496.696 30.3806C496.001 29.7223 495.366 29.1592 494.778 28.5521C494.303 28.0625 493.873 27.5282 493.449 26.9941C493.351 26.8707 493.32 26.6672 493.319 26.5005C493.319 25.5492 493.342 24.598 493.343 23.6468C493.343 23.5248 493.295 23.3799 493.219 23.2842C492.54 22.4239 492.395 21.4147 492.339 20.368C492.19 17.5609 492.581 14.8405 493.619 12.2177C493.651 12.1373 493.667 12.0507 493.706 11.9121C492.996 12.2685 492.451 12.7316 491.98 13.2843C491.023 14.4084 490.479 15.7313 490.099 17.1331C489.867 17.9896 489.395 18.4199 488.685 18.4345C487.792 18.4529 487.063 17.6755 487.272 16.7999C487.913 14.1166 489.058 11.7045 491.393 10.0358C493.47 8.5518 495.803 8.16722 498.291 8.63854C499.352 8.83962 500.094 9.8062 500.269 11.0248C500.427 12.1187 500.043 13.1114 499.791 14.132C499.741 14.1421 499.69 14.1522 499.639 14.1623Z" fill="#1A262D"/>
<path d="M493.084 27.5453C494.17 28.6424 495.246 29.7283 496.361 30.8543C495.636 32.0331 494.594 33.0001 493.259 33.6498C491.565 34.4737 489.759 34.6849 487.901 34.568C487.349 34.5332 486.792 34.4845 486.252 34.3721C485.075 34.127 484.353 33.0044 484.572 31.8265C484.781 30.7016 485.892 29.9556 487.066 30.0713C487.928 30.1563 488.812 30.2384 489.667 30.1453C491.591 29.9358 492.372 29.2852 493.084 27.5453Z" fill="#1A262D"/>
<path d="M503.352 19.858C501.073 19.7384 499.257 18.8196 497.863 17.0758C496.787 15.7296 496.135 14.1844 495.77 12.5175C495.601 11.7458 496.076 11.0348 496.845 10.8526C497.591 10.676 498.333 11.132 498.525 11.91C498.764 12.8793 499.089 13.8123 499.615 14.6689C500.839 16.6602 502.539 17.3426 504.811 16.7537C504.951 16.7174 505.089 16.6696 505.231 16.6405C506.003 16.4818 506.73 16.9099 506.924 17.6336C507.123 18.3728 506.741 19.1315 505.976 19.3307C505.114 19.5553 504.228 19.6863 503.352 19.858Z" fill="#1A262D"/>
<path d="M526.613 28.781L526.541 28.613L526.253 28.565H525.941L525.605 28.469L525.581 28.181L525.605 27.773V26.477L525.557 26.261L525.533 25.973L525.605 25.781L525.797 25.661L526.061 25.349L526.205 25.157L526.541 24.845L526.829 24.509L527.405 23.909L527.813 23.477L527.981 23.309L528.053 23.189L528.197 23.021L528.293 22.925L528.365 22.805L528.725 22.565L529.037 22.253L529.373 22.013L530.069 21.389L530.333 21.029L530.645 20.717L531.077 20.237L531.413 19.877L531.677 19.517L532.157 18.917L532.589 18.269L532.829 17.789L532.949 17.165V16.757L532.853 16.325L532.517 15.677L532.085 15.197L531.365 15.005L530.669 14.981L529.325 15.269L528.701 15.533L527.885 15.941L527.381 16.229L527.309 16.133L527.213 16.061L527.117 15.917L527.093 15.821L527.045 15.773L527.021 15.653L526.877 15.485L526.853 15.293L526.877 15.149L526.781 15.125L526.661 15.053L526.709 14.885L526.589 14.693L526.541 14.621L526.589 14.501L526.493 14.453L526.421 14.405V14.333L526.397 14.213V14.093L526.373 13.997L526.325 13.973L526.229 13.949L526.205 13.901L526.181 13.757L526.133 13.589L526.085 13.469L526.061 13.325L525.989 13.109L526.037 12.941L526.205 12.821L526.541 12.653L526.853 12.461V12.317L527.093 12.173L527.597 11.957L528.029 11.765L528.413 11.621L528.989 11.453L529.613 11.333L530.069 11.285L530.357 11.237H530.765L531.125 11.261H531.389L531.605 11.285L531.773 11.237L532.061 11.285L532.493 11.381L533.045 11.573L533.741 11.837L534.101 11.981L534.341 12.173L534.989 12.773L535.229 13.061L535.445 13.373L535.589 13.685L535.757 13.853L535.901 14.069L536.093 14.429L536.213 14.837L536.429 15.341L536.597 15.893L536.717 16.445L536.741 17.189L536.717 17.549V18.269L536.621 18.605L536.525 18.965L536.429 19.205L536.261 19.565L536.069 20.021L535.877 20.333L535.709 20.477L535.469 20.741L535.181 20.957L534.917 21.317L534.629 21.653L534.341 21.941L534.029 22.277L533.813 22.517L533.525 22.877L532.709 23.693L532.061 24.293L531.677 24.605L531.557 24.701L531.533 24.773L531.821 24.845L532.589 24.917L532.997 24.893L533.765 24.965L534.365 25.013H534.893L535.085 25.085L535.325 25.109L535.589 25.157L535.733 25.205L535.781 25.517L535.901 25.829L535.997 25.925L535.949 26.045L535.877 26.141L535.853 26.285L535.949 26.453L535.973 26.597L535.925 26.717V26.885L535.805 26.981L535.757 27.029L535.829 27.221L535.853 27.485L535.733 27.629L535.781 27.821L535.805 28.061L535.757 28.253L535.781 28.397L535.685 28.517L535.493 28.637L535.037 28.661H534.437L533.741 28.685L532.901 28.613L532.373 28.637H531.893L531.389 28.613H531.101L529.901 28.661L528.917 28.757L528.197 28.781L527.909 28.829L527.429 28.853L526.925 28.781L526.829 28.757L526.709 28.853L526.613 28.781Z" fill="#1A262D"/>
<path d="M543.829 29.549L543.205 29.357L542.701 29.141L542.197 28.853L541.549 28.421L541.141 28.109L540.685 27.677L540.301 27.269L540.013 26.837L539.677 26.357L539.413 25.853L539.269 25.517L538.957 24.869L538.789 24.389L538.549 23.381L538.429 22.469V21.629L538.453 20.837L538.501 20.429L538.525 20.093L538.597 19.421L538.669 19.037L538.765 18.557L538.909 18.149L539.029 17.549L539.149 17.141L539.293 16.877L539.341 16.637L539.413 16.373L539.509 16.109L539.557 15.941L539.677 15.749L539.797 15.389L539.941 15.101L540.037 14.837L540.277 14.549L540.397 14.165L540.685 13.877L540.925 13.493L541.357 12.965L541.861 12.509L542.389 12.125L542.773 11.861L543.469 11.549L544.093 11.309L545.221 11.045L545.653 10.973L547.045 10.877L547.405 10.901L547.909 10.973L548.413 11.117L548.869 11.309L549.733 11.765L550.405 12.341L550.981 12.965L551.581 13.805L551.941 14.597L552.229 15.389L552.373 16.013L552.445 16.469L552.541 17.093L552.565 17.525L552.613 18.053V20.501L552.565 21.149L552.493 21.701L552.421 22.085L552.349 22.157L552.229 22.613L552.109 23.213L552.133 23.453L552.013 23.645L552.061 23.861L551.989 24.029L551.893 24.437L551.773 25.085L551.533 25.853L551.317 26.477L551.269 26.693L551.149 26.837L550.981 27.125L550.789 27.389L550.669 27.629L550.477 27.725L549.997 28.205L549.253 28.733L548.821 28.925L548.293 29.117L547.765 29.237L547.333 29.309L546.925 29.429L546.757 29.453H545.629L545.533 29.477L545.437 29.453L545.317 29.477L544.765 29.597L543.829 29.549ZM545.677 26.069L545.605 25.997H545.509L545.461 26.045L545.485 26.069H545.581L545.677 26.141V26.069ZM546.013 26.093L546.037 26.045H545.965L545.989 26.093H546.013ZM546.325 25.949L546.301 25.925L546.229 26.021L546.325 25.949ZM545.965 25.805L546.325 25.733H546.469L546.613 25.685L546.709 25.589L546.949 25.493L547.237 25.373L547.333 25.277L547.501 25.085L547.693 24.821L547.909 24.533L548.053 24.053L548.197 23.669L548.245 23.429L548.317 23.261V22.997L548.413 22.733L548.509 22.589L548.485 22.469L548.461 22.301L548.509 22.133L548.629 21.965L548.557 21.773L548.677 21.557L548.653 21.365L548.701 21.053L548.725 20.621L548.797 20.285L548.773 20.045L548.821 19.493V18.941L548.845 18.677L548.821 18.245L548.773 17.813V17.549L548.749 17.429L548.725 17.237L548.605 16.829L548.341 16.109L548.101 15.725L547.549 15.125L547.093 14.861L546.541 14.717L545.653 14.837L545.269 14.957H545.005L544.885 15.005L544.645 15.125L544.333 15.365L544.141 15.509L544.093 15.653L543.877 15.821L543.565 16.277L543.373 16.589L543.301 16.781L543.181 17.069L543.133 17.309L543.037 17.525L542.941 17.933L542.845 18.269L542.797 18.485L542.701 18.821L542.629 19.397L542.533 20.237L542.485 20.957L542.557 21.557L542.605 22.133L542.701 22.781L542.845 23.237L542.917 23.501L543.085 23.813L543.445 24.365L544.213 25.037L544.981 25.493L545.365 25.661L545.461 25.709L545.413 25.805L545.509 25.853L545.965 25.805ZM548.629 22.925L548.653 22.853L548.701 22.685L548.725 22.517H548.701L548.653 22.637L548.629 22.781L548.581 22.973L548.629 22.997V22.925Z" fill="#1A262D"/>
<path d="M555.394 28.781L555.322 28.613L555.034 28.565H554.722L554.386 28.469L554.362 28.181L554.386 27.773V26.477L554.338 26.261L554.314 25.973L554.386 25.781L554.578 25.661L554.842 25.349L554.986 25.157L555.322 24.845L555.61 24.509L556.186 23.909L556.594 23.477L556.762 23.309L556.834 23.189L556.978 23.021L557.074 22.925L557.146 22.805L557.506 22.565L557.818 22.253L558.154 22.013L558.85 21.389L559.114 21.029L559.426 20.717L559.858 20.237L560.194 19.877L560.458 19.517L560.938 18.917L561.37 18.269L561.61 17.789L561.73 17.165V16.757L561.634 16.325L561.298 15.677L560.866 15.197L560.146 15.005L559.45 14.981L558.106 15.269L557.482 15.533L556.666 15.941L556.162 16.229L556.09 16.133L555.994 16.061L555.898 15.917L555.874 15.821L555.826 15.773L555.802 15.653L555.658 15.485L555.634 15.293L555.658 15.149L555.562 15.125L555.442 15.053L555.49 14.885L555.37 14.693L555.322 14.621L555.37 14.501L555.274 14.453L555.202 14.405V14.333L555.178 14.213V14.093L555.154 13.997L555.106 13.973L555.01 13.949L554.986 13.901L554.962 13.757L554.914 13.589L554.866 13.469L554.842 13.325L554.77 13.109L554.818 12.941L554.986 12.821L555.322 12.653L555.634 12.461V12.317L555.874 12.173L556.378 11.957L556.81 11.765L557.194 11.621L557.77 11.453L558.394 11.333L558.85 11.285L559.138 11.237H559.546L559.906 11.261H560.17L560.386 11.285L560.554 11.237L560.842 11.285L561.274 11.381L561.826 11.573L562.522 11.837L562.882 11.981L563.122 12.173L563.77 12.773L564.01 13.061L564.226 13.373L564.37 13.685L564.538 13.853L564.682 14.069L564.874 14.429L564.994 14.837L565.21 15.341L565.378 15.893L565.498 16.445L565.522 17.189L565.498 17.549V18.269L565.402 18.605L565.306 18.965L565.21 19.205L565.042 19.565L564.85 20.021L564.658 20.333L564.49 20.477L564.25 20.741L563.962 20.957L563.698 21.317L563.41 21.653L563.122 21.941L562.81 22.277L562.594 22.517L562.306 22.877L561.49 23.693L560.842 24.293L560.458 24.605L560.338 24.701L560.314 24.773L560.602 24.845L561.37 24.917L561.778 24.893L562.546 24.965L563.146 25.013H563.674L563.866 25.085L564.106 25.109L564.37 25.157L564.514 25.205L564.562 25.517L564.682 25.829L564.778 25.925L564.73 26.045L564.658 26.141L564.634 26.285L564.73 26.453L564.754 26.597L564.706 26.717V26.885L564.586 26.981L564.538 27.029L564.61 27.221L564.634 27.485L564.514 27.629L564.562 27.821L564.586 28.061L564.538 28.253L564.562 28.397L564.466 28.517L564.274 28.637L563.818 28.661H563.218L562.522 28.685L561.682 28.613L561.154 28.637H560.674L560.17 28.613H559.882L558.682 28.661L557.698 28.757L556.978 28.781L556.69 28.829L556.21 28.853L555.706 28.781L555.61 28.757L555.49 28.853L555.394 28.781Z" fill="#1A262D"/>
<path d="M574.218 28.781V28.733L574.194 28.709L574.074 28.661L573.882 28.757L573.69 28.781L573.57 28.709L573.378 28.661H573.162L573.018 28.613H572.898L572.85 28.373L572.898 28.133L572.874 27.725L572.898 27.293L572.778 27.221L572.754 27.125V25.805L572.73 25.445L572.754 25.205L572.658 25.037H572.298L571.89 25.061L571.386 25.109L570.954 25.181H570.762L570.522 25.205L570.33 25.229L570.066 25.301L569.562 25.373L568.986 25.445L567.762 25.637L567.186 25.661L567.162 25.613L567.066 25.565V25.469L567.042 25.373L567.066 25.301L567.018 25.205L567.042 25.085V24.941L567.066 24.797L566.97 24.725L567.09 24.605L567.114 24.533L566.994 24.485V24.389L567.042 24.317L566.946 24.221L566.994 24.053L566.946 23.837V23.645L566.874 23.525L566.898 23.237L566.826 23.021L566.85 22.925L566.778 22.565L566.754 22.301L566.73 22.157L566.778 22.061L566.85 21.821L566.946 21.413L567.018 21.173L567.042 20.885L567.114 20.501L567.138 20.117L567.186 19.877V19.733L567.306 19.493L567.354 19.205V18.941L567.378 18.773V18.557L567.498 18.341L567.594 17.933L567.666 17.525L567.642 17.261L567.738 16.685L567.906 15.845L567.978 15.413L568.122 14.717L568.29 13.949L568.482 13.157L568.53 12.869L568.65 12.461L568.794 11.885L568.938 11.693L569.034 11.669L569.178 11.693L569.346 11.669L569.61 11.717L569.754 11.693L569.922 11.717L570.066 11.693L570.162 11.741L570.258 11.669L570.378 11.717L570.426 11.765L570.498 11.717H570.762L570.93 11.645L571.098 11.693L571.458 11.621L571.626 11.669L571.818 11.621H572.154L572.346 11.645H572.466L572.514 11.693L572.442 12.101L572.274 13.013L572.082 13.709L571.914 14.381L571.794 14.885L571.602 15.845L571.41 16.829L571.314 17.333L571.122 18.245L571.05 18.677L570.762 20.189L570.642 20.837L570.57 21.245L570.594 21.341L570.786 21.389H572.418L572.514 21.365L572.538 21.173L572.586 20.933L572.538 20.525V20.189L572.442 20.045V19.349L572.466 18.317V16.877L572.49 16.253L572.514 15.965L572.61 15.725L572.634 15.581V15.221L572.658 14.861L572.682 14.717L572.706 14.477L572.778 14.381L572.874 14.333L573.114 14.285L573.45 14.309L573.786 14.261L573.906 14.333L574.074 14.261H574.314L574.506 14.285L574.578 14.357L574.65 14.285L574.77 14.213H574.89L575.01 14.261L575.154 14.213L575.226 14.261L575.298 14.213L575.418 14.165H575.61L575.754 14.117L575.946 14.189L576.21 14.213L576.402 14.309L576.426 14.501V14.885L576.402 15.509L576.426 15.845L576.402 16.253V19.205L576.378 19.613V19.925L576.33 20.357L576.402 20.717L576.33 20.957L576.378 21.149V21.341L576.474 21.413H576.858L577.002 21.461L577.122 21.413L577.506 21.365L577.89 21.389L578.106 21.437L578.346 21.509L578.442 21.749L578.514 21.917L578.586 21.965L578.61 22.061L578.586 22.229L578.658 22.301V22.397L578.61 22.541L578.418 22.613L578.322 22.661L578.49 22.709L578.61 22.805L578.682 22.925L578.61 23.093L578.514 23.213L578.442 23.285V23.357L578.538 23.381L578.634 23.429L578.586 23.501L578.49 23.669L578.418 23.861L578.322 24.005L578.418 24.077L578.442 24.197V24.293L578.346 24.341L578.274 24.461L578.202 24.677L578.25 24.821L577.986 24.869L577.53 24.845L576.714 24.869L576.498 24.917L576.426 25.373L576.402 25.901L576.378 26.237L576.354 26.453L576.306 26.525L576.234 27.461L576.21 27.941L576.234 28.085L576.306 28.133L576.33 28.253L576.306 28.421L576.258 28.613H575.97L575.802 28.685L575.73 28.733L575.658 28.637L575.586 28.613L575.442 28.637L575.274 28.709L575.082 28.685L574.914 28.637L574.89 28.685L574.842 28.709L574.746 28.637L574.578 28.661L574.482 28.685L574.41 28.781L574.266 28.829L574.218 28.781Z" fill="#1A262D"/>
<path fill-rule="evenodd" clip-rule="evenodd" d="M615.683 21.237H595.683V19.237H615.683V21.237Z" fill="#1A262D"/>
</svg>
