<svg width="329" height="41" viewBox="0 0 329 41" fill="none" xmlns="http://www.w3.org/2000/svg">
<path d="M82.7401 2.09337e-06C83.0025 0.0784785 83.268 0.147772 83.5265 0.237149C84.3112 0.508443 84.9275 0.99928 85.4338 1.64794C85.5483 1.79461 85.7463 1.9057 85.9286 1.9674C86.7381 2.24144 87.5632 2.47182 88.3671 2.76051C88.6696 2.86913 88.9534 3.06482 89.2036 3.27096C89.5515 3.5576 89.4833 3.86019 89.0443 3.98277C88.7302 4.07049 88.3946 4.12608 88.0691 4.12352C86.1842 4.10871 84.3708 3.75158 82.6713 2.92134C82.3885 2.78317 82.1443 2.56753 81.8167 2.44861C82.0676 2.67649 82.2937 2.94121 82.5739 3.12559C83.5507 3.76852 84.6459 4.15066 85.7645 4.47191C85.8648 4.50071 85.9654 4.52855 86.1019 4.56699C85.9818 5.43794 85.5888 6.15611 84.9727 6.75568C83.7559 7.93966 81.9247 8.21428 80.3905 7.45752C78.9076 6.72608 78.0308 5.10313 78.2331 3.4641C78.4385 1.79946 79.7068 0.43535 81.3752 0.0819012C81.462 0.0635046 81.5451 0.0277006 81.6299 0C82 0 82.3701 2.09337e-06 82.7401 2.09337e-06Z" fill="#1A262D"/>
<path d="M82.8194 40.1928C82.2511 39.9977 81.7399 39.7309 81.3877 39.215C81.0278 38.6879 81.0102 38.0804 80.9364 37.4887C80.6138 34.9002 80.057 32.3679 79.1293 29.9216C79.1024 29.8508 79.0863 29.7759 79.0543 29.6657C80.4873 29.2746 81.8514 28.7691 83.0469 27.7757C83.296 28.4657 83.5488 29.1165 83.7669 29.7786C84.6126 32.3466 85.1275 34.9847 85.4233 37.6658C85.5599 38.9035 85.0048 39.6582 83.6124 40.1928H82.8194Z" fill="#1A262D"/>
<path d="M80.5314 14.0217C80.2774 13.244 80.0068 12.4712 79.7739 11.6873C79.5328 10.876 78.9047 10.3519 78.0883 10.3328C77.3011 10.3143 76.5874 10.785 76.379 11.5345C76.2914 11.8495 76.2706 12.2192 76.344 12.5357C76.86 14.7604 77.8114 16.7534 79.5747 18.3002C79.6676 18.3816 79.7052 18.5709 79.7005 18.7077C79.6671 19.6734 79.6019 20.6383 79.5823 21.6042C79.5783 21.8013 79.6794 22.0372 79.808 22.1944C81.0639 23.7306 82.0217 25.4362 82.8433 27.3238C82.3071 27.6589 81.8013 28.0444 81.2376 28.3094C80.5739 28.6213 79.8583 28.8242 79.169 29.0841C78.9208 29.1777 78.779 29.1232 78.692 28.8664C78.6183 28.649 78.5047 28.4449 78.3871 28.1874C78.1209 28.8715 77.8791 29.4928 77.5883 30.2399C76.8931 29.5817 76.2582 29.0186 75.6697 28.4115C75.195 27.9218 74.7653 27.3876 74.341 26.8534C74.2429 26.7301 74.2116 26.5265 74.2115 26.3598C74.2108 25.4086 74.2335 24.4574 74.2349 23.5061C74.235 23.3841 74.1869 23.2393 74.1114 23.1436C73.4318 22.2833 73.2867 21.2741 73.231 20.2274C73.0815 17.4203 73.4731 14.6999 74.5114 12.0771C74.5433 11.9966 74.5594 11.9101 74.5983 11.7715C73.8884 12.1279 73.3427 12.591 72.8722 13.1437C71.9152 14.2678 71.3706 15.5907 70.9907 16.9925C70.7585 17.849 70.2871 18.2793 69.5769 18.2939C68.6837 18.3123 67.9553 17.5348 68.1643 16.6593C68.8051 13.976 69.9501 11.5639 72.2852 9.89517C74.3619 8.41117 76.6953 8.0266 79.1826 8.49792C80.2437 8.69899 80.9858 9.66558 81.1613 10.8842C81.3188 11.9781 80.9351 12.9707 80.6834 13.9914C80.6328 14.0015 80.5821 14.0116 80.5314 14.0217Z" fill="#1A262D"/>
<path d="M73.9755 27.4047C75.0623 28.5018 76.138 29.5876 77.2534 30.7137C76.5275 31.8925 75.486 32.8595 74.1506 33.5092C72.457 34.3331 70.6505 34.5443 68.7927 34.4273C68.2408 34.3926 67.684 34.3439 67.1443 34.2315C65.9671 33.9864 65.2453 32.8638 65.4641 31.6859C65.6731 30.5609 66.7842 29.815 67.9577 29.9307C68.8203 30.0157 69.7044 30.0978 70.5593 30.0047C72.4832 29.7952 73.2639 29.1445 73.9755 27.4047Z" fill="#1A262D"/>
<path d="M84.2435 19.7174C81.9646 19.5978 80.1486 18.679 78.7546 16.9351C77.6786 15.589 77.027 14.0438 76.6621 12.3769C76.4931 11.6052 76.9682 10.8942 77.7371 10.712C78.4825 10.5354 79.2248 10.9914 79.4166 11.7694C79.6557 12.7387 79.9809 13.6716 80.5071 14.5283C81.7305 16.5196 83.4308 17.202 85.7031 16.6131C85.8433 16.5767 85.981 16.529 86.1226 16.4999C86.8947 16.3411 87.622 16.7693 87.8163 17.493C88.0148 18.2321 87.633 18.9909 86.8683 19.1901C86.0063 19.4146 85.1195 19.5457 84.2435 19.7174Z" fill="#1A262D"/>
<path fill-rule="evenodd" clip-rule="evenodd" d="M125.425 21.0964H105.425V19.0964H125.425V21.0964Z" fill="#1A262D"/>
<path fill-rule="evenodd" clip-rule="evenodd" d="M161.425 21.0964H141.425V19.0964H161.425V21.0964Z" fill="#1A262D"/>
<path fill-rule="evenodd" clip-rule="evenodd" d="M197.425 21.0964H177.425V19.0964H197.425V21.0964Z" fill="#1A262D"/>
<path d="M230.74 2.09337e-06C231.002 0.0784785 231.268 0.147772 231.527 0.237149C232.311 0.508443 232.927 0.99928 233.434 1.64794C233.548 1.79461 233.746 1.9057 233.929 1.9674C234.738 2.24144 235.563 2.47182 236.367 2.76051C236.67 2.86913 236.953 3.06482 237.204 3.27096C237.551 3.5576 237.483 3.86019 237.044 3.98277C236.73 4.07049 236.395 4.12608 236.069 4.12352C234.184 4.10871 232.371 3.75158 230.671 2.92134C230.388 2.78317 230.144 2.56753 229.817 2.44861C230.068 2.67649 230.294 2.94121 230.574 3.12559C231.551 3.76852 232.646 4.15066 233.765 4.47191C233.865 4.50071 233.965 4.52855 234.102 4.56699C233.982 5.43794 233.589 6.15611 232.973 6.75568C231.756 7.93966 229.925 8.21428 228.39 7.45752C226.908 6.72608 226.031 5.10313 226.233 3.4641C226.439 1.79946 227.707 0.43535 229.375 0.0819012C229.462 0.0635046 229.545 0.0277006 229.63 0C230 0 230.37 2.09337e-06 230.74 2.09337e-06Z" fill="#1A262D"/>
<path d="M230.819 40.1928C230.251 39.9977 229.74 39.7309 229.388 39.215C229.028 38.6879 229.01 38.0804 228.936 37.4887C228.614 34.9002 228.057 32.3679 227.129 29.9216C227.102 29.8508 227.086 29.7759 227.054 29.6657C228.487 29.2746 229.851 28.7691 231.047 27.7757C231.296 28.4657 231.549 29.1165 231.767 29.7786C232.613 32.3466 233.127 34.9847 233.423 37.6658C233.56 38.9035 233.005 39.6582 231.612 40.1928H230.819Z" fill="#1A262D"/>
<path d="M228.531 14.0217C228.277 13.244 228.007 12.4712 227.774 11.6873C227.533 10.876 226.905 10.3519 226.088 10.3328C225.301 10.3143 224.587 10.785 224.379 11.5345C224.291 11.8495 224.271 12.2192 224.344 12.5357C224.86 14.7604 225.811 16.7534 227.575 18.3002C227.668 18.3816 227.705 18.5709 227.7 18.7077C227.667 19.6734 227.602 20.6383 227.582 21.6042C227.578 21.8013 227.679 22.0372 227.808 22.1944C229.064 23.7306 230.022 25.4362 230.843 27.3238C230.307 27.6589 229.801 28.0444 229.238 28.3094C228.574 28.6213 227.858 28.8242 227.169 29.0841C226.921 29.1777 226.779 29.1232 226.692 28.8664C226.618 28.649 226.505 28.4449 226.387 28.1874C226.121 28.8715 225.879 29.4928 225.588 30.2399C224.893 29.5817 224.258 29.0186 223.67 28.4115C223.195 27.9218 222.765 27.3876 222.341 26.8534C222.243 26.7301 222.212 26.5265 222.211 26.3598C222.211 25.4086 222.233 24.4574 222.235 23.5061C222.235 23.3841 222.187 23.2393 222.111 23.1436C221.432 22.2833 221.287 21.2741 221.231 20.2274C221.081 17.4203 221.473 14.6999 222.511 12.0771C222.543 11.9966 222.559 11.9101 222.598 11.7715C221.888 12.1279 221.343 12.591 220.872 13.1437C219.915 14.2678 219.371 15.5907 218.991 16.9925C218.759 17.849 218.287 18.2793 217.577 18.2939C216.684 18.3123 215.955 17.5348 216.164 16.6593C216.805 13.976 217.95 11.5639 220.285 9.89517C222.362 8.41117 224.695 8.0266 227.183 8.49792C228.244 8.69899 228.986 9.66558 229.161 10.8842C229.319 11.9781 228.935 12.9707 228.683 13.9914C228.633 14.0015 228.582 14.0116 228.531 14.0217Z" fill="#1A262D"/>
<path d="M221.976 27.4047C223.062 28.5018 224.138 29.5876 225.253 30.7137C224.528 31.8925 223.486 32.8595 222.151 33.5092C220.457 34.3331 218.651 34.5443 216.793 34.4273C216.241 34.3926 215.684 34.3439 215.144 34.2315C213.967 33.9864 213.245 32.8638 213.464 31.6859C213.673 30.5609 214.784 29.815 215.958 29.9307C216.82 30.0157 217.704 30.0978 218.559 30.0047C220.483 29.7952 221.264 29.1445 221.976 27.4047Z" fill="#1A262D"/>
<path d="M232.244 19.7174C229.965 19.5978 228.149 18.679 226.755 16.9351C225.679 15.589 225.027 14.0438 224.662 12.3769C224.493 11.6052 224.968 10.8942 225.737 10.712C226.482 10.5354 227.225 10.9914 227.417 11.7694C227.656 12.7387 227.981 13.6716 228.507 14.5283C229.731 16.5196 231.431 17.202 233.703 16.6131C233.843 16.5767 233.981 16.529 234.123 16.4999C234.895 16.3411 235.622 16.7693 235.816 17.493C236.015 18.2321 235.633 18.9909 234.868 19.1901C234.006 19.4146 233.12 19.5457 232.244 19.7174Z" fill="#1A262D"/>
<path fill-rule="evenodd" clip-rule="evenodd" d="M328.048 19H309.086V17H328.048V19Z" fill="#1A262D"/>
<path d="M1.97963 29.1525L1.91136 28.9845L1.63831 28.9365H1.34251L1.02395 28.8405L1.0012 28.5525L1.02395 28.1445V26.8485L0.978443 26.6325L0.955688 26.3445L1.02395 26.1525L1.20598 26.0325L1.45628 25.7205L1.59281 25.5285L1.91136 25.2165L2.18441 24.8805L2.73052 24.2805L3.11734 23.8485L3.27662 23.6805L3.34488 23.5605L3.4814 23.3925L3.57242 23.2965L3.64068 23.1765L3.982 22.9365L4.2778 22.6245L4.59636 22.3845L5.25623 21.7605L5.50653 21.4005L5.80233 21.0885L6.21191 20.6085L6.53047 20.2485L6.78076 19.8885L7.23584 19.2885L7.64542 18.6405L7.87296 18.1605L7.98673 17.5365V17.1285L7.89572 16.6965L7.57716 16.0485L7.16758 15.5685L6.48496 15.3765L5.82508 15.3525L4.55085 15.6405L3.95924 15.9045L3.1856 16.3125L2.70776 16.6005L2.6395 16.5045L2.54848 16.4325L2.45746 16.2885L2.43471 16.1925L2.3892 16.1445L2.36645 16.0245L2.22992 15.8565L2.20717 15.6645L2.22992 15.5205L2.13891 15.4965L2.02514 15.4245L2.07064 15.2565L1.95687 15.0645L1.91136 14.9925L1.95687 14.8725L1.86586 14.8245L1.79759 14.7765V14.7045L1.77484 14.5845V14.4645L1.75209 14.3685L1.70658 14.3445L1.61556 14.3205L1.59281 14.2725L1.57005 14.1285L1.52454 13.9605L1.47903 13.8405L1.45628 13.6965L1.38802 13.4805L1.43353 13.3125L1.59281 13.1925L1.91136 13.0245L2.20717 12.8325V12.6885L2.43471 12.5445L2.91255 12.3285L3.32212 12.1365L3.68619 11.9925L4.23229 11.8245L4.8239 11.7045L5.25623 11.6565L5.52928 11.6085H5.9161L6.25741 11.6325H6.50771L6.7125 11.6565L6.87178 11.6085L7.14483 11.6565L7.5544 11.7525L8.07775 11.9445L8.73762 12.2085L9.07893 12.3525L9.30648 12.5445L9.92084 13.1445L10.1484 13.4325L10.3532 13.7445L10.4897 14.0565L10.649 14.2245L10.7855 14.4405L10.9675 14.8005L11.0813 15.2085L11.2861 15.7125L11.4454 16.2645L11.5591 16.8165L11.5819 17.5605L11.5591 17.9205V18.6405L11.4681 18.9765L11.3771 19.3365L11.2861 19.5765L11.1268 19.9365L10.9448 20.3925L10.7627 20.7045L10.6035 20.8485L10.3759 21.1125L10.1029 21.3285L9.85258 21.6885L9.57953 22.0245L9.30648 22.3125L9.01067 22.6485L8.80588 22.8885L8.53283 23.2485L7.75919 24.0645L7.14483 24.6645L6.78076 24.9765L6.66699 25.0725L6.64424 25.1445L6.91729 25.2165L7.64542 25.2885L8.03224 25.2645L8.76038 25.3365L9.32923 25.3845H9.82982L10.0119 25.4565L10.2394 25.4805L10.4897 25.5285L10.6262 25.5765L10.6717 25.8885L10.7855 26.2005L10.8765 26.2965L10.831 26.4165L10.7627 26.5125L10.74 26.6565L10.831 26.8245L10.8538 26.9685L10.8083 27.0885V27.2565L10.6945 27.3525L10.649 27.4005L10.7172 27.5925L10.74 27.8565L10.6262 28.0005L10.6717 28.1925L10.6945 28.4325L10.649 28.6245L10.6717 28.7685L10.5807 28.8885L10.3987 29.0085L9.96635 29.0325H9.39749L8.73762 29.0565L7.94122 28.9845L7.44063 29.0085H6.98555L6.50771 28.9845H6.23466L5.09695 29.0325L4.16403 29.1285L3.4814 29.1525L3.20835 29.2005L2.75327 29.2245L2.27543 29.1525L2.18441 29.1285L2.07064 29.2245L1.97963 29.1525Z" fill="#1A262D"/>
<path d="M18.4154 29.4165L18.0059 29.3685L17.3915 29.1525L16.8909 28.9365L16.5268 28.8165L15.9125 28.4805L15.3664 28.0725L15.0706 27.7605L14.934 27.4725L14.7293 27.2085L14.3879 26.8005L14.1149 26.3445L13.9556 25.9845L13.7508 25.6245L13.5005 25.0965L13.364 24.2805L13.3185 23.2485L13.3413 22.4085L13.273 21.9525L13.2502 21.2805L13.2047 20.2245L13.182 19.3845V18.6885L13.2275 18.2805L13.273 17.6805L13.4095 16.8405L13.5005 16.4565L13.6143 15.9045L13.8191 15.2325L13.9329 14.9205L14.0239 14.7765L14.2514 14.3445L14.57 13.9125L14.7065 13.7445L14.8203 13.7685L14.934 13.6485L15.1161 13.4325L15.5939 12.9765L15.9807 12.6645L16.7089 12.2565L17.437 12.0165L17.9831 11.8965L18.4154 11.8485L18.643 11.8005L19.0298 11.7765L19.4394 11.7045H19.5304L19.5759 11.6565H19.6669L19.8034 11.6325L19.94 11.7045L20.2813 11.7525L20.7364 11.8005L21.3962 11.9205L22.0561 12.2085L22.4202 12.4245L22.7615 12.7125L23.1938 13.1205L23.5806 13.5285L24.013 14.1525L24.2405 14.5365L24.5363 15.0405L24.7639 15.6885L24.9914 16.6245L25.1052 17.2245L25.1279 17.4885L25.1734 17.7765L25.2189 18.1845L25.2417 18.4245V18.9525L25.2189 19.4805L25.1962 19.9605V20.6325L25.2189 21.1605L25.1962 21.4245V21.7845L25.1507 22.2885L25.1962 22.9365L25.1279 23.6085L25.0597 24.1125L25.0142 24.4965L24.9231 24.8085L24.8549 25.1685L24.7639 25.4565L24.5591 26.3205L24.2633 27.0885L23.8992 27.7125L23.5806 28.0725L23.2393 28.3605L22.989 28.5765L22.5795 28.8165L22.0789 29.0805L21.692 29.2005L21.5328 29.1525L21.1232 29.1765L20.304 29.2005H19.7124L19.4394 29.3925L18.916 29.4405L18.4154 29.4165ZM20.3268 29.0325V28.9845H20.1903L20.1448 29.0085L20.2813 29.0325H20.3268ZM21.1232 29.0325L21.4645 28.9605H21.692L21.8968 28.8645L21.8286 28.8405L21.6238 28.9125L21.4645 28.9365L21.237 28.9605L20.9412 29.0085L20.5771 28.9845L20.5088 29.0325L20.6453 29.0565L21.1232 29.0325ZM22.0789 28.7925L22.1471 28.7205H22.1926V28.6965L22.0561 28.7445L21.9878 28.7925L21.9423 28.8165V28.8405L22.0789 28.7925ZM20.0082 25.7925L20.3723 25.7205L20.8956 25.4565L21.1915 25.0725L21.4417 24.6645L21.5783 23.9925L21.692 23.2485L21.7603 22.6485L21.7831 22.2645L21.7603 21.9525L21.7831 21.4485L21.8286 20.9925L21.8058 20.6805L21.8513 20.4405L21.8286 19.8645V18.4965L21.7376 17.7285L21.5555 16.8645L21.1687 16.0725L20.8729 15.6885L20.5998 15.5685L19.6442 15.4005L19.2801 15.4245H19.0526L18.916 15.3525L18.5065 15.3765L17.7783 15.6405L17.4143 15.9285L17.255 16.1205L16.9592 16.6245L16.7316 17.5605L16.5723 18.5445L16.5496 19.3605V19.9365L16.5951 20.6565L16.6634 21.7605L16.5951 22.8165L16.6861 23.2725L16.9592 23.9445L17.1185 24.2805L17.346 24.5445L17.619 24.8565L18.1879 25.3605L18.9615 25.7205L19.3484 25.7445L19.6669 25.8165L20.0082 25.7925ZM17.8921 14.2485L18.1879 14.1765L18.5292 14.1285L18.643 14.1045L18.5975 14.0805L18.2562 14.1045L17.9604 14.2245L17.8011 14.2485H17.8921Z" fill="#1A262D"/>
<path d="M27.8892 29.1525L27.8209 28.9845L27.5479 28.9365H27.2521L26.9335 28.8405L26.9108 28.5525L26.9335 28.1445V26.8485L26.888 26.6325L26.8652 26.3445L26.9335 26.1525L27.1155 26.0325L27.3658 25.7205L27.5024 25.5285L27.8209 25.2165L28.094 24.8805L28.6401 24.2805L29.0269 23.8485L29.1862 23.6805L29.2544 23.5605L29.391 23.3925L29.482 23.2965L29.5502 23.1765L29.8915 22.9365L30.1874 22.6245L30.5059 22.3845L31.1658 21.7605L31.4161 21.4005L31.7119 21.0885L32.1215 20.6085L32.44 20.2485L32.6903 19.8885L33.1454 19.2885L33.555 18.6405L33.7825 18.1605L33.8963 17.5365V17.1285L33.8053 16.6965L33.4867 16.0485L33.0771 15.5685L32.3945 15.3765L31.7346 15.3525L30.4604 15.6405L29.8688 15.9045L29.0952 16.3125L28.6173 16.6005L28.5491 16.5045L28.458 16.4325L28.367 16.2885L28.3443 16.1925L28.2988 16.1445L28.276 16.0245L28.1395 15.8565L28.1167 15.6645L28.1395 15.5205L28.0485 15.4965L27.9347 15.4245L27.9802 15.2565L27.8664 15.0645L27.8209 14.9925L27.8664 14.8725L27.7754 14.8245L27.7071 14.7765V14.7045L27.6844 14.5845V14.4645L27.6616 14.3685L27.6161 14.3445L27.5251 14.3205L27.5024 14.2725L27.4796 14.1285L27.4341 13.9605L27.3886 13.8405L27.3658 13.6965L27.2976 13.4805L27.3431 13.3125L27.5024 13.1925L27.8209 13.0245L28.1167 12.8325V12.6885L28.3443 12.5445L28.8221 12.3285L29.2317 12.1365L29.5957 11.9925L30.1418 11.8245L30.7335 11.7045L31.1658 11.6565L31.4388 11.6085H31.8257L32.167 11.6325H32.4173L32.622 11.6565L32.7813 11.6085L33.0544 11.6565L33.464 11.7525L33.9873 11.9445L34.6472 12.2085L34.9885 12.3525L35.216 12.5445L35.8304 13.1445L36.0579 13.4325L36.2627 13.7445L36.3992 14.0565L36.5585 14.2245L36.695 14.4405L36.8771 14.8005L36.9909 15.2085L37.1956 15.7125L37.3549 16.2645L37.4687 16.8165L37.4914 17.5605L37.4687 17.9205V18.6405L37.3777 18.9765L37.2867 19.3365L37.1956 19.5765L37.0364 19.9365L36.8543 20.3925L36.6723 20.7045L36.513 20.8485L36.2855 21.1125L36.0124 21.3285L35.7621 21.6885L35.4891 22.0245L35.216 22.3125L34.9202 22.6485L34.7154 22.8885L34.4424 23.2485L33.6687 24.0645L33.0544 24.6645L32.6903 24.9765L32.5765 25.0725L32.5538 25.1445L32.8268 25.2165L33.555 25.2885L33.9418 25.2645L34.6699 25.3365L35.2388 25.3845H35.7394L35.9214 25.4565L36.1489 25.4805L36.3992 25.5285L36.5358 25.5765L36.5813 25.8885L36.695 26.2005L36.7861 26.2965L36.7406 26.4165L36.6723 26.5125L36.6495 26.6565L36.7406 26.8245L36.7633 26.9685L36.7178 27.0885V27.2565L36.604 27.3525L36.5585 27.4005L36.6268 27.5925L36.6495 27.8565L36.5358 28.0005L36.5813 28.1925L36.604 28.4325L36.5585 28.6245L36.5813 28.7685L36.4903 28.8885L36.3082 29.0085L35.8759 29.0325H35.307L34.6472 29.0565L33.8508 28.9845L33.3502 29.0085H32.8951L32.4173 28.9845H32.1442L31.0065 29.0325L30.0736 29.1285L29.391 29.1525L29.1179 29.2005L28.6628 29.2245L28.185 29.1525L28.094 29.1285L27.9802 29.2245L27.8892 29.1525Z" fill="#1A262D"/>
<path d="M39.9107 29.1525L39.8424 28.9845L39.5694 28.9365H39.2736L38.955 28.8405L38.9323 28.5525L38.955 28.1445V26.8485L38.9095 26.6325L38.8867 26.3445L38.955 26.1525L39.137 26.0325L39.3873 25.7205L39.5239 25.5285L39.8424 25.2165L40.1155 24.8805L40.6616 24.2805L41.0484 23.8485L41.2077 23.6805L41.2759 23.5605L41.4125 23.3925L41.5035 23.2965L41.5717 23.1765L41.913 22.9365L42.2089 22.6245L42.5274 22.3845L43.1873 21.7605L43.4376 21.4005L43.7334 21.0885L44.143 20.6085L44.4615 20.2485L44.7118 19.8885L45.1669 19.2885L45.5765 18.6405L45.804 18.1605L45.9178 17.5365V17.1285L45.8268 16.6965L45.5082 16.0485L45.0986 15.5685L44.416 15.3765L43.7561 15.3525L42.4819 15.6405L41.8903 15.9045L41.1167 16.3125L40.6388 16.6005L40.5706 16.5045L40.4795 16.4325L40.3885 16.2885L40.3658 16.1925L40.3203 16.1445L40.2975 16.0245L40.161 15.8565L40.1382 15.6645L40.161 15.5205L40.07 15.4965L39.9562 15.4245L40.0017 15.2565L39.8879 15.0645L39.8424 14.9925L39.8879 14.8725L39.7969 14.8245L39.7286 14.7765V14.7045L39.7059 14.5845V14.4645L39.6831 14.3685L39.6376 14.3445L39.5466 14.3205L39.5239 14.2725L39.5011 14.1285L39.4556 13.9605L39.4101 13.8405L39.3873 13.6965L39.3191 13.4805L39.3646 13.3125L39.5239 13.1925L39.8424 13.0245L40.1382 12.8325V12.6885L40.3658 12.5445L40.8436 12.3285L41.2532 12.1365L41.6172 11.9925L42.1633 11.8245L42.755 11.7045L43.1873 11.6565L43.4603 11.6085H43.8472L44.1885 11.6325H44.4388L44.6436 11.6565L44.8028 11.6085L45.0759 11.6565L45.4855 11.7525L46.0088 11.9445L46.6687 12.2085L47.01 12.3525L47.2375 12.5445L47.8519 13.1445L48.0794 13.4325L48.2842 13.7445L48.4207 14.0565L48.58 14.2245L48.7165 14.4405L48.8986 14.8005L49.0124 15.2085L49.2171 15.7125L49.3764 16.2645L49.4902 16.8165L49.5129 17.5605L49.4902 17.9205V18.6405L49.3992 18.9765L49.3082 19.3365L49.2171 19.5765L49.0579 19.9365L48.8758 20.3925L48.6938 20.7045L48.5345 20.8485L48.307 21.1125L48.0339 21.3285L47.7836 21.6885L47.5106 22.0245L47.2375 22.3125L46.9417 22.6485L46.7369 22.8885L46.4639 23.2485L45.6902 24.0645L45.0759 24.6645L44.7118 24.9765L44.598 25.0725L44.5753 25.1445L44.8483 25.2165L45.5765 25.2885L45.9633 25.2645L46.6914 25.3365L47.2603 25.3845H47.7609L47.9429 25.4565L48.1704 25.4805L48.4207 25.5285L48.5573 25.5765L48.6028 25.8885L48.7165 26.2005L48.8076 26.2965L48.7621 26.4165L48.6938 26.5125L48.671 26.6565L48.7621 26.8245L48.7848 26.9685L48.7393 27.0885V27.2565L48.6255 27.3525L48.58 27.4005L48.6483 27.5925L48.671 27.8565L48.5573 28.0005L48.6028 28.1925L48.6255 28.4325L48.58 28.6245L48.6028 28.7685L48.5118 28.8885L48.3297 29.0085L47.8974 29.0325H47.3285L46.6687 29.0565L45.8723 28.9845L45.3717 29.0085H44.9166L44.4388 28.9845H44.1657L43.028 29.0325L42.0951 29.1285L41.4125 29.1525L41.1394 29.2005L40.6843 29.2245L40.2065 29.1525L40.1155 29.1285L40.0017 29.2245L39.9107 29.1525Z" fill="#1A262D"/>
<path d="M244.69 27.5125L244.622 27.3445L244.349 27.2965H244.053L243.735 27.2005L243.712 26.9125L243.735 26.5045V25.2085L243.689 24.9925L243.666 24.7045L243.735 24.5125L243.917 24.3925L244.167 24.0805L244.303 23.8885L244.622 23.5765L244.895 23.2405L245.441 22.6405L245.828 22.2085L245.987 22.0405L246.056 21.9205L246.192 21.7525L246.283 21.6565L246.351 21.5365L246.693 21.2965L246.988 20.9845L247.307 20.7445L247.967 20.1205L248.217 19.7605L248.513 19.4485L248.923 18.9685L249.241 18.6085L249.491 18.2485L249.947 17.6485L250.356 17.0005L250.584 16.5205L250.697 15.8965V15.4885L250.606 15.0565L250.288 14.4085L249.878 13.9285L249.196 13.7365L248.536 13.7125L247.262 14.0005L246.67 14.2645L245.896 14.6725L245.418 14.9605L245.35 14.8645L245.259 14.7925L245.168 14.6485L245.145 14.5525L245.1 14.5045L245.077 14.3845L244.941 14.2165L244.918 14.0245L244.941 13.8805L244.85 13.8565L244.736 13.7845L244.781 13.6165L244.668 13.4245L244.622 13.3525L244.668 13.2325L244.577 13.1845L244.508 13.1365V13.0645L244.486 12.9445V12.8245L244.463 12.7285L244.417 12.7045L244.326 12.6805L244.303 12.6325L244.281 12.4885L244.235 12.3205L244.19 12.2005L244.167 12.0565L244.099 11.8405L244.144 11.6725L244.303 11.5525L244.622 11.3845L244.918 11.1925V11.0485L245.145 10.9045L245.623 10.6885L246.033 10.4965L246.397 10.3525L246.943 10.1845L247.535 10.0645L247.967 10.0165L248.24 9.96852H248.627L248.968 9.99252H249.218L249.423 10.0165L249.582 9.96852L249.856 10.0165L250.265 10.1125L250.788 10.3045L251.448 10.5685L251.79 10.7125L252.017 10.9045L252.632 11.5045L252.859 11.7925L253.064 12.1045L253.2 12.4165L253.36 12.5845L253.496 12.8005L253.678 13.1605L253.792 13.5685L253.997 14.0725L254.156 14.6245L254.27 15.1765L254.293 15.9205L254.27 16.2805V17.0005L254.179 17.3365L254.088 17.6965L253.997 17.9365L253.838 18.2965L253.655 18.7525L253.473 19.0645L253.314 19.2085L253.087 19.4725L252.814 19.6885L252.563 20.0485L252.29 20.3845L252.017 20.6725L251.721 21.0085L251.517 21.2485L251.244 21.6085L250.47 22.4245L249.856 23.0245L249.491 23.3365L249.378 23.4325L249.355 23.5045L249.628 23.5765L250.356 23.6485L250.743 23.6245L251.471 23.6965L252.04 23.7445H252.541L252.723 23.8165L252.95 23.8405L253.2 23.8885L253.337 23.9365L253.382 24.2485L253.496 24.5605L253.587 24.6565L253.542 24.7765L253.473 24.8725L253.451 25.0165L253.542 25.1845L253.564 25.3285L253.519 25.4485V25.6165L253.405 25.7125L253.36 25.7605L253.428 25.9525L253.451 26.2165L253.337 26.3605L253.382 26.5525L253.405 26.7925L253.36 26.9845L253.382 27.1285L253.291 27.2485L253.109 27.3685L252.677 27.3925H252.108L251.448 27.4165L250.652 27.3445L250.151 27.3685H249.696L249.218 27.3445H248.945L247.808 27.3925L246.875 27.4885L246.192 27.5125L245.919 27.5605L245.464 27.5845L244.986 27.5125L244.895 27.4885L244.781 27.5845L244.69 27.5125Z" fill="#1A262D"/>
<path d="M261.012 28.2805L260.421 28.0885L259.943 27.8725L259.465 27.5845L258.851 27.1525L258.464 26.8405L258.032 26.4085L257.667 26.0005L257.394 25.5685L257.076 25.0885L256.826 24.5845L256.689 24.2485L256.393 23.6005L256.234 23.1205L256.006 22.1125L255.893 21.2005V20.3605L255.915 19.5685L255.961 19.1605L255.984 18.8245L256.052 18.1525L256.12 17.7685L256.211 17.2885L256.348 16.8805L256.462 16.2805L256.575 15.8725L256.712 15.6085L256.757 15.3685L256.826 15.1045L256.917 14.8405L256.962 14.6725L257.076 14.4805L257.19 14.1205L257.326 13.8325L257.417 13.5685L257.645 13.2805L257.759 12.8965L258.032 12.6085L258.259 12.2245L258.669 11.6965L259.147 11.2405L259.647 10.8565L260.011 10.5925L260.671 10.2805L261.263 10.0405L262.332 9.77652L262.742 9.70452L264.061 9.60852L264.403 9.63252L264.881 9.70452L265.358 9.84852L265.791 10.0405L266.61 10.4965L267.247 11.0725L267.793 11.6965L268.362 12.5365L268.703 13.3285L268.976 14.1205L269.113 14.7445L269.181 15.2005L269.272 15.8245L269.295 16.2565L269.34 16.7845V19.2325L269.295 19.8805L269.227 20.4325L269.158 20.8165L269.09 20.8885L268.976 21.3445L268.863 21.9445L268.885 22.1845L268.772 22.3765L268.817 22.5925L268.749 22.7605L268.658 23.1685L268.544 23.8165L268.316 24.5845L268.112 25.2085L268.066 25.4245L267.952 25.5685L267.793 25.8565L267.611 26.1205L267.497 26.3605L267.315 26.4565L266.86 26.9365L266.155 27.4645L265.745 27.6565L265.245 27.8485L264.744 27.9685L264.334 28.0405L263.948 28.1605L263.788 28.1845H262.719L262.628 28.2085L262.537 28.1845L262.423 28.2085L261.9 28.3285L261.012 28.2805ZM262.764 24.8005L262.696 24.7285H262.605L262.56 24.7765L262.582 24.8005H262.673L262.764 24.8725V24.8005ZM263.083 24.8245L263.106 24.7765H263.037L263.06 24.8245H263.083ZM263.379 24.6805L263.356 24.6565L263.288 24.7525L263.379 24.6805ZM263.037 24.5365L263.379 24.4645H263.515L263.652 24.4165L263.743 24.3205L263.97 24.2245L264.243 24.1045L264.334 24.0085L264.494 23.8165L264.676 23.5525L264.881 23.2645L265.017 22.7845L265.154 22.4005L265.199 22.1605L265.267 21.9925V21.7285L265.358 21.4645L265.449 21.3205L265.427 21.2005L265.404 21.0325L265.449 20.8645L265.563 20.6965L265.495 20.5045L265.609 20.2885L265.586 20.0965L265.631 19.7845L265.654 19.3525L265.722 19.0165L265.7 18.7765L265.745 18.2245V17.6725L265.768 17.4085L265.745 16.9765L265.7 16.5445V16.2805L265.677 16.1605L265.654 15.9685L265.54 15.5605L265.29 14.8405L265.063 14.4565L264.539 13.8565L264.107 13.5925L263.584 13.4485L262.742 13.5685L262.378 13.6885H262.127L262.014 13.7365L261.786 13.8565L261.49 14.0965L261.308 14.2405L261.263 14.3845L261.058 14.5525L260.762 15.0085L260.58 15.3205L260.512 15.5125L260.398 15.8005L260.352 16.0405L260.261 16.2565L260.17 16.6645L260.079 17.0005L260.034 17.2165L259.943 17.5525L259.875 18.1285L259.784 18.9685L259.738 19.6885L259.806 20.2885L259.852 20.8645L259.943 21.5125L260.079 21.9685L260.148 22.2325L260.307 22.5445L260.648 23.0965L261.376 23.7685L262.105 24.2245L262.469 24.3925L262.56 24.4405L262.514 24.5365L262.605 24.5845L263.037 24.5365ZM265.563 21.6565L265.586 21.5845L265.631 21.4165L265.654 21.2485H265.631L265.586 21.3685L265.563 21.5125L265.518 21.7045L265.563 21.7285V21.6565Z" fill="#1A262D"/>
<path d="M271.978 27.5125L271.909 27.3445L271.636 27.2965H271.34L271.022 27.2005L270.999 26.9125L271.022 26.5045V25.2085L270.976 24.9925L270.954 24.7045L271.022 24.5125L271.204 24.3925L271.454 24.0805L271.591 23.8885L271.909 23.5765L272.182 23.2405L272.728 22.6405L273.115 22.2085L273.275 22.0405L273.343 21.9205L273.479 21.7525L273.57 21.6565L273.639 21.5365L273.98 21.2965L274.276 20.9845L274.594 20.7445L275.254 20.1205L275.504 19.7605L275.8 19.4485L276.21 18.9685L276.528 18.6085L276.779 18.2485L277.234 17.6485L277.643 17.0005L277.871 16.5205L277.985 15.8965V15.4885L277.894 15.0565L277.575 14.4085L277.166 13.9285L276.483 13.7365L275.823 13.7125L274.549 14.0005L273.957 14.2645L273.184 14.6725L272.706 14.9605L272.637 14.8645L272.546 14.7925L272.455 14.6485L272.433 14.5525L272.387 14.5045L272.364 14.3845L272.228 14.2165L272.205 14.0245L272.228 13.8805L272.137 13.8565L272.023 13.7845L272.069 13.6165L271.955 13.4245L271.909 13.3525L271.955 13.2325L271.864 13.1845L271.796 13.1365V13.0645L271.773 12.9445V12.8245L271.75 12.7285L271.705 12.7045L271.613 12.6805L271.591 12.6325L271.568 12.4885L271.522 12.3205L271.477 12.2005L271.454 12.0565L271.386 11.8405L271.431 11.6725L271.591 11.5525L271.909 11.3845L272.205 11.1925V11.0485L272.433 10.9045L272.91 10.6885L273.32 10.4965L273.684 10.3525L274.23 10.1845L274.822 10.0645L275.254 10.0165L275.527 9.96852H275.914L276.255 9.99252H276.506L276.71 10.0165L276.87 9.96852L277.143 10.0165L277.552 10.1125L278.076 10.3045L278.736 10.5685L279.077 10.7125L279.304 10.9045L279.919 11.5045L280.146 11.7925L280.351 12.1045L280.488 12.4165L280.647 12.5845L280.783 12.8005L280.965 13.1605L281.079 13.5685L281.284 14.0725L281.443 14.6245L281.557 15.1765L281.58 15.9205L281.557 16.2805V17.0005L281.466 17.3365L281.375 17.6965L281.284 17.9365L281.125 18.2965L280.943 18.7525L280.761 19.0645L280.601 19.2085L280.374 19.4725L280.101 19.6885L279.851 20.0485L279.577 20.3845L279.304 20.6725L279.009 21.0085L278.804 21.2485L278.531 21.6085L277.757 22.4245L277.143 23.0245L276.779 23.3365L276.665 23.4325L276.642 23.5045L276.915 23.5765L277.643 23.6485L278.03 23.6245L278.758 23.6965L279.327 23.7445H279.828L280.01 23.8165L280.237 23.8405L280.488 23.8885L280.624 23.9365L280.67 24.2485L280.783 24.5605L280.874 24.6565L280.829 24.7765L280.761 24.8725L280.738 25.0165L280.829 25.1845L280.852 25.3285L280.806 25.4485V25.6165L280.692 25.7125L280.647 25.7605L280.715 25.9525L280.738 26.2165L280.624 26.3605L280.67 26.5525L280.692 26.7925L280.647 26.9845L280.67 27.1285L280.579 27.2485L280.397 27.3685L279.964 27.3925H279.395L278.736 27.4165L277.939 27.3445L277.439 27.3685H276.983L276.506 27.3445H276.233L275.095 27.3925L274.162 27.4885L273.479 27.5125L273.206 27.5605L272.751 27.5845L272.273 27.5125L272.182 27.4885L272.069 27.5845L271.978 27.5125Z" fill="#1A262D"/>
<path d="M289.824 27.5125V27.4645L289.801 27.4405L289.688 27.3925L289.506 27.4885L289.324 27.5125L289.21 27.4405L289.028 27.3925H288.823L288.686 27.3445H288.573L288.527 27.1045L288.573 26.8645L288.55 26.4565L288.573 26.0245L288.459 25.9525L288.436 25.8565V24.5365L288.413 24.1765L288.436 23.9365L288.345 23.7685H288.004L287.617 23.7925L287.139 23.8405L286.73 23.9125H286.548L286.32 23.9365L286.138 23.9605L285.888 24.0325L285.41 24.1045L284.864 24.1765L283.703 24.3685L283.157 24.3925L283.134 24.3445L283.043 24.2965V24.2005L283.021 24.1045L283.043 24.0325L282.998 23.9365L283.021 23.8165V23.6725L283.043 23.5285L282.952 23.4565L283.066 23.3365L283.089 23.2645L282.975 23.2165V23.1205L283.021 23.0485L282.93 22.9525L282.975 22.7845L282.93 22.5685V22.3765L282.861 22.2565L282.884 21.9685L282.816 21.7525L282.839 21.6565L282.77 21.2965L282.748 21.0325L282.725 20.8885L282.77 20.7925L282.839 20.5525L282.93 20.1445L282.998 19.9045L283.021 19.6165L283.089 19.2325L283.112 18.8485L283.157 18.6085V18.4645L283.271 18.2245L283.316 17.9365V17.6725L283.339 17.5045V17.2885L283.453 17.0725L283.544 16.6645L283.612 16.2565L283.589 15.9925L283.681 15.4165L283.84 14.5765L283.908 14.1445L284.045 13.4485L284.204 12.6805L284.386 11.8885L284.431 11.6005L284.545 11.1925L284.682 10.6165L284.818 10.4245L284.909 10.4005L285.046 10.4245L285.205 10.4005L285.455 10.4485L285.592 10.4245L285.751 10.4485L285.888 10.4245L285.979 10.4725L286.07 10.4005L286.183 10.4485L286.229 10.4965L286.297 10.4485H286.548L286.707 10.3765L286.866 10.4245L287.207 10.3525L287.367 10.4005L287.549 10.3525H287.867L288.049 10.3765H288.163L288.209 10.4245L288.14 10.8325L287.981 11.7445L287.799 12.4405L287.64 13.1125L287.526 13.6165L287.344 14.5765L287.162 15.5605L287.071 16.0645L286.889 16.9765L286.821 17.4085L286.548 18.9205L286.434 19.5685L286.366 19.9765L286.388 20.0725L286.57 20.1205H288.118L288.209 20.0965L288.231 19.9045L288.277 19.6645L288.231 19.2565V18.9205L288.14 18.7765V18.0805L288.163 17.0485V15.6085L288.186 14.9845L288.209 14.6965L288.3 14.4565L288.322 14.3125V13.9525L288.345 13.5925L288.368 13.4485L288.391 13.2085L288.459 13.1125L288.55 13.0645L288.777 13.0165L289.096 13.0405L289.415 12.9925L289.528 13.0645L289.688 12.9925H289.915L290.097 13.0165L290.165 13.0885L290.234 13.0165L290.347 12.9445H290.461L290.575 12.9925L290.712 12.9445L290.78 12.9925L290.848 12.9445L290.962 12.8965H291.144L291.28 12.8485L291.462 12.9205L291.713 12.9445L291.895 13.0405L291.918 13.2325V13.6165L291.895 14.2405L291.918 14.5765L291.895 14.9845V17.9365L291.872 18.3445V18.6565L291.827 19.0885L291.895 19.4485L291.827 19.6885L291.872 19.8805V20.0725L291.963 20.1445H292.327L292.464 20.1925L292.577 20.1445L292.941 20.0965L293.306 20.1205L293.51 20.1685L293.738 20.2405L293.829 20.4805L293.897 20.6485L293.965 20.6965L293.988 20.7925L293.965 20.9605L294.034 21.0325V21.1285L293.988 21.2725L293.806 21.3445L293.715 21.3925L293.874 21.4405L293.988 21.5365L294.056 21.6565L293.988 21.8245L293.897 21.9445L293.829 22.0165V22.0885L293.92 22.1125L294.011 22.1605L293.965 22.2325L293.874 22.4005L293.806 22.5925L293.715 22.7365L293.806 22.8085L293.829 22.9285V23.0245L293.738 23.0725L293.67 23.1925L293.601 23.4085L293.647 23.5525L293.397 23.6005L292.964 23.5765L292.191 23.6005L291.986 23.6485L291.918 24.1045L291.895 24.6325L291.872 24.9685L291.849 25.1845L291.804 25.2565L291.735 26.1925L291.713 26.6725L291.735 26.8165L291.804 26.8645L291.827 26.9845L291.804 27.1525L291.758 27.3445H291.485L291.326 27.4165L291.258 27.4645L291.189 27.3685L291.121 27.3445L290.985 27.3685L290.825 27.4405L290.643 27.4165L290.484 27.3685L290.461 27.4165L290.416 27.4405L290.325 27.3685L290.165 27.3925L290.074 27.4165L290.006 27.5125L289.87 27.5605L289.824 27.5125Z" fill="#1A262D"/>
</svg>
