<svg width="34" height="34" viewBox="0 0 34 34" fill="none" xmlns="http://www.w3.org/2000/svg">
<g clip-path="url(#clip0_2027_1067)">
<path d="M33 19.437C32.072 20.6782 30.7784 20.6538 29.5799 20.8686C27.1259 21.3084 24.6938 20.978 22.3233 20.1596C20.6244 19.5731 19.0299 20.2713 17.403 20.5306C15.3044 20.865 13.2266 21.4192 11.0996 20.8104C10.0017 20.4963 9.76505 19.9249 10.4636 18.8523C12.2222 16.152 14.0376 13.5129 16.6193 11.9153C16.7027 11.8637 16.7665 11.7641 16.8956 11.6275C16.7867 11.3231 16.6437 11.0164 16.5652 10.6864C16.3568 9.80978 15.9181 9.65021 15.2311 9.83922C13.643 10.2761 12.0392 10.6246 10.4456 11.0319C9.7182 11.2177 9.09136 11.1135 8.93504 10.0839C8.77943 9.05894 9.33721 8.67449 10.0609 8.5003C12.1692 7.99282 14.2744 7.46523 16.3807 6.94474C17.1783 6.74764 17.5755 7.30647 17.8831 8.10301C18.9468 10.8569 20.0066 13.6136 21.1183 16.3379C21.2971 16.776 21.6884 17.2414 22.058 17.377C25.0995 18.4926 28.1774 18.9482 31.2929 17.8095C31.9953 17.5528 32.5732 17.6938 33 18.4722V19.437Z" fill="#1A262D"/>
<path d="M27.3447 10.2688C27.3222 10.4106 27.2988 10.818 27.1902 11.1873C26.9786 11.9063 26.7738 12.2223 26.084 11.5777C24.9638 10.5309 23.6199 10.0496 22.1827 10.0561C20.9059 10.0618 20.6898 9.60755 21.2604 8.1982C21.926 6.55444 23.4181 5.68373 24.8465 6.10567C26.3852 6.56024 27.3622 8.08631 27.3447 10.2688Z" fill="#1A262D"/>
<path d="M21.0249 10.2362C22.1153 10.3727 23.1643 10.504 24.2132 10.6353L24.0112 10.9931C24.282 11.5691 24.4474 12.3782 24.8526 12.6566C25.2732 12.9456 25.9259 12.721 26.4471 12.721C26.2026 14.2599 24.7182 15.4229 23.2015 15.0543C21.5332 14.6489 20.6054 12.7355 21.0249 10.2362Z" fill="#1A262D"/>
<path d="M8.79382 16.8198C6.69915 16.7642 4.56308 17.0654 2.57474 15.9214C4.71082 15.5299 6.74533 16.2383 8.79382 16.8198Z" fill="#1A262D"/>
<path d="M15.9543 24.4822C17.5696 24.1133 19.5655 23.6573 21.462 23.2241C20.6539 24.4152 18.2204 24.9421 15.9543 24.4822Z" fill="#1A262D"/>
<path d="M5.23438 19.7144C3.98496 20.1807 2.51721 20.7286 1 21.2949C1.80909 20.0197 3.62623 19.425 5.23438 19.7144Z" fill="#1A262D"/>
</g>
<defs>
<clipPath id="clip0_2027_1067">
<rect width="32" height="23" fill="white" transform="translate(1 6)"/>
</clipPath>
</defs>
</svg>
