<svg width="24" height="18" viewBox="0 0 24 18" fill="none" xmlns="http://www.w3.org/2000/svg">
<path d="M23.499 3.36758C23.2139 2.35552 22.4247 1.56178 21.4081 1.28119C19.5363 0.780786 12.0115 0.780786 12.0115 0.780786C12.0115 0.780786 4.50091 0.768782 2.60958 1.28119C1.59827 1.56253 0.805274 2.35552 0.523187 3.36758C0.168328 5.28592 -0.0079757 7.22751 0.000276829 9.17811C-0.00347432 11.116 0.17208 13.0546 0.523187 14.9609C0.805274 15.9729 1.59827 16.7667 2.60958 17.0518C4.4814 17.5522 12.0115 17.5522 12.0115 17.5522C12.0115 17.5522 19.5175 17.5522 21.4081 17.0518C22.4247 16.7667 23.2139 15.9737 23.499 14.9609C23.8433 13.0546 24.0114 11.116 23.9994 9.17811C24.0114 7.22751 23.8471 5.28592 23.499 3.36758ZM9.60772 12.7695V5.571L15.8714 9.17811L9.60772 12.7695Z" fill="white"/>
</svg>
